<svg xmlns="http://www.w3.org/2000/svg" width="46.196" height="46.196" viewBox="0 0 46.196 46.196">
  <path id="Icon_awesome-app-store-ios" data-name="Icon awesome-app-store-ios" d="M41.247,2.25H4.95A4.951,4.951,0,0,0,0,7.2V43.5a4.951,4.951,0,0,0,4.95,4.95h36.3A4.951,4.951,0,0,0,46.2,43.5V7.2A4.951,4.951,0,0,0,41.247,2.25ZM13.1,38.6a2.061,2.061,0,0,1-3.568-2.062L11,33.989a3.539,3.539,0,0,1,4.083,1.176Zm14.323-5.558H8.662a2.062,2.062,0,1,1,0-4.125h5.259l6.744-11.673-2.114-3.65a2.061,2.061,0,0,1,3.568-2.062l.918,1.588.918-1.588a2.061,2.061,0,1,1,3.568,2.062L18.674,28.916h6.4a2.829,2.829,0,0,1,2.341,4.125Zm10.116,0h-2.99l2.021,3.5A2.061,2.061,0,1,1,33,38.6q-5.089-8.8-7.631-13.209A5.7,5.7,0,0,1,26.1,18.4q2.026,3.511,6.074,10.518h5.362a2.062,2.062,0,1,1,0,4.125Z" transform="translate(0 -2.25)" fill="#0062ff"/>
</svg>
