<svg xmlns="http://www.w3.org/2000/svg" width="38.388" height="19.295" viewBox="0 0 38.388 19.295">
  <path id="Icon_awesome-arrow-right" data-name="Icon awesome-arrow-right" d="M-2.578,3.94l.981-.981a1.056,1.056,0,0,1,1.5,0l8.589,8.585a1.056,1.056,0,0,1,0,1.5L-.1,21.63a1.056,1.056,0,0,1-1.5,0l-.981-.981a1.062,1.062,0,0,1,.018-1.515l5.324-5.072h-31.29A1.058,1.058,0,0,1-29.587,13V11.588a1.058,1.058,0,0,1,1.06-1.06H2.763L-2.561,5.455A1.054,1.054,0,0,1-2.578,3.94Z" transform="translate(29.587 -2.647)" fill="#fff"/>
</svg>
