<svg xmlns="http://www.w3.org/2000/svg" width="32.75" height="32.75" viewBox="0 0 32.75 32.75">
  <g id="Icon_ionic-ios-arrow-dropdown" data-name="Icon ionic-ios-arrow-dropdown" transform="translate(-3.375 -3.375)">
    <path id="Path_4407" data-name="Path 4407" d="M10.377,14.813a1.357,1.357,0,0,0,0,1.912l6.7,6.681a1.35,1.35,0,0,0,1.863.042l6.6-6.583a1.349,1.349,0,1,0-1.9-1.912l-5.673,5.589-5.68-5.736A1.351,1.351,0,0,0,10.377,14.813Z" transform="translate(1.781 -1.902)"/>
    <path id="Path_4409" data-name="Path 4409" d="M.394.4a1.357,1.357,0,0,0,0,1.912L7.1,8.993a1.35,1.35,0,0,0,1.863.042l6.6-6.583A1.349,1.349,0,1,0,13.658.54L7.985,6.129,2.306.393A1.351,1.351,0,0,0,.394.4Z" transform="translate(27.726 27.964) rotate(180)"/>
    <path id="Path_4408" data-name="Path 4408" d="M3.375,19.75A16.375,16.375,0,1,0,19.75,3.375,16.373,16.373,0,0,0,3.375,19.75ZM29.544,9.956A13.85,13.85,0,1,1,9.956,29.544,13.85,13.85,0,1,1,29.544,9.956Z"/>
  </g>
</svg>
