<svg xmlns="http://www.w3.org/2000/svg" width="45" height="36" viewBox="0 0 45 36">
  <path id="Icon_awesome-crown" data-name="Icon awesome-crown" d="M37.125,31.5H7.875A1.128,1.128,0,0,0,6.75,32.625v2.25A1.128,1.128,0,0,0,7.875,36h29.25a1.128,1.128,0,0,0,1.125-1.125v-2.25A1.128,1.128,0,0,0,37.125,31.5ZM41.625,9a3.376,3.376,0,0,0-3.375,3.375,3.307,3.307,0,0,0,.309,1.392l-5.091,3.052A2.247,2.247,0,0,1,30.361,16L24.63,5.977a3.375,3.375,0,1,0-4.261,0L14.639,16a2.249,2.249,0,0,1-3.108.816L6.448,13.767A3.374,3.374,0,1,0,3.375,15.75a3.446,3.446,0,0,0,.541-.056L9,29.25H36l5.084-13.556a3.446,3.446,0,0,0,.541.056,3.375,3.375,0,0,0,0-6.75Z" fill="#525252"/>
</svg>
