<svg xmlns="http://www.w3.org/2000/svg" width="25" height="20" viewBox="0 0 25 20">
  <path id="Icon_awesome-crown" data-name="Icon awesome-crown" d="M20.625,17.5H4.375a.627.627,0,0,0-.625.625v1.25A.627.627,0,0,0,4.375,20h16.25a.627.627,0,0,0,.625-.625v-1.25A.627.627,0,0,0,20.625,17.5ZM23.125,5A1.875,1.875,0,0,0,21.25,6.875a1.837,1.837,0,0,0,.172.773l-2.828,1.7a1.248,1.248,0,0,1-1.727-.453L13.684,3.32a1.875,1.875,0,1,0-2.367,0L8.133,8.891a1.249,1.249,0,0,1-1.727.453l-2.824-1.7a1.874,1.874,0,1,0-1.707,1.1,1.915,1.915,0,0,0,.3-.031L5,16.25H20l2.824-7.531a1.915,1.915,0,0,0,.3.031,1.875,1.875,0,1,0,0-3.75Z" fill="#525252"/>
</svg>
