<svg id="Group_1230" data-name="Group 1230" xmlns="http://www.w3.org/2000/svg" xmlns:xlink="http://www.w3.org/1999/xlink" width="47.369" height="43.482" viewBox="0 0 47.369 43.482">
  <defs>
    <clipPath id="clip-path">
      <rect id="Rectangle_521" data-name="Rectangle 521" width="47.369" height="43.482" fill="#525252"/>
    </clipPath>
  </defs>
  <path id="Path_4761" data-name="Path 4761" d="M371.231,416.983c-.319,1.2-.754,3.528-.918,4.767a.133.133,0,0,0,.029.038,3.529,3.529,0,0,1,.667.31,2.791,2.791,0,0,1,.473.359c0-.137.011-.262.011-.4a46.814,46.814,0,0,1,.58-5.076,8.666,8.666,0,0,1,.279-1.248,1.689,1.689,0,0,0-1.121,1.248Zm0,0" transform="translate(-329.448 -402.266)" fill="#525252"/>
  <path id="Path_4762" data-name="Path 4762" d="M374.019,428.648a9.939,9.939,0,0,0,2.147-5.6c.068-1.305.057-2.629.057-3.916v-5.8a1.955,1.955,0,0,0-1.836-2.04l-.494-.057a16.246,16.246,0,0,1-8.49-3.385,2.328,2.328,0,0,0-1.372-.541,2.274,2.274,0,0,0-1.364.541,17.138,17.138,0,0,1-8.817,3.414,1.948,1.948,0,0,0-2.031,2.156l-.011,2.9c-.01,1.953-.01,3.916.011,5.869a11.543,11.543,0,0,0,.3,2.515,11.231,11.231,0,0,0,3.163,5.462,21.588,21.588,0,0,0,8.034,4.979,2.22,2.22,0,0,0,1.586-.087l.851-.367c.7-.3,1.4-.61,2.117-.967a17.636,17.636,0,0,0,6.15-5.076Zm-7.5,2.466c-.638.319-1.3.6-1.944.88-.184.078-.368.154-.562.241V421.54h-9.262c-.009-1.74-.009-3.48-.009-5.211l.009-2.194a20.056,20.056,0,0,0,9.262-3.646V421.55h9.254c-.01.456-.01.919-.038,1.364a6.953,6.953,0,0,1-1.567,3.974,14.5,14.5,0,0,1-5.143,4.225Zm0,0" transform="translate(-340.329 -407.221)" fill="#525252"/>
  <g id="Group_1229" data-name="Group 1229">
    <g id="Group_1228" data-name="Group 1228" clip-path="url(#clip-path)">
      <path id="Path_4763" data-name="Path 4763" d="M369.944,420.806l.078-.589c.116-.87.619-2.506.813-3.4a1.646,1.646,0,0,0-1.1,1.239c-.194.745-.726,2.329-.851,3.133a3.527,3.527,0,0,1,1.053-.213.952.952,0,0,1,.01-.165Zm0,0" transform="translate(-330.289 -401.633)" fill="#525252"/>
      <path id="Path_4764" data-name="Path 4764" d="M345.875,429.19a6.975,6.975,0,0,0,1.974,3.839l7.058,8.5.135,3.916a.643.643,0,0,0,.629.638l7.426.038a.64.64,0,0,0,.637-.629l.262-4.748a10.3,10.3,0,0,0,.078-1.393,7.478,7.478,0,0,0-.04-.811,10.923,10.923,0,0,0-4.824-7.214,7.2,7.2,0,0,1-1.208-1.17l-4.39-5.646a1.734,1.734,0,0,0-2.369-.522,1.766,1.766,0,0,0-.638,2.36l4.225,6.894a.466.466,0,0,1-.173.648.472.472,0,0,1-.61-.145l-.175-.262a56.994,56.994,0,0,1-4.786-7.822,5.276,5.276,0,0,1-.492-1.955c-.011-.1-.011-.251-.021-.357a45.515,45.515,0,0,0-.56-5.367,7.242,7.242,0,0,0-.754-2.59,1.439,1.439,0,0,0-2.069-.127,1.757,1.757,0,0,0-.6,1.558l1.229,11.921Zm0,0" transform="translate(-344.577 -402.765)" fill="#525252"/>
      <path id="Path_4765" data-name="Path 4765" d="M381.012,415.272a1.439,1.439,0,0,0-2.069.127,6.874,6.874,0,0,0-.754,2.591,43.721,43.721,0,0,0-.56,5.365c0,.106-.01.252-.019.359a5.306,5.306,0,0,1-.494,1.953,56.639,56.639,0,0,1-4.786,7.822l-.175.262a.472.472,0,0,1-.61.144.466.466,0,0,1-.173-.648l4.225-6.894a1.768,1.768,0,0,0-.638-2.36,1.717,1.717,0,0,0-2.369.522l-4.39,5.646a7.136,7.136,0,0,1-1.208,1.17,10.865,10.865,0,0,0-4.824,7.214s-.03.329-.04.811a10.377,10.377,0,0,0,.078,1.393l.262,4.748a.634.634,0,0,0,.637.629l7.426-.038a.636.636,0,0,0,.629-.638l.135-3.917,7.058-8.5a7.007,7.007,0,0,0,1.974-3.839l.068-.435,1.227-11.922a1.777,1.777,0,0,0-.61-1.567Zm0,0" transform="translate(-334.259 -402.761)" fill="#525252"/>
    </g>
  </g>
  <path id="Path_4766" data-name="Path 4766" d="M347.386,415.741a10.577,10.577,0,0,1,.279,1.248,42.607,42.607,0,0,1,.581,5.076c0,.135.01.26.01.4a3.519,3.519,0,0,1,.473-.357,3.237,3.237,0,0,1,.667-.31.13.13,0,0,1,.029-.038c-.164-1.227-.6-3.558-.918-4.767a1.658,1.658,0,0,0-1.121-1.248Zm0,0" transform="translate(-342.925 -402.263)" fill="#525252"/>
  <path id="Path_4767" data-name="Path 4767" d="M348.871,416.813c.194.9.7,2.534.813,3.4l.078.589a1.065,1.065,0,0,1,.01.175,3.255,3.255,0,0,1,1.053.213c-.116-.8-.646-2.388-.849-3.133a1.649,1.649,0,0,0-1.1-1.248Zm0,0" transform="translate(-342.052 -401.633)" fill="#525252"/>
</svg>
