<svg xmlns="http://www.w3.org/2000/svg" width="70.473" height="57.694" viewBox="0 0 70.473 57.694">
  <g id="Group_507" data-name="Group 507" transform="translate(-92.11 -223.446)">
    <path id="Path_2351" data-name="Path 2351" d="M92.11,224.343v3.26a.9.9,0,0,0,.9.9h2.43v1.987h-2.43a.9.9,0,0,0-.9.9v3.325a.9.9,0,0,0,.9.9h6.721v33.369H93.007a.9.9,0,0,0-.9.9v3.258a.9.9,0,0,0,.9.9h2.43v1.989h-2.43a.9.9,0,0,0-.9.9v3.325a.9.9,0,0,0,.9.9h68.68a.9.9,0,0,0,.9-.9v-3.325a.9.9,0,0,0-.9-.9h-2.858v-1.989h2.858a.9.9,0,0,0,.9-.9v-3.258a.9.9,0,0,0-.9-.9h-7.58V235.608h7.58a.9.9,0,0,0,.9-.9v-3.325a.9.9,0,0,0-.9-.9h-2.858V228.5h2.858a.9.9,0,0,0,.9-.9v-3.26a.9.9,0,0,0-.9-.9H93.007A.9.9,0,0,0,92.11,224.343Zm1.794.9h66.884V226.7h-2.856a.9.9,0,0,0-.9.9v3.781a.9.9,0,0,0,.9.9h2.856v1.529h-7.352a.886.886,0,0,0-.228-.033h-5.4a.885.885,0,0,0-.228.033H106.9a.883.883,0,0,0-.226-.033h-6.043a.886.886,0,0,0-.228.033H93.9v-1.529h2.432a.9.9,0,0,0,.9-.9V227.6a.9.9,0,0,0-.9-.9H93.9Zm58.407,43.318H148.7V235.574h3.609Zm8.477,3.68h-2.856a.9.9,0,0,0-.9.9v3.783a.9.9,0,0,0,.9.9h2.856v1.529H93.9v-1.529h2.432a.9.9,0,0,0,.9-.9v-3.783a.9.9,0,0,0-.9-.9H93.9v-1.464h66.884Zm-59.264-36.664h4.247v32.984h-4.247Zm6.263,33.4V235.608h39.121v33.369Z" transform="translate(0 0)" fill="#9a9a9a"/>
    <path id="Path_2352" data-name="Path 2352" d="M115.01,230.725h6.656a.9.9,0,0,0,.9-.9v-3.781a.9.9,0,0,0-.9-.9H115.01a.9.9,0,0,0-.9.9v3.781A.9.9,0,0,0,115.01,230.725Zm.9-3.783h4.857v1.987h-4.857Z" transform="translate(20.169 1.558)" fill="#9a9a9a"/>
    <path id="Path_2353" data-name="Path 2353" d="M109.077,230.725h6.652a.9.9,0,0,0,.9-.9v-3.781a.9.9,0,0,0-.9-.9h-6.652a.9.9,0,0,0-.9.9v3.781A.9.9,0,0,0,109.077,230.725Zm.9-3.783h4.858v1.987h-4.858Z" transform="translate(14.729 1.558)" fill="#9a9a9a"/>
    <path id="Path_2354" data-name="Path 2354" d="M120.947,230.725H127.6a.9.9,0,0,0,.9-.9v-3.781a.9.9,0,0,0-.9-.9h-6.652a.9.9,0,0,0-.9.9v3.781A.9.9,0,0,0,120.947,230.725Zm.9-3.783H126.7v1.987h-4.858Z" transform="translate(25.608 1.558)" fill="#9a9a9a"/>
    <path id="Path_2355" data-name="Path 2355" d="M96.984,230.725h6.652a.9.9,0,0,0,.9-.9v-3.781a.9.9,0,0,0-.9-.9H96.984a.9.9,0,0,0-.9.9v3.781A.9.9,0,0,0,96.984,230.725Zm.9-3.783h4.858v1.987H97.881Z" transform="translate(3.643 1.558)" fill="#9a9a9a"/>
    <path id="Path_2356" data-name="Path 2356" d="M102.917,230.725h6.654a.9.9,0,0,0,.9-.9v-3.781a.9.9,0,0,0-.9-.9h-6.654a.9.9,0,0,0-.9.9v3.781A.9.9,0,0,0,102.917,230.725Zm.9-3.783h4.858v1.987h-4.858Z" transform="translate(9.083 1.558)" fill="#9a9a9a"/>
    <path id="Path_2357" data-name="Path 2357" d="M103.636,248.9H96.984a.9.9,0,0,0-.9.9v3.783a.9.9,0,0,0,.9.9h6.652a.9.9,0,0,0,.9-.9V249.8A.9.9,0,0,0,103.636,248.9Zm-.9,3.783H97.881V250.7h4.858Z" transform="translate(3.643 23.334)" fill="#9a9a9a"/>
    <path id="Path_2358" data-name="Path 2358" d="M115.729,248.9h-6.652a.9.9,0,0,0-.9.9v3.783a.9.9,0,0,0,.9.9h6.652a.9.9,0,0,0,.9-.9V249.8A.9.9,0,0,0,115.729,248.9Zm-.9,3.783h-4.858V250.7h4.858Z" transform="translate(14.729 23.334)" fill="#9a9a9a"/>
    <path id="Path_2359" data-name="Path 2359" d="M120.05,249.8v3.783a.9.9,0,0,0,.9.9H127.6a.9.9,0,0,0,.9-.9V249.8a.9.9,0,0,0-.9-.9h-6.652A.9.9,0,0,0,120.05,249.8Zm6.652,2.886h-4.858V250.7H126.7Z" transform="translate(25.608 23.334)" fill="#9a9a9a"/>
    <path id="Path_2360" data-name="Path 2360" d="M109.571,248.9h-6.654a.9.9,0,0,0-.9.9v3.783a.9.9,0,0,0,.9.9h6.654a.9.9,0,0,0,.9-.9V249.8A.9.9,0,0,0,109.571,248.9Zm-.9,3.783h-4.858V250.7h4.858Z" transform="translate(9.083 23.334)" fill="#9a9a9a"/>
    <path id="Path_2361" data-name="Path 2361" d="M121.666,248.9H115.01a.9.9,0,0,0-.9.9v3.783a.9.9,0,0,0,.9.9h6.656a.9.9,0,0,0,.9-.9V249.8A.9.9,0,0,0,121.666,248.9Zm-.9,3.783h-4.857V250.7h4.857Z" transform="translate(20.169 23.334)" fill="#9a9a9a"/>
    <path id="Path_2362" data-name="Path 2362" d="M126.69,243.926,107.8,231.2a.9.9,0,0,0-1.4.744V257.4a.9.9,0,0,0,.475.793.916.916,0,0,0,.422.105.9.9,0,0,0,.5-.153l18.89-12.73a.9.9,0,0,0,0-1.489Zm-18.495,11.787V233.628l16.388,11.041Z" transform="translate(13.098 6.963)" fill="#9a9a9a"/>
  </g>
</svg>
