<?xml version="1.0" encoding="utf-8"?>
<!-- Generator: Adobe Illustrator 19.0.0, SVG Export Plug-In . SVG Version: 6.00 Build 0)  -->
<svg version="1.1" id="Logo" xmlns="http://www.w3.org/2000/svg" xmlns:xlink="http://www.w3.org/1999/xlink" x="0px" y="0px"
	 viewBox="0 0 2048 1006" style="enable-background:new 0 0 2048 1006;" xml:space="preserve">
<style type="text/css">
	.st0{fill:#F3F3F3;}
	.st1{fill:#747474;}
	.st2{fill:#01A9E2;}
	.st3{fill:#01AEF1;}
	.st4{fill:#6DBF41;}
	.st5{fill:#0093D9;}
	.st6{fill:#70CAC2;}
	.st7{fill:#7B64AB;}
	.st8{fill:#69BB41;}
	.st9{fill:#F3CD30;}
	.st10{fill:#F27020;}
	.st11{fill:#B358A7;}
	.st12{fill:#7FC89A;}
	.st13{fill:#E74E23;}
	.st14{fill:#6EC343;}
	.st15{fill:#7ACFE5;}
	.st16{fill:#6FCAC5;}
	.st17{fill:#7B62AB;}
	.st18{fill:#EA422B;}
	.st19{fill:#F2D472;}
	.st20{fill:#B15AA1;}
	.st21{fill:#E87824;}
	.st22{fill:#FFFEF6;}
	.st23{fill:#01AEF2;}
</style>
<rect id="XMLID_28_" class="st0" width="2048" height="1006"/>
<g id="XMLID_27_">
	<path id="XMLID_78_" class="st1" d="M821.1,578.9l1.7-4.3c0.9,0.6,2,1.2,3.3,1.6s2.5,0.6,3.5,0.6c1.8,0,3.3-0.5,4.4-1.5
		s1.7-2.3,1.7-3.8c0-1.2-0.3-2.2-0.9-3.2s-2.2-2.1-4.7-3.2l-2.8-1.3c-2.3-1.1-4-2.4-4.9-3.9s-1.4-3.3-1.4-5.4c0-2.6,0.9-4.7,2.7-6.4
		s4.1-2.5,7-2.5c3.8,0,6.4,0.6,7.9,1.9l-1.4,4.1c-0.6-0.5-1.6-0.9-2.9-1.3s-2.5-0.6-3.6-0.6c-1.6,0-2.8,0.5-3.8,1.4
		s-1.4,2.1-1.4,3.5c0,0.9,0.2,1.7,0.5,2.4s0.8,1.3,1.4,1.8s1.8,1.2,3.6,2l2.8,1.3c2.3,1.1,4,2.4,4.9,4s1.4,3.5,1.4,5.9
		c0,2.6-1,4.8-3.1,6.6s-4.8,2.7-8.3,2.7C825.8,581.1,823.2,580.4,821.1,578.9z"/>
	<path id="XMLID_162_" class="st1" d="M866.5,568.4h-18.1c0,2.9,0.8,5.2,2.4,6.8c1.4,1.4,3.3,2.1,5.5,2.1c2.5,0,4.7-0.7,6.4-2.2
		l1.9,3.2c-0.7,0.7-1.7,1.3-3.2,1.8c-1.8,0.7-3.8,1-6,1c-3.2,0-5.8-1.1-8-3.2c-2.5-2.4-3.7-5.5-3.7-9.5c0-4.1,1.3-7.5,3.8-10
		c2.3-2.2,4.9-3.4,8-3.4c3.6,0,6.4,1,8.4,3c2,1.9,3,4.5,3,7.7C866.8,566.6,866.7,567.5,866.5,568.4z M855.7,558.7
		c-2,0-3.6,0.6-5,1.9c-1.3,1.2-2,2.7-2.2,4.5h13.9c0-1.8-0.6-3.3-1.7-4.5C859.5,559.3,857.8,558.7,855.7,558.7z"/>
	<path id="XMLID_165_" class="st1" d="M873.1,558.9h-2.9v-3.5h2.9v-5.3l4.5-1.7v7h6.9v3.5h-6.9v12.5c0,2.1,0.4,3.6,1.1,4.5
		s1.9,1.3,3.4,1.3c1.1,0,2.3-0.3,3.5-0.9l0.7,3.9c-1.8,0.5-3.9,0.7-6.1,0.7c-2,0-3.7-0.7-5-2.2s-2.1-3.3-2.1-5.6V558.9z"/>
	<path id="XMLID_167_" class="st1" d="M909.2,555.4v16c0,3.9,1.7,5.8,5,5.8c1.5,0,2.8-0.4,4-1.3s2-1.8,2.4-2.9v-17.6h4.5v25.1h-4.5
		V577c-0.5,1-1.5,1.9-3,2.7s-3,1.2-4.4,1.2c-2.8,0-4.9-0.8-6.3-2.4s-2.2-3.8-2.2-6.7v-16.5H909.2z"/>
	<path id="XMLID_169_" class="st1" d="M935.7,579.1v11.2h-4.5v-34.9h4.5v2.1c1.7-1.7,3.7-2.5,6.1-2.5c3.6,0,6.3,1.1,8.3,3.3
		s3,5.5,3,9.8c0,3.8-1,6.9-3,9.3s-4.9,3.6-8.7,3.6c-1.1,0-2.2-0.2-3.4-0.6S936,579.6,935.7,579.1z M935.7,560.8v14.6
		c0.3,0.4,0.9,0.8,1.8,1.2s1.8,0.6,2.6,0.6c5.5,0,8.3-3.1,8.3-9.4c0-3.2-0.7-5.5-2-7s-3.4-2.2-6.3-2.2c-0.6,0-1.4,0.2-2.3,0.7
		S936.2,560.3,935.7,560.8z"/>
	<path id="XMLID_172_" class="st1" d="M976.2,578.7l-1.6,2.3h-2.2v-35.9h4.5v12.1c0.4-0.6,1.2-1.1,2.4-1.6s2.3-0.7,3.4-0.7
		c3.4,0,6.2,1.2,8.4,3.6s3.2,5.4,3.2,9c0,4.2-1.1,7.5-3.2,9.9s-5,3.6-8.7,3.6c-1.2,0-2.4-0.2-3.5-0.7S976.8,579.3,976.2,578.7z
		 M976.9,560.6v14.5c0,0.3,0.6,0.7,1.7,1.2s2,0.9,2.5,0.9c3,0,5.2-0.7,6.5-2.2s2-3.9,2-7.3c0-2.8-0.8-5.1-2.3-6.7s-3.6-2.4-6.2-2.4
		c-0.5,0-1.3,0.2-2.3,0.7S977.2,560.3,976.9,560.6z"/>
	<path id="XMLID_175_" class="st1" d="M1008.8,584.8c-0.6,1.6-1.8,2.9-3.6,4s-3.9,1.6-6.2,1.6v-4c1.9,0,3.5-0.4,4.8-1.3s2-1.9,2-3.2
		c0-1.4-0.2-2.7-0.7-4.1s-1.1-3-1.9-5l-6.8-17.5h4.5l7.4,19.4l6.6-19.4h4.5L1008.8,584.8z"/>
	<path id="XMLID_177_" class="st1" d="M1063.5,580.5l-4.1-22.1L1052,581h-1.2l-7.7-22.5l-4,22.1h-4.5l6.4-34.3h2.1l8.2,25.1
		l7.5-25.1h2.1l7,34.3H1063.5z"/>
	<path id="XMLID_180_" class="st1" d="M1073.5,580.5v-21.4h-3.4v-3.8h7.9v25.1H1073.5z M1076,545.9c0.8,0,1.4,0.3,2,0.8
		s0.8,1.2,0.8,1.9c0,0.8-0.3,1.4-0.8,2s-1.2,0.8-2,0.8c-0.8,0-1.4-0.3-1.9-0.8s-0.8-1.2-0.8-2s0.3-1.4,0.8-1.9
		S1075.2,545.9,1076,545.9z"/>
	<path id="XMLID_186_" class="st1" d="M1100.5,580.5v-14.6c0-2.7-0.4-4.5-1.2-5.6s-2.2-1.6-4-1.6c-1,0-2.1,0.3-3.2,0.9
		s-2,1.4-2.6,2.3v18.7h-4.5v-25.1h3l1.4,3.2c1.5-2.5,3.9-3.7,7.2-3.7c5.5,0,8.3,3.3,8.3,10v15.5H1100.5z"/>
	<path id="XMLID_188_" class="st1" d="M1113.5,580.5v-21.4h-3.4v-3.8h7.9v25.1H1113.5z M1115.9,545.9c0.8,0,1.4,0.3,2,0.8
		s0.8,1.2,0.8,1.9c0,0.8-0.3,1.4-0.8,2s-1.2,0.8-2,0.8c-0.8,0-1.4-0.3-1.9-0.8s-0.8-1.2-0.8-2s0.3-1.4,0.8-1.9
		S1115.1,545.9,1115.9,545.9z"/>
	<path id="XMLID_191_" class="st1" d="M1123.3,579l1.6-4.2c2.5,1.6,4.5,2.4,6,2.4c2.8,0,4.1-1.2,4.1-3.5c0-1.7-1.3-3.1-4-4.3
		c-2-0.9-3.4-1.6-4.1-2.1s-1.3-1-1.9-1.7s-0.9-1.3-1.2-2s-0.4-1.4-0.4-2.2c0-2.1,0.8-3.7,2.3-4.8s3.5-1.7,5.9-1.7
		c1.8,0,4.1,0.6,6.9,1.7l-1.3,4.1c-1.8-1.4-3.5-2.1-5.3-2.1c-1.1,0-2,0.3-2.7,0.8s-1.1,1.1-1.1,1.9c0,1.6,0.9,2.8,2.7,3.7l3.2,1.5
		c2,0.9,3.4,1.9,4.3,3s1.3,2.6,1.3,4.3c0,2.3-0.8,4-2.4,5.3s-3.8,1.9-6.6,1.9C1128.2,581,1125.7,580.3,1123.3,579z"/>
	<path id="XMLID_193_" class="st1" d="M1146,558.9h-2.9v-3.5h2.9v-5.3l4.5-1.7v7h6.9v3.5h-6.9v12.5c0,2.1,0.4,3.6,1.1,4.5
		s1.9,1.3,3.4,1.3c1.1,0,2.3-0.3,3.5-0.9l0.7,3.9c-1.8,0.5-3.9,0.7-6.1,0.7c-2,0-3.7-0.7-5-2.2s-2.1-3.3-2.1-5.6V558.9z"/>
	<path id="XMLID_195_" class="st1" d="M1177.1,559.7c-1-0.7-1.9-1-2.9-1c-1.6,0-3,0.7-4.1,2.2s-1.8,3.2-1.8,5.3v14.4h-4.5v-25.1h4.5
		v4c1.6-3,4-4.5,7.2-4.5c0.8,0,1.9,0.1,3.4,0.4L1177.1,559.7z"/>
	<path id="XMLID_197_" class="st1" d="M1191.7,584.8c-0.6,1.6-1.8,2.9-3.6,4s-3.9,1.6-6.2,1.6v-4c1.9,0,3.5-0.4,4.8-1.3s2-1.9,2-3.2
		c0-1.4-0.2-2.7-0.7-4.1s-1.1-3-1.9-5l-6.8-17.5h4.5l7.4,19.4l6.6-19.4h4.5L1191.7,584.8z"/>
	<path id="XMLID_199_" class="st1" d="M1218.6,567.9c0-3.9,1-7,3.1-9.4s4.8-3.6,8.2-3.6c3.6,0,6.4,1.1,8.4,3.4s3,5.5,3,9.5
		c0,4-1,7.2-3,9.6s-4.8,3.5-8.3,3.5c-3.6,0-6.4-1.2-8.4-3.5S1218.6,571.9,1218.6,567.9z M1223.3,567.9c0,6.3,2.2,9.4,6.7,9.4
		c2.1,0,3.7-0.8,4.9-2.5s1.8-4,1.8-6.9c0-6.2-2.2-9.3-6.7-9.3c-2,0-3.7,0.8-4.9,2.5S1223.3,565,1223.3,567.9z"/>
	<path id="XMLID_219_" class="st1" d="M1259.6,549.1c-0.9-0.3-1.8-0.5-2.5-0.5c-1.4,0-2.5,0.5-3.4,1.5s-1.3,2.3-1.3,3.9
		c0,0.4,0,0.9,0.1,1.3h5.1v3.8h-5.1v21.4h-4.5v-21.4h-3.7v-3.8h3.7c0-3.2,0.8-5.7,2.4-7.5s3.7-2.7,6.3-2.7c1.3,0,2.7,0.2,4.2,0.7
		L1259.6,549.1z"/>
	<path id="XMLID_221_" class="st1" d="M1300.5,547.4l-1.6,4c-1.5-1.1-3.9-1.6-7.1-1.6c-3,0-5.4,1.3-7.3,3.9s-2.7,5.9-2.7,10
		c0,3.9,0.9,7.1,2.8,9.5s4.3,3.6,7.2,3.6c3.2,0,5.7-1.1,7.4-3.4l2.6,3.6c-2.7,2.7-6.2,4.1-10.5,4.1c-4.5,0-8-1.6-10.6-4.9
		s-3.9-7.5-3.9-12.8c0-5.1,1.4-9.4,4.1-12.8s6.3-5.1,10.7-5.1C1295.4,545.6,1298.4,546.2,1300.5,547.4z"/>
	<path id="XMLID_223_" class="st1" d="M1305.3,567.9c0-3.9,1-7,3.1-9.4s4.8-3.6,8.2-3.6c3.6,0,6.4,1.1,8.4,3.4s3,5.5,3,9.5
		c0,4-1,7.2-3,9.6s-4.8,3.5-8.3,3.5c-3.6,0-6.4-1.2-8.4-3.5S1305.3,571.9,1305.3,567.9z M1310,567.9c0,6.3,2.2,9.4,6.7,9.4
		c2.1,0,3.7-0.8,4.9-2.5s1.8-4,1.8-6.9c0-6.2-2.2-9.3-6.7-9.3c-2,0-3.7,0.8-4.9,2.5S1310,565,1310,567.9z"/>
	<path id="XMLID_226_" class="st1" d="M1361.7,580.5v-15.9c0-4-1.7-5.9-5.1-5.9c-1.1,0-2.1,0.3-3,1s-1.6,1.4-1.9,2.3v18.6h-4.5
		v-17.8c0-1.2-0.5-2.2-1.4-2.9s-2.2-1.1-3.7-1.1c-0.9,0-1.8,0.3-2.8,1s-1.7,1.4-2.1,2.3v18.5h-4.5v-25.1h2.9l1.5,2.9
		c1.7-2.3,3.9-3.4,6.4-3.4c3.6,0,6.1,1.1,7.5,3.4c0.5-1,1.4-1.8,2.8-2.4s2.8-1,4.2-1c2.6,0,4.6,0.8,6,2.3s2.1,3.7,2.1,6.5v16.8
		H1361.7z"/>
	<path id="XMLID_228_" class="st1" d="M1401.6,580.5v-15.9c0-4-1.7-5.9-5.1-5.9c-1.1,0-2.1,0.3-3,1s-1.6,1.4-1.9,2.3v18.6h-4.5
		v-17.8c0-1.2-0.5-2.2-1.4-2.9s-2.2-1.1-3.7-1.1c-0.9,0-1.8,0.3-2.8,1s-1.7,1.4-2.1,2.3v18.5h-4.5v-25.1h2.9l1.5,2.9
		c1.7-2.3,3.9-3.4,6.4-3.4c3.6,0,6.1,1.1,7.5,3.4c0.5-1,1.4-1.8,2.8-2.4s2.8-1,4.2-1c2.6,0,4.6,0.8,6,2.3s2.1,3.7,2.1,6.5v16.8
		H1401.6z"/>
	<path id="XMLID_230_" class="st1" d="M1433.5,568.4h-18.1c0,2.9,0.8,5.2,2.4,6.8c1.4,1.4,3.3,2.1,5.5,2.1c2.5,0,4.7-0.7,6.4-2.2
		l1.9,3.2c-0.7,0.7-1.7,1.3-3.2,1.8c-1.8,0.7-3.8,1-6,1c-3.2,0-5.8-1.1-8-3.2c-2.5-2.4-3.7-5.5-3.7-9.5c0-4.1,1.3-7.5,3.8-10
		c2.3-2.2,4.9-3.4,8-3.4c3.6,0,6.4,1,8.4,3c2,1.9,3,4.5,3,7.7C1433.8,566.6,1433.7,567.5,1433.5,568.4z M1422.7,558.7
		c-2,0-3.6,0.6-5,1.9c-1.3,1.2-2,2.7-2.2,4.5h13.9c0-1.8-0.6-3.3-1.7-4.5C1426.5,559.3,1424.8,558.7,1422.7,558.7z"/>
	<path id="XMLID_233_" class="st1" d="M1452.2,559.7c-1-0.7-1.9-1-2.9-1c-1.6,0-3,0.7-4.1,2.2s-1.8,3.2-1.8,5.3v14.4h-4.5v-25.1h4.5
		v4c1.6-3,4-4.5,7.2-4.5c0.8,0,1.9,0.1,3.4,0.4L1452.2,559.7z"/>
	<path id="XMLID_235_" class="st1" d="M1476.1,557.4l-2.2,3.1c-0.5-0.5-1.3-0.9-2.4-1.3s-2.3-0.6-3.4-0.6c-2.4,0-4.3,0.8-5.8,2.5
		s-2.1,4-2.1,7c0,2.9,0.7,5.2,2.2,6.7s3.5,2.3,6,2.3c2,0,4-0.8,6-2.3l1.8,3.8c-2.4,1.5-5.4,2.3-8.9,2.3c-3.4,0-6.3-1.1-8.5-3.4
		s-3.4-5.4-3.4-9.3c0-4,1.2-7.2,3.5-9.6s5.5-3.6,9.5-3.6c1.3,0,2.7,0.3,4.2,0.8S1475.4,556.9,1476.1,557.4z"/>
	<path id="XMLID_237_" class="st1" d="M1502.1,568.4H1484c0,2.9,0.8,5.2,2.4,6.8c1.4,1.4,3.3,2.1,5.5,2.1c2.5,0,4.7-0.7,6.4-2.2
		l1.9,3.2c-0.7,0.7-1.7,1.3-3.2,1.8c-1.8,0.7-3.8,1-6,1c-3.2,0-5.8-1.1-8-3.2c-2.5-2.4-3.7-5.5-3.7-9.5c0-4.1,1.3-7.5,3.8-10
		c2.3-2.2,4.9-3.4,8-3.4c3.6,0,6.4,1,8.4,3c2,1.9,3,4.5,3,7.7C1502.4,566.6,1502.3,567.5,1502.1,568.4z M1491.3,558.7
		c-2,0-3.6,0.6-5,1.9c-1.3,1.2-2,2.7-2.2,4.5h13.9c0-1.8-0.6-3.3-1.7-4.5C1495.1,559.3,1493.4,558.7,1491.3,558.7z"/>
	<path id="XMLID_240_" class="st1" d="M1509.2,589l-1.2-1.7c2.7-2.2,4-4.1,4-5.6c0-0.7-0.2-1.4-0.7-2.1c-1.3-0.6-2-1.6-2-2.8
		c0-0.8,0.3-1.5,1-2.1s1.4-0.8,2.4-0.8c0.9,0,1.6,0.4,2.3,1.1s1,1.6,1,2.6c0,2.1-0.4,3.9-1.3,5.6S1512,586.9,1509.2,589z"/>
	<path id="XMLID_242_" class="st1" d="M1563.4,548.5l-1.9,3.9c-2.4-1.8-4.7-2.6-6.9-2.6c-3.6,0-6.4,1.3-8.5,3.8s-3.1,5.9-3.1,10.1
		c0,4,1,7.2,3.1,9.6s4.8,3.6,8.3,3.6c2.5,0,4.5-0.8,6.1-2.3v-8h-4.8v-4h9.4v15c-1.3,1.1-3,1.9-5.2,2.6s-4.4,1-6.5,1
		c-4.7,0-8.5-1.6-11.2-4.8s-4.1-7.5-4.1-12.8c0-5.3,1.5-9.6,4.5-12.9s7.1-5,12.2-5C1558.2,545.6,1561.1,546.6,1563.4,548.5z"/>
	<path id="XMLID_244_" class="st1" d="M1570,567.9c0-3.9,1-7,3.1-9.4s4.8-3.6,8.2-3.6c3.6,0,6.4,1.1,8.4,3.4s3,5.5,3,9.5
		c0,4-1,7.2-3,9.6s-4.8,3.5-8.3,3.5c-3.6,0-6.4-1.2-8.4-3.5S1570,571.9,1570,567.9z M1574.7,567.9c0,6.3,2.2,9.4,6.7,9.4
		c2.1,0,3.7-0.8,4.9-2.5s1.8-4,1.8-6.9c0-6.2-2.2-9.3-6.7-9.3c-2,0-3.7,0.8-4.9,2.5S1574.7,565,1574.7,567.9z"/>
	<path id="XMLID_247_" class="st1" d="M1606.5,581h-1.2l-10.8-25.6h4.9l6.6,17.6l6.8-17.6h4.7L1606.5,581z"/>
	<path id="XMLID_249_" class="st1" d="M1642.1,568.4H1624c0,2.9,0.8,5.2,2.4,6.8c1.4,1.4,3.3,2.1,5.5,2.1c2.5,0,4.7-0.7,6.4-2.2
		l1.9,3.2c-0.7,0.7-1.7,1.3-3.2,1.8c-1.8,0.7-3.8,1-6,1c-3.2,0-5.8-1.1-8-3.2c-2.5-2.4-3.7-5.5-3.7-9.5c0-4.1,1.3-7.5,3.8-10
		c2.3-2.2,4.9-3.4,8-3.4c3.6,0,6.4,1,8.4,3c2,1.9,3,4.5,3,7.7C1642.4,566.6,1642.3,567.5,1642.1,568.4z M1631.3,558.7
		c-2,0-3.6,0.6-5,1.9c-1.3,1.2-2,2.7-2.2,4.5h13.9c0-1.8-0.6-3.3-1.7-4.5C1635.1,559.3,1633.4,558.7,1631.3,558.7z"/>
	<path id="XMLID_252_" class="st1" d="M1660.8,559.7c-1-0.7-1.9-1-2.9-1c-1.6,0-3,0.7-4.1,2.2s-1.8,3.2-1.8,5.3v14.4h-4.5v-25.1h4.5
		v4c1.6-3,4-4.5,7.2-4.5c0.8,0,1.9,0.1,3.4,0.4L1660.8,559.7z"/>
	<path id="XMLID_254_" class="st1" d="M1681.2,580.5v-14.6c0-2.7-0.4-4.5-1.2-5.6s-2.2-1.6-4-1.6c-1,0-2.1,0.3-3.2,0.9
		s-2,1.4-2.6,2.3v18.7h-4.5v-25.1h3l1.4,3.2c1.5-2.5,3.9-3.7,7.2-3.7c5.5,0,8.3,3.3,8.3,10v15.5H1681.2z"/>
	<path id="XMLID_256_" class="st1" d="M1721.1,580.5v-15.9c0-4-1.7-5.9-5.1-5.9c-1.1,0-2.1,0.3-3,1s-1.6,1.4-1.9,2.3v18.6h-4.5
		v-17.8c0-1.2-0.5-2.2-1.4-2.9s-2.2-1.1-3.7-1.1c-0.9,0-1.8,0.3-2.8,1s-1.7,1.4-2.1,2.3v18.5h-4.5v-25.1h2.9l1.5,2.9
		c1.7-2.3,3.9-3.4,6.4-3.4c3.6,0,6.1,1.1,7.5,3.4c0.5-1,1.4-1.8,2.8-2.4s2.8-1,4.2-1c2.6,0,4.6,0.8,6,2.3s2.1,3.7,2.1,6.5v16.8
		H1721.1z"/>
	<path id="XMLID_258_" class="st1" d="M1753,568.4h-18.1c0,2.9,0.8,5.2,2.4,6.8c1.4,1.4,3.3,2.1,5.5,2.1c2.5,0,4.7-0.7,6.4-2.2
		l1.9,3.2c-0.7,0.7-1.7,1.3-3.2,1.8c-1.8,0.7-3.8,1-6,1c-3.2,0-5.8-1.1-8-3.2c-2.5-2.4-3.7-5.5-3.7-9.5c0-4.1,1.3-7.5,3.8-10
		c2.3-2.2,4.9-3.4,8-3.4c3.6,0,6.4,1,8.4,3c2,1.9,3,4.5,3,7.7C1753.3,566.6,1753.2,567.5,1753,568.4z M1742.2,558.7
		c-2,0-3.6,0.6-5,1.9c-1.3,1.2-2,2.7-2.2,4.5h13.9c0-1.8-0.6-3.3-1.7-4.5C1746,559.3,1744.3,558.7,1742.2,558.7z"/>
	<path id="XMLID_261_" class="st1" d="M1773.5,580.5v-14.6c0-2.7-0.4-4.5-1.2-5.6s-2.2-1.6-4-1.6c-1,0-2.1,0.3-3.2,0.9
		s-2,1.4-2.6,2.3v18.7h-4.5v-25.1h3l1.4,3.2c1.5-2.5,3.9-3.7,7.2-3.7c5.5,0,8.3,3.3,8.3,10v15.5H1773.5z"/>
	<path id="XMLID_263_" class="st1" d="M1785.9,558.9h-2.9v-3.5h2.9v-5.3l4.5-1.7v7h6.9v3.5h-6.9v12.5c0,2.1,0.4,3.6,1.1,4.5
		s1.9,1.3,3.4,1.3c1.1,0,2.3-0.3,3.5-0.9l0.7,3.9c-1.8,0.5-3.9,0.7-6.1,0.7c-2,0-3.7-0.7-5-2.2s-2.1-3.3-2.1-5.6V558.9z"/>
	<path id="XMLID_265_" class="st1" d="M1816.1,567.9c0-3.9,1-7,3.1-9.4s4.8-3.6,8.2-3.6c3.6,0,6.4,1.1,8.4,3.4s3,5.5,3,9.5
		c0,4-1,7.2-3,9.6s-4.8,3.5-8.3,3.5c-3.6,0-6.4-1.2-8.4-3.5S1816.1,571.9,1816.1,567.9z M1820.8,567.9c0,6.3,2.2,9.4,6.7,9.4
		c2.1,0,3.7-0.8,4.9-2.5s1.8-4,1.8-6.9c0-6.2-2.2-9.3-6.7-9.3c-2,0-3.7,0.8-4.9,2.5S1820.8,565,1820.8,567.9z"/>
	<path id="XMLID_268_" class="st1" d="M1857.1,549.1c-0.9-0.3-1.8-0.5-2.5-0.5c-1.4,0-2.5,0.5-3.4,1.5s-1.3,2.3-1.3,3.9
		c0,0.4,0,0.9,0.1,1.3h5.1v3.8h-5.1v21.4h-4.5v-21.4h-3.7v-3.8h3.7c0-3.2,0.8-5.7,2.4-7.5s3.7-2.7,6.3-2.7c1.3,0,2.7,0.2,4.2,0.7
		L1857.1,549.1z"/>
	<path id="XMLID_270_" class="st1" d="M1876.9,580.5v-34.3h4.7v34.3H1876.9z"/>
	<path id="XMLID_272_" class="st1" d="M1904.5,580.5v-14.6c0-2.7-0.4-4.5-1.2-5.6s-2.2-1.6-4-1.6c-1,0-2.1,0.3-3.2,0.9
		s-2,1.4-2.6,2.3v18.7h-4.5v-25.1h3l1.4,3.2c1.5-2.5,3.9-3.7,7.2-3.7c5.5,0,8.3,3.3,8.3,10v15.5H1904.5z"/>
	<path id="XMLID_274_" class="st1" d="M1931.2,580.5v-1.9c-1.5,1.5-3.8,2.3-6.8,2.3c-3.1,0-5.7-1.1-7.6-3.4s-2.9-5.3-2.9-9
		c0-3.8,1.1-7,3.4-9.6s4.9-4,8-4c2.6,0,4.6,0.6,5.9,1.8v-11.6h4.5v35.4H1931.2z M1931.2,561.2c-1.1-1.7-2.7-2.5-4.6-2.5
		c-2.4,0-4.3,0.9-5.8,2.7s-2.2,4-2.2,6.8c0,6,2.8,9.1,8.3,9.1c0.7,0,1.5-0.2,2.5-0.7s1.6-0.9,1.9-1.4V561.2z"/>
	<path id="XMLID_277_" class="st1" d="M1944.2,580.5v-21.4h-3.4v-3.8h7.9v25.1H1944.2z M1946.6,545.9c0.8,0,1.4,0.3,2,0.8
		s0.8,1.2,0.8,1.9c0,0.8-0.3,1.4-0.8,2s-1.2,0.8-2,0.8c-0.8,0-1.4-0.3-1.9-0.8s-0.8-1.2-0.8-2s0.3-1.4,0.8-1.9
		S1945.9,545.9,1946.6,545.9z"/>
	<path id="XMLID_280_" class="st1" d="M1969.9,577.6c-1.8,2.2-4.5,3.4-8.2,3.4c-2,0-3.7-0.7-5.1-2.1s-2.2-3.2-2.2-5.3
		c0-2.5,1.1-4.7,3.3-6.5s5.1-2.6,8.5-2.6c0.9,0,2,0.2,3.2,0.6c0-4.1-1.8-6.1-5.4-6.1c-2.8,0-4.9,0.8-6.4,2.3l-1.9-3.7
		c0.8-0.7,2-1.3,3.5-1.8s2.9-0.7,4.3-0.7c3.6,0,6.3,0.8,7.9,2.5s2.5,4.3,2.5,7.9v9c0,2.2,0.7,3.7,2,4.4v2.2c-1.8,0-3.2-0.3-4.1-0.8
		S1970.3,578.8,1969.9,577.6z M1969.5,568.2c-1.4-0.3-2.4-0.5-3-0.5c-2.3,0-4.1,0.6-5.5,1.7s-2.1,2.5-2.1,4.1c0,2.6,1.5,3.9,4.6,3.9
		c2.3,0,4.2-1.1,6-3.2V568.2z"/>
	<path id="XMLID_283_" class="st1" d="M823.4,638.1v-34.3h4.7v34.3H823.4z"/>
	<path id="XMLID_285_" class="st1" d="M834.4,636.5l1.7-4.3c0.9,0.6,2,1.2,3.3,1.6s2.5,0.6,3.5,0.6c1.8,0,3.3-0.5,4.4-1.5
		s1.7-2.3,1.7-3.8c0-1.2-0.3-2.2-0.9-3.2s-2.2-2.1-4.7-3.2l-2.8-1.3c-2.3-1.1-4-2.4-4.9-3.9s-1.4-3.3-1.4-5.4c0-2.6,0.9-4.7,2.7-6.4
		s4.1-2.5,7-2.5c3.8,0,6.4,0.6,7.9,1.9l-1.4,4.1c-0.6-0.5-1.6-0.9-2.9-1.3s-2.5-0.6-3.6-0.6c-1.6,0-2.8,0.5-3.8,1.4
		s-1.4,2.1-1.4,3.5c0,0.9,0.2,1.7,0.5,2.4s0.8,1.3,1.4,1.8s1.8,1.2,3.6,2l2.8,1.3c2.3,1.1,4,2.4,4.9,4s1.4,3.5,1.4,5.9
		c0,2.6-1,4.8-3.1,6.6s-4.8,2.7-8.3,2.7C839.2,638.7,836.6,638,834.4,636.5z"/>
	<path id="XMLID_287_" class="st1" d="M857.4,620.6c0-5,1.2-9.1,3.7-12.5s5.9-5,10.1-5c4.8,0,8.4,1.5,11,4.6s3.8,7.4,3.8,12.9
		c0,5.6-1.3,10.1-3.8,13.3s-6.2,4.8-10.9,4.8c-4.3,0-7.7-1.7-10.2-5.1S857.4,625.9,857.4,620.6z M862.3,620.6c0,3.9,0.8,7.2,2.3,9.9
		s3.7,4,6.6,4c3.2,0,5.6-1.2,7.3-3.6s2.5-5.8,2.5-10.2c0-8.8-3.3-13.3-9.8-13.3c-2.9,0-5.1,1.2-6.6,3.6S862.3,616.5,862.3,620.6z"/>
	<path id="XMLID_290_" class="st1" d="M911.5,638.7l-2.3-2.5c1.4-0.5,3.3-2.4,6-5.5s4.1-5.6,4.3-7.3c-1.3,1.2-3.1,1.9-5.4,1.9
		c-3,0-5.5-1-7.3-2.9s-2.7-4.6-2.7-8c0-3.4,0.9-6.1,2.8-8.1s4.2-3.1,7.1-3.1c7.5,0,11.3,5,11.3,15c0,4.2-1.5,8.4-4.4,12.8
		S914.8,637.8,911.5,638.7z M920.4,614.5c0-4.9-2-7.3-6-7.3c-1.7,0-3,0.6-4,1.9s-1.5,3-1.5,5.1c0,2.2,0.5,3.9,1.5,5.2s2.4,1.9,4,1.9
		C918.4,621.2,920.4,619,920.4,614.5z"/>
	<path id="XMLID_293_" class="st1" d="M929,619.9c0-4.9,1-9,3-12.1s4.8-4.7,8.4-4.7c3.6,0,6.3,1.3,8.1,3.9s2.7,7.1,2.7,13.6
		c0,5.6-0.9,9.9-2.8,13.1s-4.7,4.8-8.3,4.8s-6.4-1.3-8.3-3.9S929,627.2,929,619.9z M933.7,620.3c0,9.5,2,14.3,6.1,14.3
		c2.3,0,4-1.1,5.1-3.2s1.6-5.8,1.6-11.1c0-3.6-0.2-6.3-0.6-8s-1.1-3-2-3.9s-2.1-1.3-3.6-1.3C935.9,607.1,933.7,611.5,933.7,620.3z"
		/>
	<path id="XMLID_296_" class="st1" d="M954.2,619.9c0-4.9,1-9,3-12.1s4.8-4.7,8.4-4.7c3.6,0,6.3,1.3,8.1,3.9s2.7,7.1,2.7,13.6
		c0,5.6-0.9,9.9-2.8,13.1s-4.7,4.8-8.3,4.8s-6.4-1.3-8.3-3.9S954.2,627.2,954.2,619.9z M958.9,620.3c0,9.5,2,14.3,6.1,14.3
		c2.3,0,4-1.1,5.1-3.2s1.6-5.8,1.6-11.1c0-3.6-0.2-6.3-0.6-8s-1.1-3-2-3.9s-2.1-1.3-3.6-1.3C961.1,607.1,958.9,611.5,958.9,620.3z"
		/>
	<path id="XMLID_299_" class="st1" d="M989.5,638.1v-26.3l-7,4.4v-4.4c1.8-0.9,3.6-2.1,5.6-3.7s3.5-3,4.6-4.5h1.4v34.5H989.5z"/>
	<path id="XMLID_301_" class="st1" d="M1011.3,612.5c1,0,1.8,0.3,2.5,1s1,1.5,1,2.5s-0.3,1.8-1,2.5s-1.5,1-2.5,1s-1.8-0.3-2.5-1
		s-1-1.5-1-2.5s0.3-1.8,1-2.5S1010.4,612.5,1011.3,612.5z M1011.3,631.5c1,0,1.8,0.3,2.5,1s1,1.5,1,2.5s-0.3,1.8-1,2.5s-1.5,1-2.5,1
		s-1.8-0.3-2.5-1s-1-1.5-1-2.5s0.3-1.8,1-2.5S1010.4,631.5,1011.3,631.5z"/>
	<path id="XMLID_304_" class="st1" d="M1022.3,638.1v-0.9l10.8-16.5c2.3-3.5,3.4-6.4,3.4-8.8c0-3.2-1.8-4.8-5.4-4.8
		c-1.3,0-2.5,0.3-3.6,1s-1.9,1.5-2.4,2.5l-3-2.5c0.5-1.5,1.6-2.8,3.1-3.7c1.6-0.9,3.4-1.4,5.6-1.4c3.3,0,5.9,0.8,7.7,2.3
		s2.8,3.7,2.8,6.5c0,2.6-1.2,5.8-3.7,9.8l-7.7,12.2h13.5v4.2H1022.3z"/>
	<path id="XMLID_306_" class="st1" d="M1047.3,619.9c0-4.9,1-9,3-12.1s4.8-4.7,8.4-4.7c3.6,0,6.3,1.3,8.1,3.9s2.7,7.1,2.7,13.6
		c0,5.6-0.9,9.9-2.8,13.1s-4.7,4.8-8.3,4.8s-6.4-1.3-8.3-3.9S1047.3,627.2,1047.3,619.9z M1052,620.3c0,9.5,2,14.3,6.1,14.3
		c2.3,0,4-1.1,5.1-3.2s1.6-5.8,1.6-11.1c0-3.6-0.2-6.3-0.6-8s-1.1-3-2-3.9s-2.1-1.3-3.6-1.3C1054.2,607.1,1052,611.5,1052,620.3z"/>
	<path id="XMLID_309_" class="st1" d="M1082.7,638.1v-26.3l-7,4.4v-4.4c1.8-0.9,3.6-2.1,5.6-3.7s3.5-3,4.6-4.5h1.4v34.5H1082.7z"/>
	<path id="XMLID_311_" class="st1" d="M1101.6,621.3l-1.6-1.1v-16.6h17.1v4h-12.6v8.3c1.2-0.9,2.6-1.3,4.4-1.3c3.2,0,5.6,1,7.3,2.9
		s2.5,4.6,2.5,8.1c0,8.6-3.8,12.9-11.5,12.9c-3.2,0-5.9-0.9-8-2.7l1.8-3.9c2.1,1.7,4.2,2.6,6.1,2.6c4.4,0,6.6-2.8,6.6-8.3
		c0-5.1-2.2-7.7-6.5-7.7C1105.2,618.6,1103.3,619.5,1101.6,621.3z"/>
	<path id="XMLID_313_" class="st1" d="M1161.2,605l-1.6,4c-1.5-1.1-3.9-1.6-7.1-1.6c-3,0-5.4,1.3-7.3,3.9s-2.7,5.9-2.7,10
		c0,3.9,0.9,7.1,2.8,9.5s4.3,3.6,7.2,3.6c3.2,0,5.7-1.1,7.4-3.4l2.6,3.6c-2.7,2.7-6.2,4.1-10.5,4.1c-4.5,0-8-1.6-10.6-4.9
		s-3.9-7.5-3.9-12.8c0-5.1,1.4-9.4,4.1-12.8s6.3-5.1,10.7-5.1C1156.2,603.2,1159.1,603.8,1161.2,605z"/>
	<path id="XMLID_315_" class="st1" d="M1188.8,626h-18.1c0,2.9,0.8,5.2,2.4,6.8c1.4,1.4,3.3,2.1,5.5,2.1c2.5,0,4.7-0.7,6.4-2.2
		l1.9,3.2c-0.7,0.7-1.7,1.3-3.2,1.8c-1.8,0.7-3.8,1-6,1c-3.2,0-5.8-1.1-8-3.2c-2.5-2.4-3.7-5.5-3.7-9.5c0-4.1,1.3-7.5,3.8-10
		c2.3-2.2,4.9-3.4,8-3.4c3.6,0,6.4,1,8.4,3c2,1.9,3,4.5,3,7.7C1189.2,624.2,1189.1,625.1,1188.8,626z M1178,616.3
		c-2,0-3.6,0.6-5,1.9c-1.3,1.2-2,2.7-2.2,4.5h13.9c0-1.8-0.6-3.3-1.7-4.5C1181.8,616.9,1180.1,616.3,1178,616.3z"/>
	<path id="XMLID_318_" class="st1" d="M1207.5,617.3c-1-0.7-1.9-1-2.9-1c-1.6,0-3,0.7-4.1,2.2s-1.8,3.2-1.8,5.3v14.4h-4.5V613h4.5v4
		c1.6-3,4-4.5,7.2-4.5c0.8,0,1.9,0.1,3.4,0.4L1207.5,617.3z"/>
	<path id="XMLID_320_" class="st1" d="M1214.1,616.5h-2.9V613h2.9v-5.3l4.5-1.7v7h6.9v3.5h-6.9V629c0,2.1,0.4,3.6,1.1,4.5
		s1.9,1.3,3.4,1.3c1.1,0,2.3-0.3,3.5-0.9l0.7,3.9c-1.8,0.5-3.9,0.7-6.1,0.7c-2,0-3.7-0.7-5-2.2s-2.1-3.3-2.1-5.6V616.5z"/>
	<path id="XMLID_322_" class="st1" d="M1233.7,638.1v-21.4h-3.4V613h7.9v25.1H1233.7z M1236.1,603.5c0.8,0,1.4,0.3,2,0.8
		s0.8,1.2,0.8,1.9c0,0.8-0.3,1.4-0.8,2s-1.2,0.8-2,0.8c-0.8,0-1.4-0.3-1.9-0.8s-0.8-1.2-0.8-2s0.3-1.4,0.8-1.9
		S1235.4,603.5,1236.1,603.5z"/>
	<path id="XMLID_325_" class="st1" d="M1258.8,606.7c-0.9-0.3-1.8-0.5-2.5-0.5c-1.4,0-2.5,0.5-3.4,1.5s-1.3,2.3-1.3,3.9
		c0,0.4,0,0.9,0.1,1.3h5.1v3.8h-5.1v21.4h-4.5v-21.4h-3.7V613h3.7c0-3.2,0.8-5.7,2.4-7.5s3.7-2.7,6.3-2.7c1.3,0,2.7,0.2,4.2,0.7
		L1258.8,606.7z"/>
	<path id="XMLID_327_" class="st1" d="M1265.1,638.1v-21.4h-3.4V613h7.9v25.1H1265.1z M1267.6,603.5c0.8,0,1.4,0.3,2,0.8
		s0.8,1.2,0.8,1.9c0,0.8-0.3,1.4-0.8,2s-1.2,0.8-2,0.8c-0.8,0-1.4-0.3-1.9-0.8s-0.8-1.2-0.8-2s0.3-1.4,0.8-1.9
		S1266.8,603.5,1267.6,603.5z"/>
	<path id="XMLID_330_" class="st1" d="M1297.8,626h-18.1c0,2.9,0.8,5.2,2.4,6.8c1.4,1.4,3.3,2.1,5.5,2.1c2.5,0,4.7-0.7,6.4-2.2
		l1.9,3.2c-0.7,0.7-1.7,1.3-3.2,1.8c-1.8,0.7-3.8,1-6,1c-3.2,0-5.8-1.1-8-3.2c-2.5-2.4-3.7-5.5-3.7-9.5c0-4.1,1.3-7.5,3.8-10
		c2.3-2.2,4.9-3.4,8-3.4c3.6,0,6.4,1,8.4,3c2,1.9,3,4.5,3,7.7C1298.2,624.2,1298,625.1,1297.8,626z M1287,616.3c-2,0-3.6,0.6-5,1.9
		c-1.3,1.2-2,2.7-2.2,4.5h13.9c0-1.8-0.6-3.3-1.7-4.5C1290.8,616.9,1289.1,616.3,1287,616.3z"/>
	<path id="XMLID_333_" class="st1" d="M1318.8,638.1v-1.9c-1.5,1.5-3.8,2.3-6.8,2.3c-3.1,0-5.7-1.1-7.6-3.4s-2.9-5.3-2.9-9
		c0-3.8,1.1-7,3.4-9.6s4.9-4,8-4c2.6,0,4.6,0.6,5.9,1.8v-11.6h4.5v35.4H1318.8z M1318.8,618.8c-1.1-1.7-2.7-2.5-4.6-2.5
		c-2.4,0-4.3,0.9-5.8,2.7s-2.2,4-2.2,6.8c0,6,2.8,9.1,8.3,9.1c0.7,0,1.5-0.2,2.5-0.7s1.6-0.9,1.9-1.4V618.8z"/>
</g>
<g id="XMLID_4_">
	<path id="XMLID_16_" class="st2" d="M831.6,332.7v17.8h26.7v11.4h-26.7v34.7h-13.5v-75.8H868v12H831.6z"/>
	<path id="XMLID_29_" class="st2" d="M893.4,332.7v17.8h25.1v11.4h-25.1v22.7h34.4v12h-47.8v-75.8h48.4v12H893.4z"/>
	<path id="XMLID_31_" class="st2" d="M957.1,396.6h-16.8v-75.8c10.7-0.4,17.5-0.6,20.2-0.6c11,0,19.8,3.2,26.3,9.7
		s9.7,15.1,9.7,25.7C996.5,383,983.3,396.6,957.1,396.6z M953.7,332.6v51.8c2.2,0.2,4.5,0.3,7,0.3c6.8,0,12.1-2.5,16-7.4
		c3.8-4.9,5.8-11.8,5.8-20.7c0-16.2-7.5-24.3-22.6-24.3C958.4,332.2,956.4,332.4,953.7,332.6z"/>
	<path id="XMLID_73_" class="st2" d="M1021.8,332.7v17.8h25.1v11.4h-25.1v22.7h34.4v12h-47.8v-75.8h48.4v12H1021.8z"/>
	<path id="XMLID_76_" class="st2" d="M1111.4,396.6l-20.2-31.3c-2,0-4.9-0.2-8.5-0.4v31.7h-14v-75.8c0.8,0,3.7-0.1,8.7-0.4
		s9.2-0.4,12.3-0.4c19.3,0,28.9,7.5,28.9,22.4c0,4.5-1.3,8.6-4,12.3c-2.7,3.7-6,6.3-10,7.8l22.4,34.2H1111.4z M1082.6,332.5v21.1
		c2.5,0.2,4.4,0.3,5.7,0.3c5.6,0,9.7-0.8,12.3-2.4c2.6-1.6,3.9-4.7,3.9-9.3c0-3.7-1.4-6.3-4.2-7.8c-2.8-1.5-7.2-2.2-13.2-2.2
		C1085.7,332.2,1084.2,332.3,1082.6,332.5z"/>
	<path id="XMLID_83_" class="st2" d="M1177.7,396.6l-5.5-15.4h-26l-5.3,15.4h-15l30.2-76.9h5.9l30.5,76.9H1177.7z M1159.1,342.9
		l-9.1,28h18.2L1159.1,342.9z"/>
	<path id="XMLID_88_" class="st2" d="M1221.3,332.7v63.9h-13.5v-63.9h-24.1v-12h62.8v12H1221.3z"/>
	<path id="XMLID_90_" class="st2" d="M1255.6,396.6v-75.8h13.5v75.8H1255.6z"/>
	<path id="XMLID_92_" class="st2" d="M1281.2,358.1c0-10.8,3-19.9,8.9-27.4c5.9-7.5,13.8-11.2,23.7-11.2c10.9,0,19.2,3.4,25,10.1
		c5.8,6.8,8.6,16.3,8.6,28.5s-3,21.9-9,29.1c-6,7.2-14.6,10.8-25.6,10.8c-10.2,0-18-3.6-23.4-10.7
		C1283.9,380.1,1281.2,370.4,1281.2,358.1z M1295.2,358.1c0,8.9,1.5,15.7,4.5,20.6s7.4,7.3,13.1,7.3c6.7,0,11.9-2.4,15.4-7.1
		c3.5-4.8,5.3-11.7,5.3-20.8c0-17.8-6.6-26.7-19.7-26.7c-6,0-10.6,2.4-13.8,7.2S1295.2,349.9,1295.2,358.1z"/>
	<path id="XMLID_95_" class="st2" d="M1409.1,397.7l-36.8-48v47h-12.9v-75.9h6.5l35.8,45.8v-45.8h12.9v76.9H1409.1z"/>
	<path id="XMLID_97_" class="st2" d="M1458.4,358.1c0-10.8,3-19.9,8.9-27.4c5.9-7.5,13.8-11.2,23.7-11.2c10.9,0,19.2,3.4,25,10.1
		c5.8,6.8,8.6,16.3,8.6,28.5s-3,21.9-9,29.1c-6,7.2-14.6,10.8-25.6,10.8c-10.2,0-18-3.6-23.4-10.7
		C1461.2,380.1,1458.4,370.4,1458.4,358.1z M1472.4,358.1c0,8.9,1.5,15.7,4.5,20.6s7.4,7.3,13.1,7.3c6.7,0,11.9-2.4,15.4-7.1
		c3.5-4.8,5.3-11.7,5.3-20.8c0-17.8-6.6-26.7-19.7-26.7c-6,0-10.6,2.4-13.8,7.2S1472.4,349.9,1472.4,358.1z"/>
	<path id="XMLID_100_" class="st2" d="M1550.1,332.7v17.8h26.7v11.4h-26.7v34.7h-13.5v-75.8h49.9v12H1550.1z"/>
	<path id="XMLID_102_" class="st2" d="M1630.6,396.6v-75.8h13.5v75.8H1630.6z"/>
	<path id="XMLID_104_" class="st2" d="M1709.6,397.7l-36.8-48v47h-12.9v-75.9h6.5l35.8,45.8v-45.8h12.9v76.9H1709.6z"/>
	<path id="XMLID_106_" class="st2" d="M1747.5,396.6h-16.8v-75.8c10.7-0.4,17.5-0.6,20.2-0.6c11,0,19.8,3.2,26.3,9.7
		c6.5,6.5,9.7,15.1,9.7,25.7C1786.8,383,1773.7,396.6,1747.5,396.6z M1744.1,332.6v51.8c2.2,0.2,4.5,0.3,7,0.3
		c6.8,0,12.1-2.5,16-7.4c3.8-4.9,5.8-11.8,5.8-20.7c0-16.2-7.5-24.3-22.6-24.3C1748.8,332.2,1746.7,332.4,1744.1,332.6z"/>
	<path id="XMLID_109_" class="st2" d="M1799,396.6v-75.8h13.5v75.8H1799z"/>
	<path id="XMLID_111_" class="st2" d="M1872.5,396.6l-5.5-15.4h-26l-5.3,15.4h-15l30.2-76.9h5.9l30.5,76.9H1872.5z M1853.9,342.9
		l-9.1,28h18.2L1853.9,342.9z"/>
	<path id="XMLID_114_" class="st2" d="M1945.1,397.7l-36.8-48v47h-12.9v-75.9h6.5l35.8,45.8v-45.8h12.9v76.9H1945.1z"/>
	<path id="XMLID_116_" class="st2" d="M831.6,443.7v17.8h25.1v11.4h-25.1v22.7h34.4v12h-47.8v-75.8h48.4v12H831.6z"/>
	<path id="XMLID_118_" class="st2" d="M919.4,507.6l-17.9-27.3l-16.6,27.3h-14l22.7-39.3l-20.9-36.6l13.8,0.1l15.4,25.6l16.9-25.6
		h14.1l-24,36.7l25.2,39.1H919.4z"/>
	<path id="XMLID_120_" class="st2" d="M955.5,479.7v27.9h-13.5v-75.8c9-0.4,14.2-0.6,15.7-0.6c12,0,20.7,1.8,26.3,5.5
		s8.3,9.4,8.3,17.2c0,17.4-10.2,26.1-30.7,26.1C960.1,480.1,958.1,480,955.5,479.7z M955.5,443.5v24.3c2.3,0.2,4.1,0.4,5.4,0.4
		c6.1,0,10.6-1,13.5-3.1c2.8-2.1,4.2-5.4,4.2-10c0-7.9-6.3-11.8-19-11.8C958.2,443.2,956.8,443.3,955.5,443.5z"/>
	<path id="XMLID_123_" class="st2" d="M1000.6,469.1c0-10.8,3-19.9,8.9-27.4c5.9-7.5,13.8-11.2,23.7-11.2c10.9,0,19.2,3.4,25,10.1
		c5.8,6.8,8.6,16.3,8.6,28.5s-3,21.9-9,29.1c-6,7.2-14.6,10.8-25.6,10.8c-10.2,0-18-3.6-23.4-10.7
		C1003.4,491.1,1000.6,481.4,1000.6,469.1z M1014.6,469.1c0,8.9,1.5,15.7,4.5,20.6s7.4,7.3,13.1,7.3c6.7,0,11.9-2.4,15.4-7.1
		c3.5-4.8,5.3-11.7,5.3-20.8c0-17.8-6.6-26.7-19.7-26.7c-6,0-10.6,2.4-13.8,7.2S1014.6,460.9,1014.6,469.1z"/>
	<path id="XMLID_126_" class="st2" d="M1121.5,507.6l-20.2-31.3c-2,0-4.9-0.2-8.5-0.4v31.7h-14v-75.8c0.8,0,3.7-0.1,8.7-0.4
		s9.2-0.4,12.3-0.4c19.3,0,28.9,7.5,28.9,22.4c0,4.5-1.3,8.6-4,12.3c-2.7,3.7-6,6.3-10,7.8l22.4,34.2H1121.5z M1092.8,443.5v21.1
		c2.5,0.2,4.4,0.3,5.7,0.3c5.6,0,9.7-0.8,12.3-2.4c2.6-1.6,3.9-4.7,3.9-9.3c0-3.7-1.4-6.3-4.2-7.8c-2.8-1.5-7.2-2.2-13.2-2.2
		C1095.9,443.2,1094.4,443.3,1092.8,443.5z"/>
	<path id="XMLID_129_" class="st2" d="M1170.1,443.7v63.9h-13.5v-63.9h-24.1v-12h62.8v12H1170.1z"/>
	<path id="XMLID_131_" class="st2" d="M1230.5,469.1c0-10.8,3-19.9,8.9-27.4c5.9-7.5,13.8-11.2,23.7-11.2c10.9,0,19.2,3.4,25,10.1
		c5.8,6.8,8.6,16.3,8.6,28.5s-3,21.9-9,29.1c-6,7.2-14.6,10.8-25.6,10.8c-10.2,0-18-3.6-23.4-10.7
		C1233.2,491.1,1230.5,481.4,1230.5,469.1z M1244.5,469.1c0,8.9,1.5,15.7,4.5,20.6s7.4,7.3,13.1,7.3c6.7,0,11.9-2.4,15.4-7.1
		c3.5-4.8,5.3-11.7,5.3-20.8c0-17.8-6.6-26.7-19.7-26.7c-6,0-10.6,2.4-13.8,7.2S1244.5,460.9,1244.5,469.1z"/>
	<path id="XMLID_134_" class="st2" d="M1351.4,507.6l-20.2-31.3c-2,0-4.9-0.2-8.5-0.4v31.7h-14v-75.8c0.8,0,3.7-0.1,8.7-0.4
		s9.2-0.4,12.3-0.4c19.3,0,28.9,7.5,28.9,22.4c0,4.5-1.3,8.6-4,12.3c-2.7,3.7-6,6.3-10,7.8l22.4,34.2H1351.4z M1322.6,443.5v21.1
		c2.5,0.2,4.4,0.3,5.7,0.3c5.6,0,9.7-0.8,12.3-2.4c2.6-1.6,3.9-4.7,3.9-9.3c0-3.7-1.4-6.3-4.2-7.8c-2.8-1.5-7.2-2.2-13.2-2.2
		C1325.7,443.2,1324.2,443.3,1322.6,443.5z"/>
	<path id="XMLID_137_" class="st2" d="M1429.4,438l-5.6,10.8c-1.6-1.4-4-2.8-7.3-4.2s-6.2-2.1-8.5-2.1c-7.5,0-13.3,2.5-17.6,7.6
		c-4.3,5.1-6.5,11.8-6.5,20.3c0,8.1,2.1,14.5,6.3,19.4c4.2,4.8,10,7.2,17.3,7.2c4.8,0,8.7-1.3,11.9-3.9v-14.9h-10.5v-11.5h24v34
		c-3.2,2.6-7.3,4.7-12.4,6.1c-5.1,1.5-10.1,2.2-15.1,2.2c-10.9,0-19.5-3.6-25.9-10.7c-6.4-7.1-9.5-16.5-9.5-28.2s3.5-21.2,10.4-28.5
		c6.9-7.3,16.3-11,28-11C1416.5,430.5,1423.6,433,1429.4,438z"/>
	<path id="XMLID_139_" class="st2" d="M1488.8,507.6l-5.5-15.4h-26l-5.3,15.4h-15l30.2-76.9h5.9l30.5,76.9H1488.8z M1470.2,453.9
		l-9.1,28h18.2L1470.2,453.9z"/>
	<path id="XMLID_142_" class="st2" d="M1561.4,508.7l-36.8-48v47h-12.9v-75.9h6.5l35.8,45.8v-45.8h12.9v76.9H1561.4z"/>
	<path id="XMLID_144_" class="st2" d="M1582.7,507.6v-75.8h13.5v75.8H1582.7z"/>
	<path id="XMLID_146_" class="st2" d="M1608.3,503.4l5-12.1c5.3,3.7,10.5,5.6,15.7,5.6c7.9,0,11.9-2.8,11.9-8.3
		c0-2.6-0.9-5.1-2.8-7.4c-1.9-2.3-5.7-5-11.5-7.9c-5.8-2.9-9.7-5.3-11.8-7.2c-2-1.9-3.6-4.1-4.7-6.7c-1.1-2.6-1.6-5.5-1.6-8.6
		c0-5.9,2.1-10.7,6.4-14.6c4.3-3.9,9.8-5.8,16.5-5.8c8.8,0,15.2,1.6,19.3,4.9l-4.1,11.6c-4.7-3.4-9.7-5.1-15-5.1
		c-3.1,0-5.5,0.8-7.2,2.5c-1.7,1.6-2.6,3.8-2.6,6.4c0,4.3,4.8,8.9,14.4,13.6c5.1,2.5,8.7,4.8,11,6.9c2.2,2.1,4,4.5,5.1,7.3
		c1.2,2.8,1.8,5.9,1.8,9.3c0,6.1-2.4,11.2-7.3,15.2c-4.8,4-11.3,6-19.5,6C1620.4,508.9,1614,507.1,1608.3,503.4z"/>
	<path id="XMLID_148_" class="st2" d="M1710.4,507.6l-5.5-15.4h-26l-5.3,15.4h-15l30.2-76.9h5.9l30.5,76.9H1710.4z M1691.8,453.9
		l-9.1,28h18.2L1691.8,453.9z"/>
	<path id="XMLID_151_" class="st2" d="M1754.1,443.7v63.9h-13.5v-63.9h-24.1v-12h62.8v12H1754.1z"/>
	<path id="XMLID_153_" class="st2" d="M1788.3,507.6v-75.8h13.5v75.8H1788.3z"/>
	<path id="XMLID_155_" class="st2" d="M1814,469.1c0-10.8,3-19.9,8.9-27.4c5.9-7.5,13.8-11.2,23.7-11.2c10.9,0,19.2,3.4,25,10.1
		c5.8,6.8,8.6,16.3,8.6,28.5s-3,21.9-9,29.1c-6,7.2-14.6,10.8-25.6,10.8c-10.2,0-18-3.6-23.4-10.7
		C1816.7,491.1,1814,481.4,1814,469.1z M1827.9,469.1c0,8.9,1.5,15.7,4.5,20.6s7.4,7.3,13.1,7.3c6.7,0,11.9-2.4,15.4-7.1
		c3.5-4.8,5.3-11.7,5.3-20.8c0-17.8-6.6-26.7-19.7-26.7c-6,0-10.6,2.4-13.8,7.2S1827.9,460.9,1827.9,469.1z"/>
	<path id="XMLID_158_" class="st2" d="M1941.9,508.7l-36.8-48v47h-12.9v-75.9h6.5l35.8,45.8v-45.8h12.9v76.9H1941.9z"/>
	<path id="XMLID_160_" class="st2" d="M1959.3,503.4l5-12.1c5.3,3.7,10.5,5.6,15.7,5.6c7.9,0,11.9-2.8,11.9-8.3
		c0-2.6-0.9-5.1-2.8-7.4c-1.9-2.3-5.7-5-11.5-7.9c-5.8-2.9-9.7-5.3-11.8-7.2c-2-1.9-3.6-4.1-4.7-6.7c-1.1-2.6-1.6-5.5-1.6-8.6
		c0-5.9,2.1-10.7,6.4-14.6c4.3-3.9,9.8-5.8,16.5-5.8c8.8,0,15.2,1.6,19.3,4.9l-4.1,11.6c-4.7-3.4-9.7-5.1-15-5.1
		c-3.1,0-5.5,0.8-7.2,2.5c-1.7,1.6-2.6,3.8-2.6,6.4c0,4.3,4.8,8.9,14.4,13.6c5.1,2.5,8.7,4.8,11,6.9c2.2,2.1,4,4.5,5.1,7.3
		c1.2,2.8,1.8,5.9,1.8,9.3c0,6.1-2.4,11.2-7.3,15.2c-4.8,4-11.3,6-19.5,6C1971.3,508.9,1964.9,507.1,1959.3,503.4z"/>
</g>
<g id="XMLID_13_">
	
		<rect id="XMLID_2_" x="158" y="256.7" transform="matrix(0.7071 -0.7071 0.7071 0.7071 -239.2538 438.0695)" class="st3" width="502.3" height="502.3"/>
	<polygon id="XMLID_6_" class="st4" points="409.2,863 316.2,770 409.2,677 	"/>
	<polygon id="XMLID_24_" class="st5" points="502.2,770 409.2,863 409.2,677 	"/>
	
		<rect id="XMLID_7_" x="343.4" y="518.2" transform="matrix(0.7071 -0.7071 0.7071 0.7071 -293.1039 460.375)" class="st6" width="131.5" height="131.5"/>
	<polygon id="XMLID_17_" class="st7" points="502.2,584 502.2,770 409.2,677 	"/>
	<polygon id="XMLID_25_" class="st8" points="502.2,584 595.2,677 502.2,770 	"/>
	<polygon id="XMLID_15_" class="st9" points="316.2,584 409.2,677 316.2,770 	"/>
	<polygon id="XMLID_26_" class="st10" points="316.2,584 316.2,770 223.2,677 	"/>
	<polygon id="XMLID_8_" class="st11" points="502.2,245.7 409.2,338.7 409.2,152.7 	"/>
	<polygon id="XMLID_21_" class="st12" points="409.2,338.7 316.2,245.7 409.2,152.7 	"/>
	
		<rect id="XMLID_9_" x="343.4" y="365.9" transform="matrix(0.7071 -0.7071 0.7071 0.7071 -185.4037 415.7641)" class="st13" width="131.5" height="131.5"/>
	<polygon id="XMLID_20_" class="st14" points="502.2,431.7 502.2,245.7 595.2,338.7 	"/>
	<polygon id="XMLID_22_" class="st15" points="502.2,431.7 409.2,338.7 502.2,245.7 	"/>
	<polygon id="XMLID_18_" class="st16" points="316.2,431.7 223.2,338.7 316.2,245.7 	"/>
	<polygon id="XMLID_23_" class="st17" points="316.2,431.7 316.2,245.7 409.2,338.7 	"/>
	
		<rect id="XMLID_14_" x="529.4" y="518.2" transform="matrix(0.7071 -0.7071 0.7071 0.7071 -238.623 591.9036)" class="st18" width="131.5" height="131.5"/>
	
		<rect id="XMLID_11_" x="529.4" y="365.9" transform="matrix(0.7071 -0.7071 0.7071 0.7071 -130.9227 547.2927)" class="st19" width="131.5" height="131.5"/>
	
		<rect id="XMLID_12_" x="157.4" y="518.2" transform="matrix(0.7071 -0.7071 0.7071 0.7071 -347.5848 328.8464)" class="st20" width="131.5" height="131.5"/>
	
		<rect id="XMLID_10_" x="157.4" y="365.9" transform="matrix(0.7071 -0.7071 0.7071 0.7071 -239.8846 284.2355)" class="st21" width="131.5" height="131.5"/>
	<rect id="XMLID_5_" x="130.2" y="431.7" class="st22" width="558" height="152.3"/>
	<g id="XMLID_3_">
		<path id="XMLID_80_" class="st23" d="M174,570.2V446.8h103.4v20.9h-73v29.2h63v20.9h-63v52.5H174z"/>
		<path id="XMLID_336_" class="st23" d="M301.7,570.2V446.8h30.5v123.4H301.7z"/>
		<path id="XMLID_338_" class="st23" d="M361.2,570.2V446.8h111.9v20.9h-81.4V495h75.8v20.8h-75.8v33.6h84.3v20.8H361.2z"/>
		<path id="XMLID_340_" class="st23" d="M495.6,509.2c0-12.6,2.3-23.1,6.9-31.7c3.4-6.3,8.1-11.9,14.1-16.9
			c5.9-5,12.4-8.7,19.5-11.1c9.4-3.3,20.2-4.9,32.5-4.9c22.2,0,40,5.6,53.4,16.9c13.3,11.3,20,27,20,47.1c0,19.9-6.6,35.5-19.9,46.8
			c-13.2,11.3-30.9,16.9-53.1,16.9c-22.4,0-40.3-5.6-53.5-16.8C502.2,544.3,495.6,528.9,495.6,509.2z M527,508.4
			c0,14,3.9,24.6,11.8,31.8c7.9,7.2,17.9,10.8,30.1,10.8c12.1,0,22.1-3.6,29.9-10.7c7.8-7.2,11.7-17.9,11.7-32.2
			c0-14.1-3.8-24.7-11.4-31.7c-7.6-7-17.7-10.4-30.2-10.4c-12.6,0-22.7,3.5-30.4,10.6C530.8,483.6,527,494.2,527,508.4z"/>
	</g>
</g>
</svg>
