<svg xmlns="http://www.w3.org/2000/svg" width="23.611" height="31.481" viewBox="0 0 23.611 31.481">
  <path id="Icon_awesome-file-pdf" data-name="Icon awesome-file-pdf" d="M11.184,15.747a5.932,5.932,0,0,1-.123-2.884C11.578,12.863,11.529,15.132,11.184,15.747Zm-.1,2.9A28.371,28.371,0,0,1,9.334,22.5,22.64,22.64,0,0,1,13.2,21.157,7.965,7.965,0,0,1,11.08,18.649ZM5.294,26.322c0,.049.812-.332,2.146-2.472A8.5,8.5,0,0,0,5.294,26.322ZM15.249,9.838h8.362V30.005a1.472,1.472,0,0,1-1.476,1.476H1.476A1.472,1.472,0,0,1,0,30.005V1.476A1.472,1.472,0,0,1,1.476,0h12.3V8.362A1.48,1.48,0,0,0,15.249,9.838ZM14.757,20.4a6.171,6.171,0,0,1-2.625-3.308c.277-1.137.713-2.865.381-3.947a1.54,1.54,0,0,0-2.939-.418c-.307,1.125-.025,2.712.5,4.734a57.737,57.737,0,0,1-2.509,5.276c-.006,0-.006.006-.012.006C5.884,23.6,3.025,25.48,4.2,26.925a1.911,1.911,0,0,0,1.322.615c1.1,0,2.2-1.107,3.757-3.8a35.048,35.048,0,0,1,4.857-1.426,9.318,9.318,0,0,0,3.935,1.2,1.592,1.592,0,0,0,1.211-2.669C18.427,20.008,15.943,20.247,14.757,20.4ZM23.18,6.456,17.155.43A1.475,1.475,0,0,0,16.109,0H15.74V7.87h7.87V7.5A1.471,1.471,0,0,0,23.18,6.456Zm-4.556,15.7c.252-.166-.154-.732-2.632-.553C18.274,22.572,18.624,22.153,18.624,22.153Z" fill="#fff"/>
</svg>
