<svg xmlns="http://www.w3.org/2000/svg" width="52.504" height="66.611" viewBox="0 0 52.504 66.611">
  <g id="Group_506" data-name="Group 506" transform="translate(-548.13 -670.309)">
    <path id="Path_2349" data-name="Path 2349" d="M597.829,694.5a23.164,23.164,0,1,0-23.165,23.163A23.206,23.206,0,0,0,597.829,694.5Zm-2.391,0a20.9,20.9,0,0,1-.234,3.122,36.027,36.027,0,0,1-10.411,5.05,23.138,23.138,0,0,0,.517-3.064,30.406,30.406,0,0,0-1.977-13.363,30.34,30.34,0,0,0,8.375-3.619A20.81,20.81,0,0,1,595.438,694.5ZM584.12,699.49a21.45,21.45,0,0,1-.641,3.531,30.054,30.054,0,0,1-17.491-1.116c-.15-.055-.291-.114-.438-.171a21.969,21.969,0,0,1-.341-2.239,29.669,29.669,0,0,1,2.254-13.632,31.4,31.4,0,0,0,8.753,1.284,28.333,28.333,0,0,0,5.911-.619A29.22,29.22,0,0,1,584.12,699.49Zm6.6-18.172c.092.112.18.227.269.343a29.028,29.028,0,0,1-8.093,3.454,50.652,50.652,0,0,0-6.444-11.307A20.713,20.713,0,0,1,590.721,681.317Zm-16.058-7.595c.069,0,.139.006.209.006a50.857,50.857,0,0,1,6.811,11.668,28.824,28.824,0,0,1-13.766-.641,51.261,51.261,0,0,1,6.541-11.026C574.526,673.728,574.594,673.722,574.664,673.722Zm-1.787.084a50.964,50.964,0,0,0-6.145,10.583,34.057,34.057,0,0,1-7.662-3.606A20.694,20.694,0,0,1,572.877,673.807ZM553.891,694.5a20.813,20.813,0,0,1,4.408-12.789,35.325,35.325,0,0,0,7.981,3.791A30.847,30.847,0,0,0,564.02,699.6c.053.544.132,1.081.222,1.612a39.383,39.383,0,0,1-10.343-6.43C553.9,694.691,553.891,694.594,553.891,694.5Zm.093,1.939a40.192,40.192,0,0,0,10.541,6.186,24.37,24.37,0,0,0,7.6,12.489A20.806,20.806,0,0,1,553.985,696.435Zm20.679,18.836c-.183,0-.365-.009-.546-.015a24.057,24.057,0,0,1-8.234-12.128,32.449,32.449,0,0,0,10.7,1.858,30.9,30.9,0,0,0,6.506-.7,24.5,24.5,0,0,1-7.879,10.971C575.03,715.262,574.849,715.271,574.664,715.271Zm2.539-.161a24.739,24.739,0,0,0,7.243-11.148,35.946,35.946,0,0,0,10.431-4.683A20.82,20.82,0,0,1,577.2,715.109Z" transform="translate(2.805 0.852)" fill="#9a9a9a"/>
    <path id="Path_2350" data-name="Path 2350" d="M572.992,726.955h-6.886a4.983,4.983,0,0,0,0,9.966h22.727a4.983,4.983,0,0,0,0-9.966h-6.887v-1.149a4.448,4.448,0,0,0-.394-1.829,43.112,43.112,0,0,0,8.157-2.014,1.494,1.494,0,0,0-.98-2.823,34.146,34.146,0,0,1-13.907,2.092c-12.811-1.044-23.667-13.277-23.706-26.711a26.435,26.435,0,0,1,.705-6.268,22.588,22.588,0,0,1,4.383-8.883,21.841,21.841,0,0,1,7.86-6.2,1.494,1.494,0,1,0-1.206-2.734,24.537,24.537,0,0,0-8.974,7.051,25.58,25.58,0,0,0-4.965,10.065,29.315,29.315,0,0,0-.79,6.979c.042,14.488,11.461,27.72,25.21,29.543a4.468,4.468,0,0,0-.348,1.732Zm1.2,2.389a1.194,1.194,0,0,0,1.193-1.195v-2.344a2.079,2.079,0,0,1,.663-1.517c.3.007.6.016.911.016.621,0,1.25-.024,1.885-.062a2.071,2.071,0,0,1,.716,1.563v2.344a1.2,1.2,0,0,0,1.2,1.195h8.08a2.593,2.593,0,0,1,0,5.185H566.106a2.593,2.593,0,0,1,0-5.185Z" transform="translate(0)" fill="#9a9a9a"/>
  </g>
</svg>
