<svg id="Group_1227" data-name="Group 1227" xmlns="http://www.w3.org/2000/svg" xmlns:xlink="http://www.w3.org/1999/xlink" width="34.621" height="43.871" viewBox="0 0 34.621 43.871">
  <defs>
    <clipPath id="clip-path">
      <rect id="Rectangle_520" data-name="Rectangle 520" width="34.621" height="43.871" fill="#525252"/>
    </clipPath>
  </defs>
  <g id="Group_1226" data-name="Group 1226">
    <g id="Group_1225" data-name="Group 1225" clip-path="url(#clip-path)">
      <path id="Path_4759" data-name="Path 4759" d="M278.689,425.658a17.293,17.293,0,1,0-34.273,3.279s.027.187.116.535A16.816,16.816,0,0,0,245.7,432.9c1.791,4.232,5.978,11.378,15.515,19.1a.29.29,0,0,0,.373,0c9.544-7.717,13.724-14.864,15.515-19.1a17.309,17.309,0,0,0,1.169-3.431c.079-.348.114-.535.114-.535a17.872,17.872,0,0,0,.3-3.279Zm-9.375,7.093a1.872,1.872,0,0,0-1.211-.954,12.834,12.834,0,0,1-3.77-1.72l-1.32,4.171-.249.784v-.01l-.214.668-.694-1.969c1.71-2.388-.348-2.361-.464-2.361s-2.175-.027-.464,2.361l-.7,1.969-.213-.668v.01l-.251-.784-1.318-4.171a12.858,12.858,0,0,1-3.77,1.72,1.841,1.841,0,0,0-1.212.954,10.5,10.5,0,1,1,15.843,0Zm0,0" transform="translate(-244.102 -408.303)" fill="#525252"/>
    </g>
  </g>
  <path id="Path_4760" data-name="Path 4760" d="M260.467,420.565a4.476,4.476,0,0,0,.152-.553c.578-3.466-1.132-3.592-1.132-3.592a2.646,2.646,0,0,0-1.026-.953,3.479,3.479,0,0,0-2.112-.446,3.245,3.245,0,0,0-.838.16,3.659,3.659,0,0,0-.926.473,4.726,4.726,0,0,0-.954.784,3.868,3.868,0,0,0-1.034,1.809,3.941,3.941,0,0,0,.01,1.764,3.346,3.346,0,0,0,.151.553c-.338-.035-.74.17-.365,1.507.276.98.535,1.256.73,1.266a4.144,4.144,0,0,0,2.558,3.163,2.805,2.805,0,0,0,1.872,0,4.2,4.2,0,0,0,2.556-3.163c.2-.019.456-.3.732-1.266.373-1.346-.027-1.542-.375-1.507Zm0,0" transform="translate(-239.318 -404.396)" fill="#525252"/>
</svg>
