<svg xmlns="http://www.w3.org/2000/svg" width="338.067" height="106.162" viewBox="0 0 338.067 106.162">
  <path id="Path_1869" data-name="Path 1869" d="M307.387,39.1C327.712,36.451,338,9.85,338,22v81a22,22,0,0,1-22,22H22A22,22,0,0,1,0,103S-.049,57.58-.066,41.192C-.077,30.95.2,24.215,8,29.3,12.265,32.08,16.282,46.373,32.321,46.3c8.459-.037,21.933-12.668,35.363-13.711,7.663-.6,22.643,4.786,37.664,2.19C116.013,32.94,126.882,23.129,134.232,22c12.723-1.954,27.758,14.324,46.218,17.1,26.882,4.042,58.2-4.377,76.249-6.507C304.925,26.9,287.061,41.748,307.387,39.1Z" transform="translate(0.067 -18.838)" fill="#ffebeb"/>
</svg>
