<svg xmlns="http://www.w3.org/2000/svg" width="65.557" height="63.322" viewBox="0 0 65.557 63.322">
  <path id="Path_2345" data-name="Path 2345" d="M541.5,499.387a17.782,17.782,0,0,0,25.466,16.063l3.48,3.874a10.877,10.877,0,0,0,8.533,17.641,10.883,10.883,0,1,0-5.3-20.372l-3.1-3.452a17.874,17.874,0,0,0,6.538-13.754,17.664,17.664,0,0,0-.51-4.189l4.223-1.494a13.931,13.931,0,1,0-1.3-4.026l-4.411,1.559a17.793,17.793,0,0,0-33.617,8.149Zm17.8-16.044a16.109,16.109,0,0,1,14.566,9.358.879.879,0,0,0,1.092.461l5.867-2.072a.881.881,0,0,0,.566-1.02,12.091,12.091,0,1,1,.7,2.19.881.881,0,0,0-1.1-.482l-5.743,2.032a.879.879,0,0,0-.552,1.078,15.946,15.946,0,0,1-5.931,17.428.883.883,0,0,0-.135,1.3l4.221,4.7a.88.88,0,0,0,1.135.15,9.239,9.239,0,0,1,5.918-1.454,9.126,9.126,0,1,1-7.723,2.989c.025-.023.078-.078.1-.1a.882.882,0,0,0-.008-1.168l-4.451-4.952a.881.881,0,0,0-1.067-.191,15.805,15.805,0,0,1-7.454,1.852,16.045,16.045,0,0,1,0-32.089Z" transform="translate(-541.5 -473.643)" fill="#9a9a9a"/>
</svg>
