<svg xmlns="http://www.w3.org/2000/svg" width="65.557" height="63.322" viewBox="0 0 65.557 63.322">
  <g id="Group_503" data-name="Group 503" transform="translate(-541.5 -473.643)">
    <path id="Path_2341" data-name="Path 2341" d="M582.77,480.281H570.7v7.639H582.77Zm-3.347,1.02-2.689,2.146-2.689-2.146Zm2.327,5.6H571.72v-5.6h.691l4.323,3.452,4.323-3.452h.693Z" transform="translate(16.469 3.744)" fill="#9a9a9a"/>
    <path id="Path_2342" data-name="Path 2342" d="M560.123,511.068a8.4,8.4,0,0,0,2.431,5.105.885.885,0,0,0,.621.257.867.867,0,0,0,.266-.042.878.878,0,0,0,.6-.687,2.678,2.678,0,0,1,2.639-2.221h4.4a2.664,2.664,0,0,1,2.5,1.717.883.883,0,0,0,1.512.23,8.412,8.412,0,1,0-14.965-4.359Zm8.375,1.139a3.188,3.188,0,1,1,3.187-3.187A3.192,3.192,0,0,1,568.5,512.207Zm-4.935-6.466a6.667,6.667,0,0,1,4.935-2.19,6.746,6.746,0,0,1,.688.036,6.641,6.641,0,0,1,5.233,9.644,4.39,4.39,0,0,0-2.739-1.469,4.209,4.209,0,1,0-6.242.136,4.432,4.432,0,0,0-2.535,1.924,6.665,6.665,0,0,1,.66-8.081Z" transform="translate(10.48 15.875)" fill="#9a9a9a"/>
    <path id="Path_2343" data-name="Path 2343" d="M547.692,506.386a.881.881,0,0,0,1.5-.627v-.774a5.333,5.333,0,0,1,4.737-5.3l.033,0a5.345,5.345,0,0,1,.573-.033H562.2a5.346,5.346,0,0,1,5.341,5.34v.774a.88.88,0,0,0,.541.813.866.866,0,0,0,.339.069.879.879,0,0,0,.621-.255,15.2,15.2,0,1,0-21.347,0Zm11.483-8.5h-1.623a5.854,5.854,0,1,1,1.623,0Zm-.81-15.733A13.449,13.449,0,0,1,571.8,495.583a13.309,13.309,0,0,1-2.64,7.988,7.12,7.12,0,0,0-6.28-5.654,7.383,7.383,0,1,0-9.031,0c-.023,0-.045,0-.069.006a.776.776,0,0,0-.106.012,7.093,7.093,0,0,0-6.1,5.634,13.3,13.3,0,0,1-2.64-7.988A13.449,13.449,0,0,1,558.365,482.15Z" transform="translate(0.94 3.804)" fill="#9a9a9a"/>
    <path id="Path_2344" data-name="Path 2344" d="M578.664,497.994a11.387,11.387,0,1,0-11.386-11.386A11.4,11.4,0,0,0,578.664,497.994Zm0-21.011a9.624,9.624,0,1,1-9.623,9.625A9.634,9.634,0,0,1,578.664,476.983Z" transform="translate(14.54 0.89)" fill="#9a9a9a"/>
    <path id="Path_2345" data-name="Path 2345" d="M541.5,499.387a17.782,17.782,0,0,0,25.466,16.063l3.48,3.874a10.877,10.877,0,0,0,8.533,17.641,10.883,10.883,0,1,0-5.3-20.372l-3.1-3.452a17.874,17.874,0,0,0,6.538-13.754,17.664,17.664,0,0,0-.51-4.189l4.223-1.494a13.931,13.931,0,1,0-1.3-4.026l-4.411,1.559a17.793,17.793,0,0,0-33.617,8.149Zm17.8-16.044a16.109,16.109,0,0,1,14.566,9.358.879.879,0,0,0,1.092.461l5.867-2.072a.881.881,0,0,0,.566-1.02,12.091,12.091,0,1,1,.7,2.19.881.881,0,0,0-1.1-.482l-5.743,2.032a.879.879,0,0,0-.552,1.078,15.946,15.946,0,0,1-5.931,17.428.883.883,0,0,0-.135,1.3l4.221,4.7a.88.88,0,0,0,1.135.15,9.239,9.239,0,0,1,5.918-1.454,9.126,9.126,0,1,1-7.723,2.989c.025-.023.078-.078.1-.1a.882.882,0,0,0-.008-1.168l-4.451-4.952a.881.881,0,0,0-1.067-.191,15.805,15.805,0,0,1-7.454,1.852,16.045,16.045,0,0,1,0-32.089Z" transform="translate(0 0)" fill="#9a9a9a"/>
  </g>
</svg>
