<svg xmlns="http://www.w3.org/2000/svg" width="74.458" height="77.026" viewBox="0 0 74.458 77.026">
  <g id="Group_1147" data-name="Group 1147" transform="translate(-123 -241.89)">
    <path id="Path_4749" data-name="Path 4749" d="M210.323,248.309h-5.135a1.284,1.284,0,0,0-1.284-1.284h-2.568v-2.568h-2.568v2.568H196.2V241.89h-2.568v5.135h-2.568a1.284,1.284,0,0,0-1.284,1.284v2.568H153.838v-2.568H151.27v2.568H148.7v-5.135h-2.568v5.135h-3.851A1.284,1.284,0,0,0,141,252.16V257.3a1.284,1.284,0,0,0,1.284,1.284h3.851V275.43a5.135,5.135,0,1,0,6.419,4.973h-2.568a2.568,2.568,0,1,1-2.568-2.568,1.284,1.284,0,0,0,1.284-1.284V258.579h41.08v2.568a1.284,1.284,0,0,0,1.284,1.284h1.284v48.783h-6.419a1.284,1.284,0,0,0-1.284,1.284v5.135a1.284,1.284,0,0,0,1.284,1.284H209.04a1.284,1.284,0,0,0,1.284-1.284V312.5a1.284,1.284,0,0,0-1.284-1.284h-6.419V262.43H203.9a1.284,1.284,0,0,0,1.284-1.284v-.415l5.612-2.245a1.283,1.283,0,0,0,.807-1.192v-7.7a1.284,1.284,0,0,0-1.284-1.284Zm-45.684,5.135h6.64l2.568,2.568h-6.64Zm-1.063,2.568h-6.64l-2.568-2.568h6.64Zm11.333-2.568h6.64l2.568,2.568h-6.64Zm-31.342,2.568v-2.568h2.568v2.568Zm5.135-2.568h2.036l2.568,2.568h-4.6Zm39.044,2.568-2.568-2.568h4.6v2.568Zm7.171,27.711v-6.64l5.135,5.135v6.64Zm5.135,8.766v6.64l-5.135-5.135v-6.64Zm-5.135,5.135,5.135,5.135v6.64l-5.135-5.135Zm5.135-19.036-5.135-5.135v-6.64l5.135,5.135Zm-5.135,29.306,3.32,3.32h-3.32Zm12.838,8.455h-20.54v-2.568h20.54Zm-7.7-48.031-5.135-5.135v-.752h5.135Zm2.568-8.455h-10.27v-10.27h10.27Zm6.419-3.437-3.851,1.54v-7.09h3.851Zm0,0" transform="translate(-14.149)"/>
    <rect id="Rectangle_249" data-name="Rectangle 249" width="3" height="4" transform="translate(128 309.215)"/>
    <rect id="Rectangle_250" data-name="Rectangle 250" width="3" height="4" transform="translate(133 309.215)"/>
    <rect id="Rectangle_251" data-name="Rectangle 251" width="3" height="4" transform="translate(138 309.215)"/>
    <path id="Path_4750" data-name="Path 4750" d="M170.5,424.011a1.284,1.284,0,0,0-1.284-1.284h-3.851V411.174a1.284,1.284,0,0,0-1.284-1.284H143.54a1.284,1.284,0,0,0-1.284,1.284v11.554H128.135a1.284,1.284,0,0,0-1.284,1.284v11.554h-2.568A1.284,1.284,0,0,0,123,436.849v12.838a1.284,1.284,0,0,0,1.284,1.284h41.08a1.284,1.284,0,0,0,1.284-1.284V438.133h2.568a1.284,1.284,0,0,0,1.284-1.284Zm-25.675-11.554H162.8v10.27H144.824ZM129.419,425.3h17.973v10.27H129.419Zm-3.851,12.838H143.54V448.4H125.568ZM164.08,448.4H146.108v-10.27H164.08Zm3.851-12.838H149.959V425.3h17.973Zm0,0" transform="translate(0 -132.055)"/>
    <rect id="Rectangle_252" data-name="Rectangle 252" width="3" height="5" transform="translate(152 296.215)"/>
    <rect id="Rectangle_253" data-name="Rectangle 253" width="2" height="5" transform="translate(158 296.215)"/>
    <rect id="Rectangle_254" data-name="Rectangle 254" width="2" height="5" transform="translate(163 296.215)"/>
    <rect id="Rectangle_255" data-name="Rectangle 255" width="3" height="5" transform="translate(132 296.215)"/>
    <rect id="Rectangle_256" data-name="Rectangle 256" width="3" height="5" transform="translate(137 296.215)"/>
    <rect id="Rectangle_257" data-name="Rectangle 257" width="3" height="5" transform="translate(142 296.215)"/>
    <rect id="Rectangle_258" data-name="Rectangle 258" width="2" height="5" transform="translate(148 283.215)"/>
    <rect id="Rectangle_259" data-name="Rectangle 259" width="3" height="5" transform="translate(152 283.215)"/>
    <rect id="Rectangle_260" data-name="Rectangle 260" width="2" height="5" transform="translate(158 283.215)"/>
    <rect id="Rectangle_261" data-name="Rectangle 261" width="3" height="4" transform="translate(148 309.215)"/>
    <rect id="Rectangle_262" data-name="Rectangle 262" width="2" height="4" transform="translate(154 309.215)"/>
    <rect id="Rectangle_263" data-name="Rectangle 263" width="2" height="4" transform="translate(159 309.215)"/>
  </g>
</svg>
