<svg xmlns="http://www.w3.org/2000/svg" width="79.369" height="55.215" viewBox="0 0 79.369 55.215">
  <g id="Group_508" data-name="Group 508" transform="translate(-215.435 -350.672)">
    <path id="Path_2363" data-name="Path 2363" d="M294.783,400.922a.848.848,0,0,0-.018-.089,1.362,1.362,0,0,0-.043-.139c-.01-.03-.02-.057-.031-.084a1.579,1.579,0,0,0-.079-.148.357.357,0,0,1-.031-.054,1.381,1.381,0,0,0-.148-.176.5.5,0,0,0-.044-.039,1.371,1.371,0,0,0-.131-.11c-.026-.016-.053-.031-.079-.046s-.057-.038-.089-.054l-9.684-4.79V351.951a1.279,1.279,0,0,0-1.279-1.279H226.8a1.28,1.28,0,0,0-1.281,1.279V395.2l-9.386,4.786c-.028.015-.051.033-.077.049s-.054.031-.08.049a1.16,1.16,0,0,0-.121.1c-.016.016-.038.031-.054.049a1.239,1.239,0,0,0-.146.176l-.013.025a1.307,1.307,0,0,0-.1.177c-.011.025-.02.052-.03.079-.018.048-.033.1-.046.143l-.015.089a1.229,1.229,0,0,0-.016.154c0,.018,0,.034,0,.052v3.476a1.279,1.279,0,0,0,1.279,1.279h76.808a1.279,1.279,0,0,0,1.281-1.279v-3.476c0-.018,0-.034-.007-.052A1.278,1.278,0,0,0,294.783,400.922Zm-72.74-1.071,5.065-2.582h55.719l5.221,2.582Zm6.038-46.62h53.767v41.477H228.08Zm64.163,50.1h-74.25v-.917h74.25Z" fill="#9a9a9a"/>
    <path id="Path_2364" data-name="Path 2364" d="M269.78,353.9H226.989a1.282,1.282,0,0,0-1.281,1.281v28.847a1.281,1.281,0,0,0,1.281,1.279H269.78a1.28,1.28,0,0,0,1.279-1.279V355.178A1.28,1.28,0,0,0,269.78,353.9ZM268.5,382.744H228.269V356.458H268.5Z" transform="translate(6.578 2.065)" fill="#9a9a9a"/>
    <path id="Path_2365" data-name="Path 2365" d="M240.92,373.486a2.753,2.753,0,1,0,2.751,2.753A2.757,2.757,0,0,0,240.92,373.486Zm0,3.968a1.215,1.215,0,1,1,1.215-1.215A1.217,1.217,0,0,1,240.92,377.454Z" transform="translate(14.555 14.608)" fill="#9a9a9a"/>
  </g>
</svg>
