<svg id="Group_1141" data-name="Group 1141" xmlns="http://www.w3.org/2000/svg" xmlns:xlink="http://www.w3.org/1999/xlink" width="65.205" height="65.205" viewBox="0 0 65.205 65.205">
  <defs>
    <clipPath id="clip-path">
      <rect id="Rectangle_248" data-name="Rectangle 248" width="65.205" height="65.205"/>
    </clipPath>
  </defs>
  <path id="Path_4725" data-name="Path 4725" d="M1099.7,88.25a4.263,4.263,0,0,0-4.257,4.258.962.962,0,0,0,1.923,0,2.337,2.337,0,0,1,2.335-2.335h6.257a.962.962,0,0,0,0-1.923Zm0,0" transform="translate(-1081.69 -84.907)"/>
  <path id="Path_4726" data-name="Path 4726" d="M1172.427,88.25h-1.7a.962.962,0,0,0,0,1.923h1.7a.962.962,0,0,0,0-1.923Zm0,0" transform="translate(-1142.395 -84.907)"/>
  <path id="Path_4727" data-name="Path 4727" d="M1151.2,72.173h5.28a.962.962,0,0,0,0-1.923h-5.28a.962.962,0,0,0,0,1.923Zm0,0" transform="translate(-1126.444 -70.204)"/>
  <path id="Path_4728" data-name="Path 4728" d="M1078.406,78.767a.962.962,0,0,0,.963-.962A5.638,5.638,0,0,1,1085,72.173h2.538a.962.962,0,0,0,0-1.923H1085a7.563,7.563,0,0,0-7.554,7.555.96.96,0,0,0,.96.962Zm0,0" transform="translate(-1066.987 -70.204)"/>
  <path id="Path_4729" data-name="Path 4729" d="M1236.27,88.25a4.264,4.264,0,0,0-4.258,4.258.962.962,0,0,0,1.923,0,2.338,2.338,0,0,1,2.335-2.335h2.9a.962.962,0,0,0,0-1.923Zm0,0" transform="translate(-1193.243 -84.907)"/>
  <path id="Path_4730" data-name="Path 4730" d="M1287.969,89.212a.962.962,0,0,0,.962.962H1294a.962.962,0,0,0,0-1.923h-5.068a.962.962,0,0,0-.962.962Zm0,0" transform="translate(-1238.951 -84.907)"/>
  <path id="Path_4731" data-name="Path 4731" d="M1309.368,72.173h1.324a.962.962,0,0,0,0-1.923h-1.324a.962.962,0,0,0,0,1.923Zm0,0" transform="translate(-1255.645 -70.204)"/>
  <path id="Path_4732" data-name="Path 4732" d="M1214.974,78.767a.961.961,0,0,0,.962-.962,5.639,5.639,0,0,1,5.632-5.632h5.407a.962.962,0,1,0,0-1.923h-5.407a7.564,7.564,0,0,0-7.555,7.555.962.962,0,0,0,.962.962Zm0,0" transform="translate(-1178.54 -70.204)"/>
  <g id="Group_1140" data-name="Group 1140" transform="translate(0 0)">
    <g id="Group_1139" data-name="Group 1139" clip-path="url(#clip-path)">
      <path id="Path_4733" data-name="Path 4733" d="M1330.556,244.2a.962.962,0,0,0-.962.962v3.3a.962.962,0,1,0,1.923,0v-3.3a.962.962,0,0,0-.962-.962Zm0,0" transform="translate(-1272.952 -212.296)"/>
      <path id="Path_4734" data-name="Path 4734" d="M1084.746,173.5h-2.335V139.373l2.45-.294a.962.962,0,0,0-.23-1.909l-19.584,2.352-.528-11.064a.958.958,0,0,0,.569-.876v-3.3a.962.962,0,0,0-.962-.962h-10.99a.962.962,0,0,0-.962.962v3.3a.96.96,0,0,0,.571.879l-.6,12.614-11.975,1.438-.666-14.056a.961.961,0,0,0,.568-.875v-3.3a.962.962,0,0,0-.961-.962h-10.99a.961.961,0,0,0-.962.962v3.3a.96.96,0,0,0,.573.879l-1.754,36.792h-.731a.962.962,0,0,0-.961.915l-.351,7.327h-2.38a.962.962,0,0,0-.962.962v3.3a.962.962,0,0,0,.962.962h63.19a.962.962,0,0,0,.961-.962v-3.3a.962.962,0,0,0-.961-.962Zm-9.654,0V163.468a.962.962,0,0,0-.962-.962h-6.594a.962.962,0,0,0-.961.962V173.5h-1.484V163.468a.961.961,0,0,0-.962-.962h-6.594a.962.962,0,0,0-.962.962V173.5h-22V145.123l45.908-5.518V173.5Zm-1.923,0H1068.5V164.43h4.671Zm-10,0H1058.5V164.43h4.671Zm-9.066-48.249h9.066v1.374H1054.1Zm.57,3.3h7.926l.535,11.21-9.046,1.088Zm-25.584-3.3h9.064v1.374h-9.066Zm.573,3.3h7.925l.673,14.2-8.053.969a.962.962,0,0,0,.114,1.916,1.073,1.073,0,0,0,.116-.007l2.222-.268v19.9H1027.9Zm-3.494,38.633h6.491V173.5h-6.794Zm57.619,9.616h-61.267v-1.374h61.267Zm0,0" transform="translate(-1020.548 -113.557)"/>
    </g>
  </g>
  <path id="Path_4735" data-name="Path 4735" d="M1134.389,319.75H1123.4a.962.962,0,1,0,0,1.923h10.99a.962.962,0,1,0,0-1.923Zm0,0" transform="translate(-1103.739 -274.006)"/>
  <path id="Path_4736" data-name="Path 4736" d="M1134.389,283.75H1123.4a.962.962,0,0,0,0,1.923h10.99a.962.962,0,0,0,0-1.923Zm0,0" transform="translate(-1103.739 -244.6)"/>
  <path id="Path_4737" data-name="Path 4737" d="M1134.389,301.75H1123.4a.962.962,0,1,0,0,1.923h10.99a.962.962,0,1,0,0-1.923Zm0,0" transform="translate(-1103.739 -259.303)"/>
  <path id="Path_4738" data-name="Path 4738" d="M1230.286,292.75h-3.3a.962.962,0,0,0-.962.962v3.3a.961.961,0,0,0,.962.962h3.3a.961.961,0,0,0,.962-.962v-3.3a.962.962,0,0,0-.962-.962Zm-.962,3.3h-1.374v-1.374h1.374Zm0,0" transform="translate(-1188.355 -251.951)"/>
  <path id="Path_4739" data-name="Path 4739" d="M1284.9,292.75h-3.3a.962.962,0,0,0-.962.962v3.3a.961.961,0,0,0,.962.962h3.3a.961.961,0,0,0,.962-.962v-3.3a.962.962,0,0,0-.962-.962Zm-.962,3.3h-1.374v-1.374h1.374Zm0,0" transform="translate(-1232.962 -251.951)"/>
</svg>
