<svg xmlns="http://www.w3.org/2000/svg" width="51.356" height="41.085" viewBox="0 0 51.356 41.085">
  <path id="Icon_awesome-laptop" data-name="Icon awesome-laptop" d="M50.072,33.381H30.616a2.53,2.53,0,0,1-2.627,2.568H23.11a2.725,2.725,0,0,1-2.63-2.568H1.284A1.288,1.288,0,0,0,0,34.665v1.284a5.151,5.151,0,0,0,5.136,5.136H46.22a5.151,5.151,0,0,0,5.136-5.136V34.665A1.288,1.288,0,0,0,50.072,33.381ZM46.22,3.852A3.863,3.863,0,0,0,42.369,0H8.987A3.863,3.863,0,0,0,5.136,3.852V30.814H46.22ZM41.085,25.678H10.271V5.136H41.085Z" fill="#000"/>
</svg>
