<svg xmlns="http://www.w3.org/2000/svg" width="20" height="20" viewBox="0 0 20 20">
  <path id="Icon_awesome-download" data-name="Icon awesome-download" d="M8.438,0h3.125A.935.935,0,0,1,12.5.938V7.5h3.426a.78.78,0,0,1,.551,1.332l-5.941,5.945a.757.757,0,0,1-1.066,0L3.52,8.832A.78.78,0,0,1,4.07,7.5H7.5V.938A.935.935,0,0,1,8.438,0ZM20,14.688v4.375a.935.935,0,0,1-.937.938H.938A.935.935,0,0,1,0,19.063V14.688a.935.935,0,0,1,.938-.937h5.73l1.914,1.914a2,2,0,0,0,2.836,0l1.914-1.914h5.73A.935.935,0,0,1,20,14.688Zm-4.844,3.438a.781.781,0,1,0-.781.781A.784.784,0,0,0,15.156,18.125Zm2.5,0a.781.781,0,1,0-.781.781A.784.784,0,0,0,17.656,18.125Z" fill="#525252"/>
</svg>
