<svg xmlns="http://www.w3.org/2000/svg" width="188.581" height="188.961" viewBox="0 0 188.581 188.961">
  <g id="Group_931" data-name="Group 931" transform="translate(0.439 0)" opacity="0.813">
    <g id="Group_917" data-name="Group 917" transform="translate(97.401 1.873)">
      <path id="Path_4407" data-name="Path 4407" d="M1586.382,194.56h-.111a90.7,90.7,0,0,1-47.346-13.772,92.129,92.129,0,0,1-39.146-50.813c-.444-1.437-.849-2.866-1.2-4.246a92.682,92.682,0,0,1,28.557-92.755c1.762-1.543,3.61-3.037,5.491-4.441a90.232,90.232,0,0,1,53.647-18.086h.111Zm-.22-183.891a90.01,90.01,0,0,0-53.407,18.041c-1.877,1.4-3.72,2.891-5.478,4.43a92.46,92.46,0,0,0-28.488,92.532c.352,1.377.756,2.8,1.2,4.236a91.917,91.917,0,0,0,39.052,50.691,90.483,90.483,0,0,0,47.121,13.737Z" transform="translate(-1495.641 -10.445)" fill="#fff"/>
    </g>
    <g id="Group_918" data-name="Group 918" transform="translate(134.027 39.152)">
      <path id="Path_4408" data-name="Path 4408" d="M1716.256,286.491l-.112,0a54.773,54.773,0,0,1,0-109.536l.112,0Zm-.22-109.316a54.553,54.553,0,0,0,0,109.093Z" transform="translate(-1662.141 -176.952)" fill="#fff"/>
    </g>
    <g id="Group_919" data-name="Group 919" transform="translate(175.713 81.26)">
      <path id="Path_4409" data-name="Path 4409" d="M1863.85,368.349v25.333a12.675,12.675,0,0,1,0-25.333Z" transform="translate(-1851.641 -368.349)" fill="#fff"/>
    </g>
    <g id="Group_920" data-name="Group 920" transform="translate(134.063 62.533)">
      <ellipse id="Ellipse_2263" data-name="Ellipse 2263" cx="6.5" cy="6" rx="6.5" ry="6" transform="translate(0.498 -0.16)" fill="#fff"/>
    </g>
    <g id="Group_921" data-name="Group 921" transform="translate(129.704 161.719)">
      <ellipse id="Ellipse_2264" data-name="Ellipse 2264" cx="6" cy="6.5" rx="6" ry="6.5" transform="translate(-0.143 -0.346)" fill="#fff"/>
    </g>
    <g id="Group_922" data-name="Group 922" transform="translate(127.524 18.936)">
      <ellipse id="Ellipse_2265" data-name="Ellipse 2265" cx="4" cy="3" rx="4" ry="3" transform="translate(0.037 0.437)" fill="#fff"/>
    </g>
    <g id="Group_923" data-name="Group 923" transform="translate(59.947 42.914)">
      <ellipse id="Ellipse_2266" data-name="Ellipse 2266" cx="4.5" cy="3.5" rx="4.5" ry="3.5" transform="translate(-0.386 0.458)" fill="#fff"/>
    </g>
    <g id="Group_924" data-name="Group 924" transform="translate(68.667 156.269)">
      <circle id="Ellipse_2267" data-name="Ellipse 2267" cx="4" cy="4" r="4" transform="translate(-0.106 0.104)" fill="#fff"/>
    </g>
    <g id="Group_925" data-name="Group 925" transform="translate(99.185 117.031)">
      <circle id="Ellipse_2268" data-name="Ellipse 2268" cx="2" cy="2" r="2" transform="translate(0.375 0.342)" fill="#fff"/>
    </g>
    <g id="Group_926" data-name="Group 926" transform="translate(14.169 169.348)">
      <ellipse id="Ellipse_2269" data-name="Ellipse 2269" cx="4.5" cy="5" rx="4.5" ry="5" transform="translate(0.391 0.025)" fill="#fff"/>
    </g>
    <g id="Group_927" data-name="Group 927" transform="translate(0 101.771)">
      <ellipse id="Ellipse_2270" data-name="Ellipse 2270" cx="3" cy="3.5" rx="3" ry="3.5" transform="translate(-0.439 -0.399)" fill="#fff"/>
    </g>
    <g id="Group_928" data-name="Group 928" transform="translate(7.63 20.025)">
      <circle id="Ellipse_2271" data-name="Ellipse 2271" cx="6.5" cy="6.5" r="6.5" transform="translate(-0.069 0.348)" fill="#fff"/>
    </g>
    <g id="Group_929" data-name="Group 929" transform="translate(55.99 0.055)">
      <path id="Path_4410" data-name="Path 4410" d="M1439.488,191.03h-93.846l-.016-.016a134.6,134.6,0,0,1-19.812-25.954c-1.25-2.132-2.465-4.345-3.611-6.578a134.046,134.046,0,0,1-10.955-29.367,135.987,135.987,0,0,1,2.854-74.341c1.281-3.9,2.764-7.8,4.405-11.582a133.888,133.888,0,0,1,27.773-41l.016-.016h93.192Zm-93.8-.111h93.69V2.29h-93.037a133.764,133.764,0,0,0-27.734,40.947c-1.641,3.782-3.122,7.675-4.4,11.572a134.918,134.918,0,0,0,8.094,103.622c1.145,2.231,2.359,4.442,3.609,6.572A134.477,134.477,0,0,0,1345.688,190.919Z" transform="translate(-1307.391 -2.179)" fill="#fff"/>
    </g>
    <g id="Group_930" data-name="Group 930" transform="translate(1.772)">
      <path id="Path_4411" data-name="Path 4411" d="M1251.511,190.89H1090.937l-.032-.055c-2.077-3.534-4.059-7.176-5.891-10.823-1.38-2.742-2.7-5.55-3.94-8.346a186.407,186.407,0,0,1-15.266-59.865c-.261-3.107-.447-6.232-.551-9.29-.078-2.218-.117-4.457-.117-6.656a187.36,187.36,0,0,1,10.328-61.569c1.353-3.9,2.852-7.8,4.455-11.582a187.616,187.616,0,0,1,10.335-20.721l.032-.055h161.219Zm-160.447-.221H1251.29V2.151H1090.419a187.416,187.416,0,0,0-10.291,20.641c-1.6,3.782-3.1,7.674-4.45,11.568a187.132,187.132,0,0,0-10.316,61.5c0,2.2.04,4.433.117,6.649.1,3.054.289,6.176.55,9.279a186.187,186.187,0,0,0,15.248,59.794c1.233,2.792,2.557,5.6,3.935,8.335C1087.031,183.537,1089,187.156,1091.064,190.668Z" transform="translate(-1065.141 -1.929)" fill="#fff"/>
    </g>
  </g>
</svg>
