<svg xmlns="http://www.w3.org/2000/svg" width="625.672" height="626.994" viewBox="0 0 625.672 626.994">
  <g id="Group_931" data-name="Group 931" transform="translate(-0.404)" opacity="0.813">
    <g id="Group_917" data-name="Group 917" transform="translate(324.987 6.216)">
      <path id="Path_4407" data-name="Path 4407" d="M1796.73,621.358l-.368,0a300.956,300.956,0,0,1-157.1-45.7,305.692,305.692,0,0,1-129.891-168.6c-1.474-4.768-2.817-9.508-3.99-14.089A307.531,307.531,0,0,1,1600.137,85.2c5.847-5.121,11.977-10.079,18.219-14.737a299.4,299.4,0,0,1,178.007-60.011l.368,0ZM1796,11.187A298.663,298.663,0,0,0,1618.79,71.05c-6.227,4.647-12.342,9.593-18.175,14.7a306.792,306.792,0,0,0-94.526,307.032c1.169,4.57,2.509,9.3,3.98,14.055a304.985,304.985,0,0,0,129.579,168.2A300.23,300.23,0,0,0,1796,620.617Z" transform="translate(-1495.641 -10.445)" fill="#fff"/>
    </g>
    <g id="Group_918" data-name="Group 918" transform="translate(446.517 129.91)">
      <path id="Path_4408" data-name="Path 4408" d="M1841.7,540.414l-.37-.005a181.744,181.744,0,0,1,0-363.452l.37-.005Zm-.73-362.722a181.014,181.014,0,0,0,0,361.982Z" transform="translate(-1662.141 -176.952)" fill="#fff"/>
    </g>
    <g id="Group_919" data-name="Group 919" transform="translate(584.835 269.629)">
      <path id="Path_4409" data-name="Path 4409" d="M1892.151,368.349v84.057a42.057,42.057,0,0,1,0-84.057Z" transform="translate(-1851.641 -368.349)" fill="#fff"/>
    </g>
    <g id="Group_920" data-name="Group 920" transform="translate(448.315 207.68)">
      <circle id="Ellipse_2263" data-name="Ellipse 2263" cx="20.5" cy="20.5" r="20.5" transform="translate(0.089 0.319)" fill="#fff"/>
    </g>
    <g id="Group_921" data-name="Group 921" transform="translate(431.304 537.92)">
      <circle id="Ellipse_2264" data-name="Ellipse 2264" cx="20.5" cy="20.5" r="20.5" transform="translate(0.1 0.08)" fill="#fff"/>
    </g>
    <g id="Group_922" data-name="Group 922" transform="translate(425.292 62)">
      <ellipse id="Ellipse_2265" data-name="Ellipse 2265" cx="12" cy="11.5" rx="12" ry="11.5" transform="translate(0.112 0)" fill="#fff"/>
    </g>
    <g id="Group_923" data-name="Group 923" transform="translate(202.151 142.456)">
      <ellipse id="Ellipse_2266" data-name="Ellipse 2266" cx="14" cy="13.5" rx="14" ry="13.5" transform="translate(0.252 -0.456)" fill="#fff"/>
    </g>
    <g id="Group_924" data-name="Group 924" transform="translate(229.168 516.92)">
      <ellipse id="Ellipse_2267" data-name="Ellipse 2267" cx="12.5" cy="13" rx="12.5" ry="13" transform="translate(0.236 0.08)" fill="#fff"/>
    </g>
    <g id="Group_925" data-name="Group 925" transform="translate(329.228 388.216)">
      <ellipse id="Ellipse_2268" data-name="Ellipse 2268" cx="7.5" cy="7" rx="7.5" ry="7" transform="translate(0.176 -0.216)" fill="#fff"/>
    </g>
    <g id="Group_926" data-name="Group 926" transform="translate(50.023 561.92)">
      <ellipse id="Ellipse_2269" data-name="Ellipse 2269" cx="15" cy="16" rx="15" ry="16" transform="translate(0.381 0.08)" fill="#fff"/>
    </g>
    <g id="Group_927" data-name="Group 927" transform="translate(0.022 339.072)">
      <ellipse id="Ellipse_2270" data-name="Ellipse 2270" cx="9" cy="10" rx="9" ry="10" transform="translate(0.381 -0.073)" fill="#fff"/>
    </g>
    <g id="Group_928" data-name="Group 928" transform="translate(28.022 67)">
      <ellipse id="Ellipse_2271" data-name="Ellipse 2271" cx="20.5" cy="21" rx="20.5" ry="21" transform="translate(0.381 0)" fill="#fff"/>
    </g>
    <g id="Group_929" data-name="Group 929" transform="translate(187.581 0.182)">
      <path id="Path_4410" data-name="Path 4410" d="M1745.7,628.808H1434.313l-.055-.054a446.616,446.616,0,0,1-65.74-86.118c-4.149-7.074-8.181-14.416-11.983-21.825a444.759,444.759,0,0,1-36.35-97.442,451.214,451.214,0,0,1,9.471-246.674c4.252-12.94,9.17-25.869,14.618-38.43A444.247,444.247,0,0,1,1436.427,2.233l.053-.054H1745.7Zm-311.238-.367h310.873V2.547H1436.631a443.84,443.84,0,0,0-92.023,135.867c-5.444,12.549-10.358,25.468-14.607,38.4a447.675,447.675,0,0,0,26.856,343.831c3.8,7.4,7.828,14.739,11.974,21.807A446.2,446.2,0,0,0,1434.465,628.441Z" transform="translate(-1307.391 -2.179)" fill="#fff"/>
    </g>
    <g id="Group_930" data-name="Group 930" transform="translate(7.679)">
      <path id="Path_4411" data-name="Path 4411" d="M1683.537,628.923h-532.8l-.106-.181c-6.893-11.726-13.47-23.81-19.547-35.914-4.578-9.1-8.975-18.416-13.072-27.691A618.5,618.5,0,0,1,1067.357,366.5c-.867-10.309-1.482-20.68-1.827-30.825-.257-7.359-.389-14.79-.389-22.086a621.677,621.677,0,0,1,34.27-204.294c4.489-12.936,9.462-25.866,14.784-38.429a622.488,622.488,0,0,1,34.292-68.753l.106-.183h534.944Zm-532.381-.735H1682.8V2.664H1149.016a621.885,621.885,0,0,0-34.146,68.488c-5.314,12.549-10.282,25.463-14.765,38.383a620.924,620.924,0,0,0-34.23,204.053c0,7.287.131,14.71.389,22.061.344,10.133.959,20.492,1.824,30.788a617.794,617.794,0,0,0,50.594,198.4c4.092,9.264,8.485,18.569,13.057,27.658C1137.776,604.526,1144.309,616.533,1151.156,628.188Z" transform="translate(-1065.141 -1.929)" fill="#fff"/>
    </g>
  </g>
</svg>
