<svg xmlns="http://www.w3.org/2000/svg" width="34.875" height="34.875" viewBox="0 0 34.875 34.875">
  <path id="Icon_awesome-pause-circle" data-name="Icon awesome-pause-circle" d="M18,.563A17.438,17.438,0,1,0,35.438,18,17.434,17.434,0,0,0,18,.563ZM16.875,23.625A1.128,1.128,0,0,1,15.75,24.75H12.375a1.128,1.128,0,0,1-1.125-1.125V12.375a1.128,1.128,0,0,1,1.125-1.125H15.75a1.128,1.128,0,0,1,1.125,1.125Zm7.875,0a1.128,1.128,0,0,1-1.125,1.125H20.25a1.128,1.128,0,0,1-1.125-1.125V12.375A1.128,1.128,0,0,1,20.25,11.25h3.375a1.128,1.128,0,0,1,1.125,1.125Z" transform="translate(-0.563 -0.563)" fill="#525252"/>
</svg>
