<svg id="Group_1231" data-name="Group 1231" xmlns="http://www.w3.org/2000/svg" width="43.785" height="43.783" viewBox="0 0 43.785 43.783">
  <path id="Path_4768" data-name="Path 4768" d="M219.545,410.6V407.89H175.76V410.6h2.483v5.869h-1.129V443.1h1.129v5.869H175.76v2.707h43.785v-2.707h-2.482V443.1h1.127V416.466h-1.127V410.6Zm-12.414,38.368h-4.513V443.1h4.513ZM188.174,410.6h4.514v5.869h-4.514Zm5.811,12.865,10.945,6.32-10.945,6.32Zm1.41-7V410.6h4.514v5.869ZM192.688,443.1v5.869h-4.514V443.1Zm2.707,0h4.514v5.869H195.4Zm7.223-26.631V410.6h4.513v5.869ZM180.952,410.6h4.513v5.869h-4.513Zm0,32.5h4.513v5.869h-4.513Zm33.4,5.869H209.84V443.1h4.514Zm0-32.5H209.84V410.6h4.514Zm0,0" transform="translate(-175.76 -407.89)" fill="#525252"/>
</svg>
