<svg xmlns="http://www.w3.org/2000/svg" width="15" height="20" viewBox="0 0 15 20">
  <path id="Icon_awesome-file-pdf" data-name="Icon awesome-file-pdf" d="M7.105,10a3.769,3.769,0,0,1-.078-1.832C7.355,8.172,7.324,9.613,7.105,10Zm-.066,1.844A18.025,18.025,0,0,1,5.93,14.3a14.384,14.384,0,0,1,2.457-.855A5.06,5.06,0,0,1,7.039,11.848ZM3.363,16.723c0,.031.516-.211,1.363-1.57A5.4,5.4,0,0,0,3.363,16.723ZM9.688,6.25H15V19.063a.935.935,0,0,1-.937.938H.938A.935.935,0,0,1,0,19.063V.938A.935.935,0,0,1,.938,0H8.75V5.313A.94.94,0,0,0,9.688,6.25Zm-.312,6.711a3.921,3.921,0,0,1-1.668-2.1,5.615,5.615,0,0,0,.242-2.508.978.978,0,0,0-1.867-.266A6.5,6.5,0,0,0,6.4,11.094,36.682,36.682,0,0,1,4.8,14.445s0,0-.008,0c-1.059.543-2.875,1.738-2.129,2.656a1.214,1.214,0,0,0,.84.391c.7,0,1.395-.7,2.387-2.414a22.266,22.266,0,0,1,3.086-.906,5.92,5.92,0,0,0,2.5.762,1.011,1.011,0,0,0,.77-1.7c-.543-.531-2.121-.379-2.875-.281ZM14.727,4.1,10.9.273A.937.937,0,0,0,10.234,0H10V5h5V4.762A.935.935,0,0,0,14.727,4.1Zm-2.895,9.973c.16-.105-.1-.465-1.672-.352C11.609,14.34,11.832,14.074,11.832,14.074Z" fill="#525252"/>
</svg>
