<svg xmlns="http://www.w3.org/2000/svg" width="54.334" height="54.335" viewBox="0 0 54.334 54.335">
  <g id="Group_934" data-name="Group 934" transform="translate(0 0)">
    <g id="Group_932" data-name="Group 932" transform="translate(19.674 14.822)">
      <path id="Path_4412" data-name="Path 4412" d="M783.841,257.4l-19.878-11.476a.867.867,0,0,0-1.3.751v22.953a.868.868,0,0,0,1.3.751L783.841,258.9A.867.867,0,0,0,783.841,257.4Z" transform="translate(-762.662 -245.808)" fill="#fff"/>
    </g>
    <g id="Group_933" data-name="Group 933">
      <path id="Path_4413" data-name="Path 4413" d="M700.393,232.762a27.167,27.167,0,1,1,27.167-27.167A27.2,27.2,0,0,1,700.393,232.762Zm0-54.115a26.947,26.947,0,1,0,26.947,26.947A26.978,26.978,0,0,0,700.393,178.647Z" transform="translate(-673.226 -178.427)" fill="#fff"/>
    </g>
  </g>
</svg>
