<svg id="Group_934" data-name="Group 934" xmlns="http://www.w3.org/2000/svg" width="180.288" height="180.288" viewBox="0 0 180.288 180.288">
  <g id="Group_932" data-name="Group 932" transform="translate(65.28 49.182)">
    <path id="Path_4412" data-name="Path 4412" d="M832.936,284.278,766.979,246.2a2.878,2.878,0,0,0-4.317,2.492v76.16a2.879,2.879,0,0,0,4.317,2.493l65.956-38.08A2.878,2.878,0,0,0,832.936,284.278Z" transform="translate(-762.662 -245.808)" fill="#fff"/>
  </g>
  <g id="Group_933" data-name="Group 933">
    <path id="Path_4413" data-name="Path 4413" d="M763.37,358.715a90.144,90.144,0,1,1,90.144-90.144A90.246,90.246,0,0,1,763.37,358.715Zm0-179.558a89.414,89.414,0,1,0,89.414,89.414A89.515,89.515,0,0,0,763.37,179.157Z" transform="translate(-673.226 -178.427)" fill="#fff"/>
  </g>
</svg>
