<svg xmlns="http://www.w3.org/2000/svg" width="38.148" height="52.453" viewBox="0 0 38.148 52.453">
  <path id="Icon_material-loop" data-name="Icon material-loop" d="M25.074,8.653V1.5l-9.537,9.537,9.537,9.537V13.421A14.317,14.317,0,0,1,39.379,27.727,14,14,0,0,1,37.71,34.4l3.481,3.481A19.04,19.04,0,0,0,25.074,8.653Zm0,33.379A14.317,14.317,0,0,1,10.768,27.727a14,14,0,0,1,1.669-6.676L8.956,17.57A19.04,19.04,0,0,0,25.074,46.8v7.153l9.537-9.537-9.537-9.537Z" transform="translate(-6 -1.5)" fill="#000"/>
</svg>
