<svg xmlns="http://www.w3.org/2000/svg" xmlns:xlink="http://www.w3.org/1999/xlink" width="478.848" height="284.848" viewBox="0 0 478.848 284.848">
  <defs>
    <linearGradient id="linear-gradient" x1="0.5" x2="0.5" y2="1" gradientUnits="objectBoundingBox">
      <stop offset="0" stop-color="#007fff"/>
      <stop offset="1" stop-color="#ffc6c6"/>
    </linearGradient>
    <clipPath id="clip-path">
      <path id="Path_207" data-name="Path 207" d="M393.427,445.62c-121.975-7.1-219.794-136.144-154.888-211.035C288.877,176.5,356,261.045,418.6,218.45c96.309-65.53,252.339-77.444,272.991,5.163S643.83,435.294,592.846,443.039,393.427,445.62,393.427,445.62Z" transform="translate(-217.853 -165.452)" fill="none"/>
    </clipPath>
  </defs>
  <g id="Group_66" data-name="Group 66" transform="translate(-217.853 -165.452)">
    <path id="Path_201" data-name="Path 201" d="M393.427,445.62c-121.975-7.1-219.794-136.144-154.888-211.035C288.877,176.5,356,261.045,418.6,218.45c96.309-65.53,252.339-77.444,272.991,5.163S643.83,435.294,592.846,443.039,393.427,445.62,393.427,445.62Z" transform="translate(0)" fill="url(#linear-gradient)"/>
    <path id="Path_202" data-name="Path 202" d="M483.672,374.727c1.291,30.978.968,47.758-10.326,60.665s-42.917,9.68-42.917,9.68-3.119,45.606-47.327,47.542-50.554-56.792-15.919-71.851c32.97-14.335,43.455-18.5,54.856-54,10.416-32.426,42.917-26.245,50.662-12.692S483.672,374.727,483.672,374.727Z" transform="translate(-74.434 -104.002)" fill="#303c60"/>
    <path id="Path_203" data-name="Path 203" d="M644.513,793.634s20.867,4.087,21.943,3.872,23.879-10.326,26.245-8.82,16.135,7.314,19.146,8.6-1.721,1.721-4.087,1.721-15.919-5.593-17.425-4.517,11.832,3.227,11.832,4.087-35.71,9.035-37.861,9.035-18.716-1.506-18.716-1.506Z" transform="translate(-249.795 -364.793)" fill="#e38540"/>
    <path id="Path_204" data-name="Path 204" d="M602.737,525.923c11.24,2.205,17.855,14.1,20.007,24.519S602.737,525.923,602.737,525.923Z" transform="translate(-225.337 -211.044)" fill="#6791c9"/>
    <g id="Group_50" data-name="Group 50" transform="translate(217.853 165.452)">
      <g id="Group_49" data-name="Group 49" clip-path="url(#clip-path)">
        <path id="Path_205" data-name="Path 205" d="M504.469,502.7s-21.62,14.521-33.237,21.62,4.195,83.575,8.067,111.971,70.991,2.582,70.991,2.582S545.773,615,551.581,576.6c4.161-27.506-11.079-44.746-19.791-56.685C509.8,489.778,504.469,502.7,504.469,502.7Z" transform="translate(-363.745 -361.287)" fill="#75a1de"/>
        <path id="Path_206" data-name="Path 206" d="M479.064,559.525c24.847,30.332,33.246,36,27.106,56.47-4.84,16.134-6.454,21.943-7.422,27.428s46.144-3.55,46.144-3.55l-.323,17.747s-37.109,17.748-55.179,21.3-29.364-.645-29.364-.645Z" transform="translate(-359.637 -396.168)" fill="#6791c9"/>
      </g>
    </g>
    <path id="Path_208" data-name="Path 208" d="M541.914,841.75a3.843,3.843,0,0,1,0-7.685H835.893a3.842,3.842,0,0,1,3.843,3.842Z" transform="translate(-187.477 -391.45)" fill="#386567"/>
    <path id="Path_209" data-name="Path 209" d="M560.731,432.9,549.545,466.03s12.262,33.237,22.588,25.815c3.525-2.534-1.291-22.588-1.291-22.588l7.529-26.89Z" transform="translate(-194.195 -156.582)" fill="#f09959"/>
    <path id="Path_210" data-name="Path 210" d="M449.981,556.379C434.534,558.1,433.2,578.967,426.1,613.817s-4.966,57.853-1.613,62.278c8.067,10.649,98.741-26.46,110.035-26.138,7.795.223,1.291-12.907,1.291-12.907l-86.48,13.23S461.6,609.945,461.6,589.293,455.79,555.734,449.981,556.379Z" transform="translate(-119.155 -228.861)" fill="#f09959"/>
    <path id="Path_211" data-name="Path 211" d="M654.134,744.493c9.035-2.259,22.265-7.422,24.846-5.163s13.23,18.393,16.78,22.911-1.613.968-5.486-2.582a49.319,49.319,0,0,0-7.1-5.485,61.018,61.018,0,0,1-9.358,7.1c-4.518,2.581-6.131-2.582-13.875-3.873s-27.106,5.486-27.106,5.486Z" transform="translate(-242.959 -335.659)" fill="#f09959"/>
    <path id="Path_212" data-name="Path 212" d="M452.857,549.775c-9.465.43-16.78,8.39-19.361,20.652s-10.111,51.2-10.111,51.2-1.506,1.076,14.2,3.872a75.634,75.634,0,0,0,28.612-.43s3.227-22.158,2.366-37.431-4.3-29.687-9.9-34.635S452.857,549.775,452.857,549.775Z" transform="translate(-120.309 -224.839)" fill="#75a1de"/>
    <path id="Path_213" data-name="Path 213" d="M582.786,469.257l7.529-26.89-17.64-9.465-2.695,7.98c-.586,26.715,6.257,35.65,10.869,38.917,1.44,1.02,2.679.232,3.718-1.434C583.809,473.52,582.786,469.257,582.786,469.257Z" transform="translate(-206.138 -156.582)" fill="#e38540"/>
    <path id="Path_214" data-name="Path 214" d="M622.7,405.789c0,14.392-1.718,32.039-14.2,31.623-19.361-.645-31.561-15.7-31.561-30.088s10.123-26.06,22.61-26.06S622.7,391.4,622.7,405.789Z" transform="translate(-210.233 -126.351)" fill="#f09959"/>
    <path id="Path_215" data-name="Path 215" d="M933.373,736.828h-72.58l29.854-65.679A5.369,5.369,0,0,1,895.535,668H961.4a2.1,2.1,0,0,1,1.908,2.964Z" transform="translate(-376.42 -294.226)" fill="#9bd6e8"/>
    <path id="Path_216" data-name="Path 216" d="M846.394,822.1H712.5a8.447,8.447,0,0,1,8.447-8.447H846.394Z" transform="translate(-289.597 -379.503)" fill="#9bd6e8"/>
    <path id="Path_217" data-name="Path 217" d="M972.449,668H914.4a5.369,5.369,0,0,0-4.888,3.147l-29.854,65.679H944.42l29.938-65.863A2.1,2.1,0,0,0,972.449,668Z" transform="translate(-387.466 -294.226)" fill="#7bcee8"/>
    <path id="Path_218" data-name="Path 218" d="M605.734,369.125c13.714-.968,21.835,11.563,24.2,22.534,1.707,7.916.861,9.465.861,9.465s-1.506,2.151-12.262,2.8-12.047.43-12.047.43l-.645-12.477-3.227,12.047s-1.721,2.367-8.39-.86-9.681-13.983-9.681-13.983-1.506-7.1,3.657-11.832S605.734,369.125,605.734,369.125Z" transform="translate(-214.566 -119.213)" fill="#303c60"/>
    <path id="Path_219" data-name="Path 219" d="M573.92,422.047c-1.315,8.705-8.264,14.873-15.52,13.777s-12.072-9.043-10.756-17.748,8.264-14.873,15.52-13.777S575.236,413.341,573.92,422.047Z" transform="translate(-192.955 -139.763)" fill="#d54a41"/>
    <path id="Path_220" data-name="Path 220" d="M568.6,423.744c-1.218,8.06-6.923,13.882-12.742,13s-9.549-8.127-8.331-16.187,6.923-13.882,12.742-13S569.823,415.683,568.6,423.744Z" transform="translate(-192.881 -141.693)" fill="#f39892"/>
    <path id="Path_221" data-name="Path 221" d="M565.2,430.133c-.669,4.428-3.082,7.736-5.389,7.388s-3.635-4.222-2.965-8.65,3.082-7.736,5.389-7.387S565.865,425.7,565.2,430.133Z" transform="translate(-198.365 -149.883)" fill="#f2e5de"/>
    <path id="Path_222" data-name="Path 222" d="M576.4,378.106c6.293-23.395,28.013-19.983,33.505-16.726,4.625,2.743,5.27,6.615,5.27,6.615s-5.97-4.841-16.134-3.065c-9.645,1.684-15.381,7.368-16.188,13.66C582.443,381.8,576.4,378.106,576.4,378.106Z" transform="translate(-209.917 -113.351)" fill="#d54a41"/>
    <g id="Group_51" data-name="Group 51" transform="translate(269.449 260.117)">
      <path id="Path_223" data-name="Path 223" d="M342.819,473.978l-.048,0a.5.5,0,0,1-.448-.542c.565-5.916,3.522-12,8.326-17.124,5.432-5.8,13.162-10.363,22.355-13.206,20.484-6.335,38.353-14.391,49.582-48.942a.5.5,0,1,1,.946.307c-5.161,15.88-12.185,27.44-21.475,35.344-8.193,6.971-17.423,10.734-28.76,14.241-9.028,2.792-16.609,7.265-21.923,12.936-4.654,4.967-7.517,10.84-8.061,16.538A.5.5,0,0,1,342.819,473.978Z" transform="translate(-342.321 -393.817)" fill="#303c60"/>
    </g>
    <g id="Group_52" data-name="Group 52" transform="translate(278.699 263.344)">
      <path id="Path_224" data-name="Path 224" d="M365.134,454.657a.5.5,0,0,1-.305-.89,59.726,59.726,0,0,1,21.495-9.558c24.3-5.353,40.608-19.963,47.172-42.249a.5.5,0,0,1,.955.281c-4.055,13.768-11.684,24.633-22.673,32.294a70.251,70.251,0,0,1-25.239,10.646,58.689,58.689,0,0,0-21.1,9.373A.5.5,0,0,1,365.134,454.657Z" transform="translate(-364.636 -401.602)" fill="#303c60"/>
    </g>
    <g id="Group_58" data-name="Group 58" transform="translate(460.451 230.712)">
      <path id="Path_225" data-name="Path 225" d="M1023.641,457.635H958.109a.753.753,0,0,1-.708-1.112L970.694,420a1.76,1.76,0,0,1,1.517-1.112h65.532a.752.752,0,0,1,.708,1.112l-13.292,36.521A1.76,1.76,0,0,1,1023.641,457.635Z" transform="translate(-893.39 -379.092)" fill="#9ec8ff"/>
      <path id="Path_226" data-name="Path 226" d="M1025.8,458.338H963.087a.7.7,0,0,1-.661-1.038l12.1-33.255a1.644,1.644,0,0,1,1.417-1.039h62.707a.7.7,0,0,1,.661,1.039l-12.1,33.255A1.643,1.643,0,0,1,1025.8,458.338Z" transform="translate(-896.334 -381.502)" fill="#fff"/>
      <path id="Path_227" data-name="Path 227" d="M1028.36,459.231H969.491a.79.79,0,0,1-.743-1.168L979.182,429.4a1.847,1.847,0,0,1,1.593-1.168h58.869a.79.79,0,0,1,.742,1.168l-10.433,28.666A1.847,1.847,0,0,1,1028.36,459.231Z" transform="translate(-900.03 -384.56)" fill="#9ec8ff"/>
      <ellipse id="Ellipse_18" data-name="Ellipse 18" cx="12.89" cy="8.975" rx="12.89" ry="8.975" transform="matrix(0.768, -0.641, 0.641, 0.768, 88.889, 60.538)" fill="#fff"/>
      <path id="Path_228" data-name="Path 228" d="M1050.6,452.542c-1.862,5.115-7.518,9.262-12.633,9.262s-7.753-4.147-5.891-9.262,7.518-9.262,12.633-9.262S1052.462,447.427,1050.6,452.542Z" transform="translate(-936.801 -393.371)" fill="#9ec8ff"/>
      <path id="Path_229" data-name="Path 229" d="M1055.137,458.908l-4.1,1.955-4.1,1.955,1.423-3.91,1.423-3.91,2.674,1.955Z" transform="translate(-945.855 -400.232)" fill="#fff"/>
      <g id="Group_53" data-name="Group 53" transform="translate(22.861 24.497)">
        <path id="Path_230" data-name="Path 230" d="M866.422,394.94h-5.163a3,3,0,0,1-2.517-1.212,3.268,3.268,0,0,1-.265-3.028l1.879-5.163a5.587,5.587,0,0,1,4.9-3.559h5.163a3,3,0,0,1,2.517,1.212,3.269,3.269,0,0,1,.265,3.028l-1.879,5.163A5.587,5.587,0,0,1,866.422,394.94Zm-1.17-10.971a3.64,3.64,0,0,0-3.027,2.25l-1.879,5.163a1.34,1.34,0,0,0,.025,1.205,1.053,1.053,0,0,0,.887.364h5.163a3.586,3.586,0,0,0,3.026-2.25l1.879-5.163a1.34,1.34,0,0,0-.025-1.206,1.052,1.052,0,0,0-.887-.363Z" transform="translate(-858.231 -381.979)" fill="#9cd499"/>
      </g>
      <g id="Group_54" data-name="Group 54" transform="translate(14.874 46.44)">
        <path id="Path_231" data-name="Path 231" d="M847.156,447.873h-5.163a3,3,0,0,1-2.517-1.212,3.268,3.268,0,0,1-.265-3.028l1.879-5.163a5.587,5.587,0,0,1,4.9-3.559h5.163a3,3,0,0,1,2.517,1.212,3.268,3.268,0,0,1,.265,3.028l-1.879,5.163A5.587,5.587,0,0,1,847.156,447.873Zm-1.17-10.971a3.64,3.64,0,0,0-3.026,2.25l-1.879,5.163a1.34,1.34,0,0,0,.026,1.206,1.051,1.051,0,0,0,.887.363h5.163a3.585,3.585,0,0,0,3.026-2.249l1.88-5.163a1.341,1.341,0,0,0-.026-1.206,1.053,1.053,0,0,0-.887-.363Z" transform="translate(-838.965 -434.912)" fill="#9cd499"/>
      </g>
      <g id="Group_55" data-name="Group 55" transform="translate(6.888 68.382)">
        <path id="Path_232" data-name="Path 232" d="M827.89,500.806h-5.163a3,3,0,0,1-2.517-1.212,3.268,3.268,0,0,1-.265-3.028l1.879-5.163a5.587,5.587,0,0,1,4.9-3.559h5.163a3,3,0,0,1,2.517,1.212,3.27,3.27,0,0,1,.265,3.028l-1.879,5.163A5.587,5.587,0,0,1,827.89,500.806Zm-1.169-10.971a3.586,3.586,0,0,0-3.026,2.25l-1.879,5.163a1.339,1.339,0,0,0,.026,1.206,1.051,1.051,0,0,0,.887.363h5.163a3.585,3.585,0,0,0,3.026-2.249L832.8,491.4a1.339,1.339,0,0,0-.026-1.206,1.051,1.051,0,0,0-.886-.363Z" transform="translate(-819.699 -487.845)" fill="#9ec8ff"/>
      </g>
      <path id="Path_233" data-name="Path 233" d="M939.4,400.327H911a.656.656,0,0,1-.616-.968,1.537,1.537,0,0,1,1.32-.968h28.4a.656.656,0,0,1,.616.968A1.537,1.537,0,0,1,939.4,400.327Z" transform="translate(-865.87 -367.091)" fill="#9ec8ff"/>
      <path id="Path_234" data-name="Path 234" d="M936,409.668H907.6a.656.656,0,0,1-.616-.968,1.537,1.537,0,0,1,1.32-.968h28.4a.656.656,0,0,1,.616.968A1.536,1.536,0,0,1,936,409.668Z" transform="translate(-863.88 -372.559)" fill="#9ec8ff"/>
      <path id="Path_235" data-name="Path 235" d="M921.55,449.368h-28.4a.656.656,0,0,1-.616-.968,1.537,1.537,0,0,1,1.32-.968h28.4a.656.656,0,0,1,.616.968A1.537,1.537,0,0,1,921.55,449.368Z" transform="translate(-855.42 -395.802)" fill="#9ec8ff"/>
      <path id="Path_236" data-name="Path 236" d="M918.15,458.709h-28.4a.656.656,0,0,1-.615-.968,1.536,1.536,0,0,1,1.32-.968h28.4a.656.656,0,0,1,.615.968A1.536,1.536,0,0,1,918.15,458.709Z" transform="translate(-853.43 -401.271)" fill="#9ec8ff"/>
      <path id="Path_237" data-name="Path 237" d="M901.717,503.858h-28.4a.656.656,0,0,1-.616-.968,1.537,1.537,0,0,1,1.32-.968h28.4a.656.656,0,0,1,.616.968A1.537,1.537,0,0,1,901.717,503.858Z" transform="translate(-843.808 -427.704)" fill="#9ec8ff"/>
      <path id="Path_238" data-name="Path 238" d="M898.318,513.2h-28.4a.656.656,0,0,1-.616-.968,1.537,1.537,0,0,1,1.32-.968h28.4a.656.656,0,0,1,.616.968A1.537,1.537,0,0,1,898.318,513.2Z" transform="translate(-841.818 -433.173)" fill="#9ec8ff"/>
      <g id="Group_56" data-name="Group 56" transform="translate(26.905 22.884)">
        <path id="Path_239" data-name="Path 239" d="M870.933,389.758a.994.994,0,0,1-.923-.623l-1.949-4.84a.995.995,0,1,1,1.846-.743l1.459,3.622,11.519-8.879a1,1,0,0,1,1.215,1.576l-12.559,9.681A1,1,0,0,1,870.933,389.758Z" transform="translate(-867.988 -378.087)" fill="#f37168"/>
      </g>
      <g id="Group_57" data-name="Group 57" transform="translate(18.919 44.826)">
        <path id="Path_240" data-name="Path 240" d="M851.666,442.691a1.006,1.006,0,0,1-.262-.035.994.994,0,0,1-.661-.589l-1.95-4.84a.995.995,0,1,1,1.846-.743l1.459,3.623,11.519-8.879a.995.995,0,1,1,1.215,1.576l-12.558,9.681A1,1,0,0,1,851.666,442.691Z" transform="translate(-848.722 -431.02)" fill="#f37168"/>
      </g>
      <path id="Path_241" data-name="Path 241" d="M1154.725,330.628H1045.658l2.819-7.744h109.067Z" transform="translate(-945.103 -322.883)" fill="#9ec8ff"/>
      <path id="Path_242" data-name="Path 242" d="M1144.525,358.651H1035.458l2.819-7.744h109.067Z" transform="translate(-939.131 -339.29)" fill="#9ec8ff"/>
      <path id="Path_243" data-name="Path 243" d="M891.933,588.24H811.841a1.29,1.29,0,0,1-1.21-1.9,3.021,3.021,0,0,1,2.6-1.9h80.092a1.29,1.29,0,0,1,1.21,1.9A3.021,3.021,0,0,1,891.933,588.24Z" transform="translate(-807.431 -476.013)" fill="#9ec8ff"/>
      <path id="Path_244" data-name="Path 244" d="M884.508,608.64H804.416a1.29,1.29,0,0,1-1.21-1.9,3.021,3.021,0,0,1,2.6-1.9h80.093a1.29,1.29,0,0,1,1.21,1.9A3.021,3.021,0,0,1,884.508,608.64Z" transform="translate(-803.084 -487.957)" fill="#9ec8ff"/>
    </g>
    <g id="Group_65" data-name="Group 65" transform="translate(600.317 301.918)">
      <path id="Path_245" data-name="Path 245" d="M1163.477,618.108c0-1.344,16.186-46.078,5.243-74.875-7.662-20.164-8.872-44.361-8.872-44.361s-14.922,21.374-4.839,54.039c6.205,20.105,8.738,25.675,9.275,31.59s-2.42,35.489-2.42,35.489Z" transform="translate(-1146.943 -497.124)" fill="#9cd499"/>
      <g id="Group_59" data-name="Group 59" transform="translate(4.089 1.25)">
        <path id="Path_246" data-name="Path 246" d="M1161.187,619.785a.5.5,0,0,1-.495-.547c.029-.3,2.946-29.594,2.419-35.394-.351-3.859-1.543-7.507-4.154-15.5-1.338-4.094-3-9.189-5.1-15.989-5.243-16.986-3.637-30.879-1.367-39.542,2.464-9.4,6.119-14.708,6.274-14.929a.5.5,0,0,1,.9.26c.012.241,1.3,24.353,8.84,44.209,4.092,10.769,4.914,24.97,2.442,42.208a210.461,210.461,0,0,1-7,30.551c-.342,1.145-.638,2.134-.658,2.315a.438.438,0,0,1-.119.3l-1.613,1.882A.5.5,0,0,1,1161.187,619.785Zm-2.411-120.035a54.538,54.538,0,0,0-5.337,13.362c-2.228,8.529-3.8,22.21,1.367,38.95,2.1,6.793,3.759,11.883,5.1,15.974,2.635,8.066,3.838,11.747,4.2,15.718.47,5.175-1.658,27.757-2.266,34.011l.492-.573c.058-.3.231-.886.674-2.365,9.347-31.248,10.887-55.513,4.576-72.121C1161.086,525.624,1159.2,505.436,1158.776,499.75Z" transform="translate(-1150.354 -497.672)" fill="#74b570"/>
      </g>
      <path id="Path_247" data-name="Path 247" d="M1188.372,620.21c-2.42-49.738,9.41-76.892,33.607-98.4s25.272-27.154,25.272-27.154-3.764,41.941-17.744,56.459-34.413,25.272-37.371,32.8-1.882,32.8-1.882,32.8l-1.882,4.571Z" transform="translate(-1168.343 -494.656)" fill="#9cd499"/>
      <path id="Path_248" data-name="Path 248" d="M1181.662,731.591c-.269-.807,5.108-46.511,24.734-49.2s24.2,1.882,37.639-.269a83.958,83.958,0,0,0,16.938-4.571s-5.092,12.959-22.584,18.282c-12.367,3.764-28.5-2.42-37.908-.807s-14.249,21.777-14.249,21.777l-1.613,10.485Z" transform="translate(-1164.589 -601.735)" fill="#9cd499"/>
      <g id="Group_60" data-name="Group 60" transform="translate(19.012 15.365)">
        <path id="Path_249" data-name="Path 249" d="M1187.1,639.452a.5.5,0,0,1-.495-.452c-.03-.321-2.814-32.431,10.814-57.015,7.039-12.7,14.726-20.058,22.161-27.176,6.925-6.63,13.466-12.893,18.426-22.813a.5.5,0,0,1,.89.445c-5.037,10.074-11.639,16.395-18.628,23.086-7.381,7.066-15.012,14.372-21.979,26.939-13.477,24.311-10.723,56.122-10.694,56.441a.5.5,0,0,1-.449.541Z" transform="translate(-1186.354 -531.722)" fill="#74b570"/>
      </g>
      <g id="Group_61" data-name="Group 61" transform="translate(17.919 80.706)">
        <path id="Path_250" data-name="Path 250" d="M1184.215,725.283a.488.488,0,0,1-.139-.02.5.5,0,0,1-.339-.616c5.146-17.739,11.053-28.088,18.587-32.57,6.736-4.008,13.7-2.778,21.069-1.475,1.8.319,3.669.649,5.516.891,16.017,2.1,23.827-1.792,23.9-1.831a.5.5,0,0,1,.456.884c-.324.168-8.123,4.08-24.49,1.933-1.868-.245-3.745-.577-5.56-.9-7.182-1.269-13.968-2.468-20.387,1.351-7.3,4.346-13.069,14.511-18.141,31.992A.5.5,0,0,1,1184.215,725.283Z" transform="translate(-1183.717 -689.347)" fill="#74b570"/>
      </g>
      <g id="Group_62" data-name="Group 62" transform="translate(43.594 36.873)">
        <path id="Path_251" data-name="Path 251" d="M1246.153,594.415a.5.5,0,0,1-.3-.891,60.262,60.262,0,0,1,22.928-9.908.5.5,0,0,1,.188.977,59.14,59.14,0,0,0-22.508,9.719A.5.5,0,0,1,1246.153,594.415Z" transform="translate(-1245.656 -583.607)" fill="#74b570"/>
      </g>
      <g id="Group_63" data-name="Group 63" transform="translate(28.404 48.165)">
        <path id="Path_252" data-name="Path 252" d="M1209.509,632.005a.5.5,0,0,1-.427-.751c7-11.806,15.2-14.781,33.079-20.385a.5.5,0,1,1,.3.949c-17.626,5.525-25.706,8.451-32.521,19.943A.5.5,0,0,1,1209.509,632.005Z" transform="translate(-1209.011 -610.846)" fill="#74b570"/>
      </g>
      <path id="Path_253" data-name="Path 253" d="M1165.045,798.693h-12.006a8.834,8.834,0,0,1-8.677-7.175l-3.871-20.248h37.1l-3.871,20.248A8.834,8.834,0,0,1,1165.045,798.693Z" transform="translate(-1140.491 -656.604)" fill="#f39892"/>
      <g id="Group_64" data-name="Group 64" transform="translate(0.215 117.838)">
        <path id="Path_254" data-name="Path 254" d="M1176.955,780.913H1142a.995.995,0,0,1,0-1.99h34.951a.995.995,0,0,1,0,1.99Z" transform="translate(-1141.009 -778.923)" fill="#d54a41"/>
      </g>
    </g>
  </g>
</svg>
