<svg xmlns="http://www.w3.org/2000/svg" xmlns:xlink="http://www.w3.org/1999/xlink" width="522.495" height="255.16" viewBox="0 0 522.495 255.16">
  <defs>
    <linearGradient id="linear-gradient" x1="0.5" x2="0.5" y2="1" gradientUnits="objectBoundingBox">
      <stop offset="0" stop-color="#0080ff"/>
      <stop offset="1" stop-color="#ffd0d0"/>
    </linearGradient>
  </defs>
  <g id="Group_104" data-name="Group 104" transform="translate(-1605.256 -173.302)">
    <path id="Path_255" data-name="Path 255" d="M1631.155,427.135s-43.77-54.275-17.508-105.923,76.16-39.393,146.192-91.917c85.019-63.764,144.718-67.268,220.6-39.393,42.895,15.757,49.9,80.537,118.179,120.806,61.555,36.3,11.38,98.045-21.01,107.674s-54.274,9.63-54.274,9.63Z" fill="url(#linear-gradient)"/>
    <path id="Path_256" data-name="Path 256" d="M2270.072,539.2c-10.925,22.177-24.622,82.776-28.357,86.1s-25.319,16.188-29.055,22.414-2.075,4.151-.415,4.566,95.465.83,95.465.83-10.791-64.335-12.037-64.75S2270.072,539.2,2270.072,539.2Z" transform="translate(-378.325 -228.752)" fill="#a2dff2"/>
    <path id="Path_257" data-name="Path 257" d="M2328.154,652.805c17.228.12,35.408.215,45.416.264l-13.7-81.946c-7.308-14.169-16.181-31.924-16.181-31.924-1.377,2.8-2.8,6.2-4.239,10.028-1.42,61.548,7.444,78.8.785,89.766C2335.039,647.551,2330.3,651.38,2328.154,652.805Z" transform="translate(-451.941 -228.752)" fill="#96cfe0"/>
    <path id="Path_258" data-name="Path 258" d="M2090.684,842.461h-450.44a3.475,3.475,0,0,1,0-6.949h450.44a3.475,3.475,0,1,1,0,6.949Z" transform="translate(-19.701 -414)" fill="#2e5b9a"/>
    <path id="Path_259" data-name="Path 259" d="M2426.892,467.79c15.581,14.382,50.261,28.02,50.261,28.02s5.269,48.683,1.673,76.248-1.6,33.158-1.6,33.158h-71.509s-9.6-13.318-27.166-54.731c-11.185-26.367-9.188-55.929-9.188-55.929l43.544-19.575Z" transform="translate(-477.619 -184.108)" fill="#a2dff2"/>
    <path id="Path_260" data-name="Path 260" d="M2452.167,654.258h71.509s-2-5.593,1.6-33.158c2.96-22.7-.089-59.713-1.258-72.078l-6.5-2.787c-16.327,4.7-25.735,29.056-28.5,52.854-1.853,15.923-28.232,31.6-45.489,40.229C2449.191,650.127,2452.167,654.258,2452.167,654.258Z" transform="translate(-524.065 -233.151)" fill="#96cfe0"/>
    <path id="Path_261" data-name="Path 261" d="M2414.081,334.475c-8.621,19.2,1.726,36.984,1.412,36.234s13.047-32.415,13.047-32.415Z" transform="translate(-503.511 -100.762)" fill="#2e5b9a"/>
    <path id="Path_262" data-name="Path 262" d="M2476.324,372.351l10.933,39.959a3.621,3.621,0,0,1-.691,3.237c-2.565,3.158-6.216,9.656-13.581,11.74a18.256,18.256,0,0,1-4.625.519,3.121,3.121,0,0,1-3.081-2.525l-7.325-37.9Z" transform="translate(-533.09 -124.441)" fill="#f09959"/>
    <path id="Path_263" data-name="Path 263" d="M2474.237,381.261l-4,1.638-12.286,10.052,6.6,33.6C2475.734,419.579,2477.364,414.874,2474.237,381.261Z" transform="translate(-533.09 -130.012)" fill="#e38540"/>
    <path id="Path_264" data-name="Path 264" d="M2446.935,363.036c-2.42,13.145-12.257,22.035-21.971,19.856s-14.348-10.686-13.207-27.745c.9-13.383,7.494-27.93,17.208-25.751S2449.354,349.891,2446.935,363.036Z" transform="translate(-504.102 -97.451)" fill="#f09959"/>
    <path id="Path_265" data-name="Path 265" d="M2533.145,541.987c14.469,3.267,17.157,32.654,21.861,63.646.541,3.567,3.321,33.761,3.321,33.761a9.241,9.241,0,0,1-5.258,8.3c-4.729,2.364-6.642,4.151-34.037,4.428-26.311.266-60.234-.83-60.234-.83s-.3-9.79,2.4-14.574c4.059-7.195,45.659-17.526,49.535-18.079.553-7.748-3.821-35.783,2.213-54.791,4.152-13.076,8.614-19.924,14.2-21.714A11.221,11.221,0,0,1,2533.145,541.987Z" transform="translate(-533.61 -230.285)" fill="#a2dff2"/>
    <path id="Path_266" data-name="Path 266" d="M2498.506,663.41c12.971.195,30.771.381,45.356.234,27.4-.277,29.308-2.063,34.037-4.428,5.534-2.767,5.811-7.471,5.811-7.471s-2.8-32.128-3.32-35.7c-3.044-20.754-6.333-44.5-13.988-55.967a156.471,156.471,0,0,1,8.482,46.486,46.3,46.3,0,0,1-1.412,12.8c-1.245,4.081-4.428,6.641-9.409,5.258-9.962-2.767-22.415,3.044-22.415,3.044s9.408-3.321,18.264-.277,27.119,23.245,7.195,30.716C2561.01,660.4,2524.492,662.26,2498.506,663.41Z" transform="translate(-558.441 -241.806)" fill="#96cfe0"/>
    <path id="Path_267" data-name="Path 267" d="M2463.427,787.283a13.718,13.718,0,0,1,11.254-6.272c7.563,0,7.01,12.36,5.9,16.419s-5.535,4.243-5.535,4.243l-16.234-.738Z" transform="translate(-533.627 -379.927)" fill="#96cfe0"/>
    <path id="Rectangle_10" data-name="Rectangle 10" d="M3.209,0H104.746a3.21,3.21,0,0,1,3.21,3.21v0a3.209,3.209,0,0,1-3.209,3.209H3.209A3.209,3.209,0,0,1,0,3.21v0A3.209,3.209,0,0,1,3.209,0Z" transform="translate(1808.193 418.144)" fill="#75a1de"/>
    <path id="Path_268" data-name="Path 268" d="M2397.939,790.493c-15.865-5.719-20.027-3.566-23.613-4.612-8.855-2.582-11.069-.369-16.788,15.312-1.139,3.125,2.213,3.321,5.534,3.321s7.379-6.457,8.671-7.195,4.8-1.107,4.8-1.107-1.107,0-2.767,3.321-3.689,4.612-1.107,4.612,2.952-4.243,7.748-3.321,2.951,3.321,14.943,3.136,21.041,0,20.846-7.2c-.184-6.826.571-10.239-5.9-11.437C2405.319,784.405,2397.939,790.493,2397.939,790.493Z" transform="translate(-470.169 -382.399)" fill="#f09959"/>
    <path id="Path_269" data-name="Path 269" d="M2465.953,792.637c10.607-1.2,7.495,12.015,6.388,13.121s5.906.389,5.906.389a12.81,12.81,0,0,0,.528-11.389,10.343,10.343,0,0,0-8.3-6.364l-4.7,2.582Z" transform="translate(-537.974 -384.543)" fill="#a86b48"/>
    <path id="Path_270" data-name="Path 270" d="M2475.893,790.8c-.137,1.638-2.92,2.742-6.216,2.467s-5.857-1.826-5.72-3.464,2.919-2.742,6.215-2.466S2476.029,789.16,2475.893,790.8Z" transform="translate(-536.838 -383.854)" fill="#2e5b9a"/>
    <path id="Path_271" data-name="Path 271" d="M2475.762,789.249c-.122,1.463-2.607,2.45-5.553,2.2s-5.232-1.632-5.111-3.095,2.608-2.45,5.554-2.2S2475.886,787.785,2475.762,789.249Z" transform="translate(-537.553 -383.119)" fill="#3e6bab"/>
    <path id="Path_272" data-name="Path 272" d="M2475.84,788.9c-.087,1.053-1.877,1.763-4,1.586s-3.767-1.174-3.679-2.227,1.877-1.763,4-1.586S2475.928,787.849,2475.84,788.9Z" transform="translate(-539.47 -383.451)" fill="#f0ceb4"/>
    <g id="Group_67" data-name="Group 67" transform="translate(1679.472 307.282)">
      <path id="Path_273" data-name="Path 273" d="M1931.044,627.761h-103.1a11.281,11.281,0,0,1-11.053-9.335L1803.448,544.2a11.348,11.348,0,0,1,11.053-13.452h103.1a11.281,11.281,0,0,1,11.053,9.335L1942.1,614.31A11.348,11.348,0,0,1,1931.044,627.761Z" transform="translate(-1803.26 -530.753)" fill="#75a1de"/>
      <path id="Path_274" data-name="Path 274" d="M1935.86,617.936l-13.722-72.686a11.389,11.389,0,0,0-11.281-9.142H1806.085a11.578,11.578,0,0,0-2.631,9.691l13.919,75.779a11.632,11.632,0,0,0,11.441,9.531h95.766A11.252,11.252,0,0,0,1935.86,617.936Z" transform="translate(-1803.26 -534.101)" fill="#a8ceff"/>
      <path id="Path_275" data-name="Path 275" d="M1996.912,726.385h-19.571c-3.491,0-6.32-3.108-6.32-6.943V683.658c0-6.1-4.5-11.051-10.06-11.051h-10.224c-5.556,0-10.059,4.948-10.059,11.051v40.074c0,6.853,5.077,12.4,11.314,12.353l53.415-.366C2005.408,730.563,2001.6,726.385,1996.912,726.385Z" transform="translate(-1889.172 -619.437)" fill="#75a1de"/>
      <path id="Path_276" data-name="Path 276" d="M1942.755,686.083v39.46a12.163,12.163,0,0,0,11.279,12.129l52.129-.326c-.005-.854-4.115-2.41-9.19-2.41H1975.8a6.837,6.837,0,0,1-6.837-6.837V686.083a10.881,10.881,0,0,0-10.881-10.881h-4.446A10.882,10.882,0,0,0,1942.755,686.083Z" transform="translate(-1890.469 -621.06)" fill="#a8ceff"/>
    </g>
    <path id="Path_277" data-name="Path 277" d="M2218.134,799.544c7.879-4.377,17.506-2.918,21.008,1.459s4.085,7.294-3.793,7.294-23.633.584-26.26.292S2218.134,799.544,2218.134,799.544Z" transform="translate(-377.263 -389.861)" fill="#f09959"/>
    <path id="Path_278" data-name="Path 278" d="M2265,796.154c8.461-2.042,14.242,2.881,21.3,7.586,6.128,4.085,7.359,8.056.584,4.668-9.92-4.96-15.756-5.544-15.756-5.544Z" transform="translate(-412.458 -389.097)" fill="#f09959"/>
    <path id="Path_279" data-name="Path 279" d="M2207.343,801.975c-4.274,0-8-1.362-11.02-1.111s-12.568,10.054-11.06,10.809a3.4,3.4,0,0,0,.353.15,5.146,5.146,0,0,0,6.1-2.141c1.351-2.169,3.55-4.693,6.11-3.79a27.167,27.167,0,0,0,8.757,1.363Z" transform="translate(-362.508 -392.319)" fill="#f09959"/>
    <path id="Path_280" data-name="Path 280" d="M2235.4,804.722c-4.376-1.751,2.626-16.339,4.96-16.339s11.087,7,11.087,7-2.059,1.162-9.045-1.167c-1.751-.584-3.209,9.337-5.251,10.5S2235.4,804.722,2235.4,804.722Z" transform="translate(-393.074 -384.536)" fill="#f7a96f"/>
    <path id="Path_281" data-name="Path 281" d="M2403.841,346.548c-.406,16.065,5.066,18.781,8.9,20.963s20.321-1.422,22.743-5.4c6.193-10.165.98-19.643,2.365-19.5s2.652,4.1,6.265,9.236c.337.478,2.683,3.652,2.806,2.6,1.677-14.386,9.167-18.853,7.384-33.4-1.314-10.726-8.124-9.875-8.124-9.875s-4.392-8.976-18.065-7.956c-9.162.683-17.328,4.252-26.771,6.682s11.171,23.835,23.421,16.015,6.2,9.405,8.134,10.741.93.177,1.815,8.992-10.307,14.569-13.516,15.324c-10.258,2.413-11.974.72-14.22-3.142C2405.024,354.474,2403.841,346.548,2403.841,346.548Z" transform="translate(-496.192 -81.168)" fill="#2e5b9a"/>
    <path id="Path_282" data-name="Path 282" d="M2510.8,390.713c-1.177,4.049-4.054,6.664-6.424,5.842s-2.441-4.112-2.163-8.819c.252-4.244,4.053-6.664,6.423-5.842S2511.973,386.664,2510.8,390.713Z" transform="translate(-560.686 -130.307)" fill="#f09959"/>
    <g id="Group_72" data-name="Group 72" transform="translate(1636.646 208.398)">
      <g id="Group_69" data-name="Group 69" transform="translate(0 0)">
        <path id="Rectangle_11" data-name="Rectangle 11" d="M4.6,0H86.424a4.6,4.6,0,0,1,4.6,4.6V36.533a4.6,4.6,0,0,1-4.6,4.6H4.6a4.6,4.6,0,0,1-4.6-4.6V4.6A4.6,4.6,0,0,1,4.6,0Z" fill="#b7e1ff"/>
        <path id="Rectangle_12" data-name="Rectangle 12" d="M3.719,0H82.331A3.719,3.719,0,0,1,86.05,3.719V24.68A3.719,3.719,0,0,1,82.331,28.4H3.72A3.72,3.72,0,0,1,0,24.679V3.719A3.719,3.719,0,0,1,3.719,0Z" transform="translate(2.489 10.808)" fill="#fff"/>
        <g id="Group_68" data-name="Group 68" transform="translate(3.753 3.027)">
          <rect id="Rectangle_13" data-name="Rectangle 13" width="3.566" height="3.21" rx="1.605" fill="#fff"/>
          <path id="Rectangle_14" data-name="Rectangle 14" d="M1.6,0h.357a1.6,1.6,0,0,1,1.6,1.6v0a1.6,1.6,0,0,1-1.6,1.6H1.6A1.6,1.6,0,0,1,0,1.6v0A1.6,1.6,0,0,1,1.6,0Z" transform="translate(6.484)" fill="#fff"/>
          <path id="Rectangle_15" data-name="Rectangle 15" d="M1.6,0h.357a1.6,1.6,0,0,1,1.6,1.6v0a1.6,1.6,0,0,1-1.6,1.6H1.6A1.6,1.6,0,0,1,0,1.6v0A1.6,1.6,0,0,1,1.6,0Z" transform="translate(12.968)" fill="#fff"/>
        </g>
        <path id="Path_283" data-name="Path 283" d="M1837.688,307.836h-45.516a1.362,1.362,0,1,1,0-2.723h45.516a1.362,1.362,0,1,1,0,2.723Z" transform="translate(-1752.65 -290.804)" fill="#b7e1ff"/>
        <path id="Path_284" data-name="Path 284" d="M1746.352,363.883h-45.516a1.362,1.362,0,1,1,0-2.723h45.516a1.362,1.362,0,1,1,0,2.723Z" transform="translate(-1695.549 -325.843)" fill="#b7e1ff"/>
        <rect id="Rectangle_16" data-name="Rectangle 16" width="5.641" height="2.723" rx="1.242" transform="translate(54.013 35.317)" fill="#b7e1ff"/>
        <rect id="Rectangle_17" data-name="Rectangle 17" width="5.641" height="2.723" rx="1.242" transform="translate(61.113 35.317)" fill="#b7e1ff"/>
        <path id="Path_285" data-name="Path 285" d="M1789.784,325.124H1714.41a.924.924,0,0,1,0-1.848h75.374a.924.924,0,1,1,0,1.848Z" transform="translate(-1704.309 -302.159)" fill="#b7e1ff"/>
        <path id="Path_286" data-name="Path 286" d="M1789.784,335.763H1714.41a.924.924,0,0,1,0-1.848h75.374a.924.924,0,1,1,0,1.848Z" transform="translate(-1704.309 -308.81)" fill="#b7e1ff"/>
      </g>
      <g id="Group_71" data-name="Group 71" transform="translate(20.569 28.884)">
        <path id="Rectangle_18" data-name="Rectangle 18" d="M4.605,0H86.424a4.6,4.6,0,0,1,4.6,4.6V36.533a4.605,4.605,0,0,1-4.605,4.605H4.605A4.605,4.605,0,0,1,0,36.532V4.605A4.605,4.605,0,0,1,4.605,0Z" fill="#9ec8ff"/>
        <path id="Rectangle_19" data-name="Rectangle 19" d="M3.719,0H82.331a3.72,3.72,0,0,1,3.72,3.72V24.68A3.719,3.719,0,0,1,82.331,28.4H3.72A3.72,3.72,0,0,1,0,24.679V3.719A3.719,3.719,0,0,1,3.719,0Z" transform="translate(2.489 10.808)" fill="#fff"/>
        <g id="Group_70" data-name="Group 70" transform="translate(3.753 3.027)">
          <path id="Rectangle_20" data-name="Rectangle 20" d="M1.6,0h.357a1.6,1.6,0,0,1,1.6,1.6v0a1.6,1.6,0,0,1-1.6,1.6H1.6A1.6,1.6,0,0,1,0,1.6v0A1.6,1.6,0,0,1,1.6,0Z" fill="#fff"/>
          <rect id="Rectangle_21" data-name="Rectangle 21" width="3.566" height="3.21" rx="1.605" transform="translate(6.484)" fill="#fff"/>
          <path id="Rectangle_22" data-name="Rectangle 22" d="M1.6,0h.357A1.605,1.605,0,0,1,3.567,1.605v0a1.6,1.6,0,0,1-1.6,1.6H1.605A1.605,1.605,0,0,1,0,1.6v0A1.6,1.6,0,0,1,1.6,0Z" transform="translate(12.967)" fill="#fff"/>
        </g>
        <path id="Path_287" data-name="Path 287" d="M1892.564,384.9h-45.517a1.362,1.362,0,1,1,0-2.723h45.517a1.362,1.362,0,0,1,0,2.723Z" transform="translate(-1807.526 -367.864)" fill="#9ec8ff"/>
        <path id="Path_288" data-name="Path 288" d="M1801.23,440.943h-45.516a1.362,1.362,0,0,1,0-2.723h45.516a1.362,1.362,0,1,1,0,2.723Z" transform="translate(-1750.426 -402.903)" fill="#9ec8ff"/>
        <rect id="Rectangle_23" data-name="Rectangle 23" width="5.641" height="2.723" rx="1.242" transform="translate(54.013 35.317)" fill="#9ec8ff"/>
        <rect id="Rectangle_24" data-name="Rectangle 24" width="5.641" height="2.723" rx="1.242" transform="translate(61.113 35.317)" fill="#9ec8ff"/>
        <path id="Path_289" data-name="Path 289" d="M1844.661,402.185h-75.374a.924.924,0,1,1,0-1.848h75.374a.924.924,0,1,1,0,1.848Z" transform="translate(-1759.185 -379.22)" fill="#9ec8ff"/>
        <path id="Path_290" data-name="Path 290" d="M1844.661,412.823h-75.374a.924.924,0,1,1,0-1.847h75.374a.924.924,0,1,1,0,1.847Z" transform="translate(-1759.185 -385.871)" fill="#9ec8ff"/>
      </g>
    </g>
    <g id="Group_74" data-name="Group 74" transform="translate(1756.996 256.538)">
      <path id="Path_291" data-name="Path 291" d="M2033.72,407.187a11.816,11.816,0,1,1-11.816-11.816A11.816,11.816,0,0,1,2033.72,407.187Z" transform="translate(-2010.088 -395.371)" fill="#9cd499"/>
      <g id="Group_73" data-name="Group 73" transform="translate(6.534 7.672)">
        <path id="Path_292" data-name="Path 292" d="M2031.63,424.35h-.033a.9.9,0,0,1-.642-.3l-3.21-3.647a.9.9,0,0,1,1.351-1.188l2.583,2.935,6.179-6.047a.9.9,0,0,1,1.258,1.286l-6.856,6.711A.9.9,0,0,1,2031.63,424.35Z" transform="translate(-2027.521 -415.84)" fill="#fff"/>
      </g>
    </g>
    <g id="Group_76" data-name="Group 76" transform="translate(1777.703 179.621)">
      <path id="Rectangle_25" data-name="Rectangle 25" d="M9.342,0h63.45a9.342,9.342,0,0,1,9.342,9.342V24.5a9.342,9.342,0,0,1-9.342,9.342H9.341A9.341,9.341,0,0,1,0,24.5V9.342A9.342,9.342,0,0,1,9.342,0Z" transform="translate(0 0)" fill="#9ec8ff"/>
      <path id="Path_293" data-name="Path 293" d="M2091.8,262.09v18.674l21.518-21.518S2092.241,262.09,2091.8,262.09Z" transform="translate(-2081.883 -233.351)" fill="#9ec8ff"/>
      <path id="Rectangle_26" data-name="Rectangle 26" d="M7.919,0h57.8a7.919,7.919,0,0,1,7.919,7.919v11.3a7.919,7.919,0,0,1-7.919,7.919H7.921A7.921,7.921,0,0,1,0,19.214V7.919A7.919,7.919,0,0,1,7.919,0Z" transform="translate(4.248 3.355)" fill="#fff"/>
      <path id="Path_294" data-name="Path 294" d="M2125.745,212.149h-33.262a1.459,1.459,0,1,1,0-2.918h33.262a1.459,1.459,0,1,1,0,2.918Z" transform="translate(-2081.395 -202.083)" fill="#9ec8ff"/>
      <rect id="Rectangle_27" data-name="Rectangle 27" width="63.314" height="1.639" rx="0.819" transform="translate(9.629 14.005)" fill="#9ec8ff"/>
      <rect id="Rectangle_28" data-name="Rectangle 28" width="63.314" height="1.639" rx="0.819" transform="translate(9.629 17.18)" fill="#9ec8ff"/>
      <g id="Group_75" data-name="Group 75" transform="translate(56.587 26.113)">
        <path id="Rectangle_29" data-name="Rectangle 29" d="M1.6,0h.357a1.6,1.6,0,0,1,1.6,1.6v0a1.6,1.6,0,0,1-1.6,1.6H1.6A1.6,1.6,0,0,1,0,1.6v0A1.6,1.6,0,0,1,1.6,0Z" fill="#9ec8ff"/>
        <rect id="Rectangle_30" data-name="Rectangle 30" width="3.566" height="3.21" rx="1.605" transform="translate(6.484)" fill="#9ec8ff"/>
        <rect id="Rectangle_31" data-name="Rectangle 31" width="3.566" height="3.21" rx="1.605" transform="translate(12.968)" fill="#9ec8ff"/>
      </g>
    </g>
  </g>
</svg>
