<svg xmlns="http://www.w3.org/2000/svg" xmlns:xlink="http://www.w3.org/1999/xlink" width="494.864" height="298.972" viewBox="0 0 494.864 298.972">
  <defs>
    <linearGradient id="linear-gradient" x1="0.5" x2="0.5" y2="1" gradientUnits="objectBoundingBox">
      <stop offset="0" stop-color="#217eff"/>
      <stop offset="1" stop-color="#fcc"/>
    </linearGradient>
    <filter id="Path_295" x="0" y="0" width="494.864" height="298.972" filterUnits="userSpaceOnUse">
      <feOffset dy="3" input="SourceAlpha"/>
      <feGaussianBlur stdDeviation="3" result="blur"/>
      <feFlood flood-opacity="0.161"/>
      <feComposite operator="in" in2="blur"/>
      <feComposite in="SourceGraphic"/>
    </filter>
  </defs>
  <g id="Group_102" data-name="Group 102" transform="translate(-1672.054 -1075.764)">
    <g transform="matrix(1, 0, 0, 1, 1672.05, 1075.76)" filter="url(#Path_295)">
      <path id="Path_295-2" data-name="Path 295" d="M1744.354,1361.59s-113.952-71.578-36.075-148.309,182.093-155.18,251.953-124.831,63.576,68.715,140.308,124.259,58.98,99.636,45.237,121.968-16.033,28.058-16.033,28.058Z" transform="translate(-1672.05 -1075.76)" fill="url(#linear-gradient)"/>
    </g>
    <path id="Path_296" data-name="Path 296" d="M2020.551,1263.4c16.873-15.028,29.265-6.064,38.494,3.955,7.356,7.986,8.382,9.756,14.459,18.03a7.263,7.263,0,0,1,1.624,4.117c.171,9.147,4.851,47.822-.352,61.168-6.064,15.556-80.854,22.674-80.854,22.674Z" transform="translate(-189.159 -104.982)" fill="#303c60"/>
    <g id="Group_78" data-name="Group 78" transform="translate(1878.519 1182.168)">
      <path id="Path_297" data-name="Path 297" d="M2181.226,1408.07a.771.771,0,0,1-.038-1.541,7.169,7.169,0,0,0,5.522-3.05c8.385-10.865,3.671-47.138-.438-66.858a.771.771,0,1,1,1.509-.315,264.437,264.437,0,0,1,4.834,35.519c.962,16.355-.614,27.322-4.685,32.6a8.736,8.736,0,0,1-6.665,3.648Z" transform="translate(-2180.456 -1335.693)" fill="#303c60"/>
    </g>
    <path id="Path_298" data-name="Path 298" d="M1947.483,1264.3c-32.429,17.929-12.655,78.569-53.786,100.189-11.395,5.989-46.4,36.384-23.465,76.46,15,26.214,59.85,20.565,74.614-2.636S1947.483,1264.3,1947.483,1264.3Z" transform="translate(-109.763 -110.358)" fill="#303c60"/>
    <g id="Group_79" data-name="Group 79" transform="translate(1750.646 1176.631)">
      <path id="Path_299" data-name="Path 299" d="M1857.829,1436.867a.753.753,0,0,1-.1-.007.77.77,0,0,1-.662-.865,44.381,44.381,0,0,1,3.969-12.084,53.005,53.005,0,0,1,19.407-21.861c19.031-12.111,31.664-23.524,46.6-79.786a.771.771,0,1,1,1.49.4c-7.218,27.187-14.374,45.566-22.521,57.84-7.565,11.4-15.35,16.875-24.741,22.851a50.673,50.673,0,0,0-22.675,32.847A.771.771,0,0,1,1857.829,1436.867Z" transform="translate(-1857.057 -1321.691)" fill="#303c60"/>
    </g>
    <g id="Group_80" data-name="Group 80" transform="translate(1751.357 1172.149)">
      <path id="Path_300" data-name="Path 300" d="M1859.624,1414.31a.771.771,0,0,1-.651-1.182,58.743,58.743,0,0,1,17.8-18.148c26.726-17.283,31.148-27.219,53.222-84.132a.771.771,0,1,1,1.437.557c-11.036,28.455-17.632,45.129-24.846,56.947-7.748,12.692-16.492,19.849-28.976,27.922a57.21,57.21,0,0,0-17.336,17.677A.771.771,0,0,1,1859.624,1414.31Z" transform="translate(-1858.854 -1310.355)" fill="#303c60"/>
    </g>
    <path id="Path_301" data-name="Path 301" d="M2059.848,1360c-11.166,23.19-9.448,44.232-9.448,44.232s1.288,8.16,6.442,9.878,12.454-3.436,12.024-10.307,1.718-23.619,4.294-29.631S2059.848,1360,2059.848,1360Z" transform="translate(-223.248 -168.222)" fill="#f09959"/>
    <path id="Path_302" data-name="Path 302" d="M1925.241,1741.706c.7,6.328-.879,5.8,4.746,6.855s15.643-2.812,15.643-2.812l-11.249-20.917Z" transform="translate(-147.635 -388.798)" fill="#6791c9"/>
    <path id="Path_303" data-name="Path 303" d="M1974.135,1440.371c-3.163,10.282-26.891,2.373-35.2,4.746s-15.423,37.174-16.61,68.415.4,56.155,3.559,60.11,55.365,5.536,60.11,3.955-39.546-21.355-39.546-21.355-2.768-36.383.791-54.969,35.592-43.106,35.592-43.106Z" transform="translate(-145.636 -216.813)" fill="#f09959"/>
    <path id="Path_304" data-name="Path 304" d="M2078.328,1448.373c8.3,12.654,30.055,11.073,37.569,21.355s23.332,66.833,23.332,66.833l16.61-57.342s13.47-2.263,9.1,7.118c-7.78,16.684-10.68,70.514-19.117,78.159-9.383,8.5-18.719,1.582-23.988-13.3-5.1-14.4-17.8-45.478-26.891-57.342S2075.955,1463,2075.955,1463Z" transform="translate(-238.756 -221.651)" fill="#f09959"/>
    <path id="Path_305" data-name="Path 305" d="M1946.021,1449.875c16.609,19.378,49.037,18.587,56.156,16.214l7.118-2.373s5.536-1.977,10.282,3.559,16.214,40.337,18.191,48.246,5.141,20.96,5.141,20.96-8.484,10.183-8.484,20.466,3.6,10.37,3.6,10.37-10.542-2.363-12.915-8.69-23.728-63.67-23.728-63.67l-58.924,1.187.791,64.856s-5.141-4.746-12.259,0-9.491,15.818-8.3,17.4-2.373,1.582-2.373.4-6.723-30.055-1.977-77.511,13.841-52.6,18.982-52.992A16.7,16.7,0,0,1,1946.021,1449.875Z" transform="translate(-142.437 -221.571)" fill="#75a1de"/>
    <g id="Group_81" data-name="Group 81" transform="translate(1864.389 1260.981)">
      <path id="Path_306" data-name="Path 306" d="M2217.53,1747.322a.62.62,0,0,0,.177.038S2217.642,1747.347,2217.53,1747.322Z" transform="translate(-2188.741 -1663.376)" fill="#6791c9"/>
      <path id="Path_307" data-name="Path 307" d="M2175.792,1590.384c-3.428,1.055-9.229,13.183-9.229,13.183s-13.183-28.739-17.137-68.55l-4.706,27.008c6.5,17.441,16.692,44.808,18.289,49.066,2.17,5.788,10.923,8.2,12.124,8.471-.328-.111-1.053-.55-1.654-2.287-.346-.316-2.326-1.241-2.7-1.581-3.164-2.9-1.845-9.755.264-17.4S2179.219,1589.329,2175.792,1590.384Z" transform="translate(-2144.72 -1535.017)" fill="#6791c9"/>
    </g>
    <path id="Path_308" data-name="Path 308" d="M1969.051,1523.555l-6.536-29.881c-7.119,10.02-7.91,44.294-5.009,67.759,2.379,19.244,5.937,24.238,8.381,26.244a7.126,7.126,0,0,1,1.119.791l-.791-64.856Z" transform="translate(-166.189 -249.04)" fill="#6791c9"/>
    <path id="Path_309" data-name="Path 309" d="M1941.244,1493.008c12.128,32.693,6.064,39.284,22.024,77.657,8.913,21.432,26.1,37.569,26.1,37.569a109.194,109.194,0,0,0,31.242,2.372c17.4-1.186,30.139-2.382,30.139-2.382s-18.275-11.064-19.066-18.578-4.224-37.317.259-58.41c3.5-16.47-10.937-32.942-10.937-32.942l-24.123-1.186Z" transform="translate(-157.31 -248.638)" fill="#75a1de"/>
    <path id="Path_310" data-name="Path 310" d="M1994.864,1615.359c-2.109-7.646,8.964,2.373,27.156,4.219s38.494-1.055,28.475,2.109-37.439-1.582-32.429,8.437c5.9,11.791,12.856,23.2,22.937,30.057,6.591,4.482,22.41,8.7,7.119,6.328s-31.638-20.3-38.757-31.9S1995.334,1617.064,1994.864,1615.359Z" transform="translate(-189.574 -320.895)" fill="#6791c9" opacity="0.5"/>
    <path id="Path_311" data-name="Path 311" d="M2078.58,1403.2c.16-7.893,2.085-21.363,4.338-26.621,1.846-4.308-5.785-9.717-10.263-12.438l-3.786-.162q-.865,1.885-1.623,3.746c-4,26.247,7.965,37.093,13.674,39.276a17.266,17.266,0,0,0,7.584.833A45.993,45.993,0,0,1,2078.58,1403.2Z" transform="translate(-233.006 -170.624)" fill="#e38540"/>
    <g id="Group_82" data-name="Group 82" transform="translate(1821.112 1228.378)">
      <path id="Path_312" data-name="Path 312" d="M2052.488,1468.425a17.83,17.83,0,0,1-4.209-.51c-3.3-.8-11.172-3.862-13-14.845a.437.437,0,1,1,.862-.144c1.745,10.471,9.216,13.377,12.347,14.14,4.865,1.186,10.026.088,12.007-2.554,1.589-2.118.635-6.631.626-6.676a.437.437,0,1,1,.854-.185c.044.2,1.048,4.947-.781,7.385C2059.571,1467.2,2056.228,1468.425,2052.488,1468.425Z" transform="translate(-2035.27 -1452.561)" fill="#f5ce5c"/>
    </g>
    <path id="Path_313" data-name="Path 313" d="M2114.156,1340.573c-2.682,14.165-8.878,25.592-19.363,23.439s-21.507-17.116-18.605-31.239,13.752-23.824,24.237-21.671S2117.729,1321.7,2114.156,1340.573Z" transform="translate(-238.612 -138.477)" fill="#f09959"/>
    <path id="Path_314" data-name="Path 314" d="M2235.879,1563.022s-19.379,52.072-20.3,57.477.922,8.833,1.45,8.833,17.006-28.211,17.006-28.211Z" transform="translate(-323.018 -290.968)" fill="#f09959"/>
    <path id="Path_315" data-name="Path 315" d="M2267.967,1538.967c1.582-5.273-.879-11.952-.879-11.952l7.031.879Z" transform="translate(-354.315 -269.198)" fill="#f09959"/>
    <g id="Group_83" data-name="Group 83" transform="translate(1899.979 1215.692)">
      <path id="Path_316" data-name="Path 316" d="M2256.129,1465.561H2236.51a1.78,1.78,0,0,1-1.705-2.288l12.384-41.524a1.781,1.781,0,0,1,1.706-1.271h19.618a1.779,1.779,0,0,1,1.7,2.289l-12.384,41.523A1.779,1.779,0,0,1,2256.129,1465.561Z" transform="translate(-2234.73 -1420.478)" fill="#4381db"/>
      <path id="Path_317" data-name="Path 317" d="M2262.352,1465.561h-19.618a1.779,1.779,0,0,1-1.706-2.288l12.384-41.524a1.779,1.779,0,0,1,1.705-1.271h19.618a1.78,1.78,0,0,1,1.705,2.289l-12.384,41.523A1.779,1.779,0,0,1,2262.352,1465.561Z" transform="translate(-2238.492 -1420.478)" fill="#2e5b9a"/>
      <path id="Path_318" data-name="Path 318" d="M2254.259,1437.784c-2.091,7.536-3.5,13.725-3.144,13.823s2.338-5.931,4.429-13.467,3.5-13.724,3.145-13.823S2256.35,1430.249,2254.259,1437.784Z" transform="translate(-2244.603 -1422.799)" fill="#9cbeed"/>
    </g>
    <path id="Path_319" data-name="Path 319" d="M2282.166,1495.044c.58-6.848,6.512-13.266,8.768-15.314A3.24,3.24,0,0,0,2292,1477.3c-.033-3.413-.184-11.471-.89-12.412-.9-1.2-3.146-16.626-4.194-16.026s.3,14.079.3,14.079-2.546-1.2-3.894-1.8-6.89,5.542-6.89,5.542-2.6,6.565,4.506,3.753c8.437-3.34,2.109,5.976-3.516,11.952-4.635,4.924-.691,6.013-.691,6.013l3.744-.15Z" transform="translate(-359.198 -221.935)" fill="#f09959"/>
    <g id="Group_84" data-name="Group 84" transform="translate(1912.951 1269.376)">
      <path id="Path_320" data-name="Path 320" d="M2275.431,1565.369a6.922,6.922,0,0,1-2.034-.317c-1.824-.569-5.01-2.4-5.854-8.3a.437.437,0,1,1,.865-.124c.721,5.046,3.168,6.887,5.093,7.543a4.755,4.755,0,0,0,3.2.106.437.437,0,0,1,.839-.1.615.615,0,0,1-.139.656A2.887,2.887,0,0,1,2275.431,1565.369Z" transform="translate(-2267.539 -1556.249)" fill="#f5ce5c"/>
    </g>
    <g id="Group_85" data-name="Group 85" transform="translate(1912.094 1271.419)">
      <path id="Path_321" data-name="Path 321" d="M2273.384,1566.8a12.454,12.454,0,0,1-1.769-.128c-3.39-.492-5.662-2.213-6.233-4.719a.437.437,0,1,1,.852-.195c.545,2.392,2.719,3.409,4.448,3.841,2.423.606,4.7.232,4.97-.082a.43.43,0,0,1,.591-.16.443.443,0,0,1,.162.6C2276.08,1566.535,2274.808,1566.8,2273.384,1566.8Z" transform="translate(-2265.371 -1561.417)" fill="#f5ce5c"/>
    </g>
    <g id="Group_86" data-name="Group 86" transform="translate(1858.129 1191.643)">
      <path id="Path_322" data-name="Path 322" d="M2134.27,1377.481a4.293,4.293,0,0,1-.646-.049c-3.327-.51-5.337-4.8-4.575-9.772a11.669,11.669,0,0,1,2.574-5.888,5.256,5.256,0,0,1,4.716-2.066c3.327.509,5.337,4.8,4.575,9.772C2140.2,1374.124,2137.357,1377.481,2134.27,1377.481Zm1.438-16.282a4.036,4.036,0,0,0-2.926,1.589,10.123,10.123,0,0,0-2.209,5.105c-.609,3.978.9,7.649,3.285,8.015s4.924-2.686,5.533-6.665-.9-7.648-3.285-8.014A2.641,2.641,0,0,0,2135.708,1361.2Z" transform="translate(-2128.888 -1359.657)" fill="#fff"/>
    </g>
    <g id="Group_87" data-name="Group 87" transform="translate(1871.284 1193.827)">
      <path id="Path_323" data-name="Path 323" d="M2165.353,1380.842a2.069,2.069,0,0,1-.316-.024c-2.178-.334-3.36-4.024-2.689-8.4s2.907-7.551,5.08-7.211c1.123.172,2.006,1.2,2.487,2.893a13.358,13.358,0,0,1,.2,5.508C2169.478,1377.772,2167.426,1380.842,2165.353,1380.842Zm1.753-14.495c-1.283,0-3.029,2.469-3.608,6.246-.6,3.922.422,6.875,1.715,7.073s3.151-2.315,3.752-6.235a12.2,12.2,0,0,0-.17-5.014c-.345-1.211-.907-1.962-1.544-2.059A.987.987,0,0,0,2167.105,1366.347Z" transform="translate(-2162.159 -1365.181)" fill="#fff"/>
    </g>
    <g id="Group_88" data-name="Group 88" transform="translate(1833.258 1187.441)">
      <path id="Path_324" data-name="Path 324" d="M2092.6,1357.953a.777.777,0,0,1-.212-.03l-25.838-7.382a.771.771,0,0,1,.424-1.482l25.838,7.383a.771.771,0,0,1-.211,1.512Z" transform="translate(-2065.988 -1349.029)" fill="#fff"/>
    </g>
    <path id="Path_325" data-name="Path 325" d="M2115.456,1308.4c-39.988,23.553-42.184,7.734-42.184,7.734l2.373-22.5,23.729,1.318Z" transform="translate(-237.134 -128.097)" fill="#303c60"/>
    <path id="Path_326" data-name="Path 326" d="M2066.8,1354.227c.93,3.981-.34,7.682-2.837,8.266s-5.277-2.171-6.207-6.152.34-7.683,2.837-8.267S2065.871,1350.245,2066.8,1354.227Z" transform="translate(-227.569 -160.964)" fill="#f09959"/>
    <path id="Path_327" data-name="Path 327" d="M2069.351,1374.573a1.575,1.575,0,1,1-1.574-1.575A1.574,1.574,0,0,1,2069.351,1374.573Z" transform="translate(-232.859 -176.08)" fill="#f5ce5c"/>
    <path id="Path_328" data-name="Path 328" d="M2237.112,1791.339h-400a3.666,3.666,0,1,1,0-7.331h400a3.666,3.666,0,1,1,0,7.331Z" transform="translate(-92.136 -424.576)" fill="#2e5b9a"/>
    <path id="Path_329" data-name="Path 329" d="M2059.123,1782.224s-15.079.191-15.27,1.527.573,1.908,5.917,2.863,65.47,1.336,66.042.954,18.133-4.581,18.133-4.581l-42.183-.763Z" transform="translate(-219.332 -423.497)" fill="#dbe5eb"/>
    <path id="Path_330" data-name="Path 330" d="M2103.277,1751.981s10.81-4.746,13.974-2.637,12.3,11.777,12.3,11.777Z" transform="translate(-255.275 -403.291)" fill="#f09959"/>
    <path id="Path_331" data-name="Path 331" d="M2131,1751.992c-.206.257-.512.365-.684.236l-22.243-16.559c-1.2-.892-1.768-2.256-1.192-2.977s2.032-.463,3.165.51l21.035,18.07C2131.246,1751.412,2131.208,1751.734,2131,1751.992Z" transform="translate(-257.318 -393.301)" fill="#2e5b9a"/>
    <path id="Path_332" data-name="Path 332" d="M2013.338,1751.727s17.928,7.118,20.038,7.118,13.885-7.909,17.84-6.855,23.29,10.809,22.762,11.6-6.064,2.637-22.411,2.11-42.975-2.9-42.975-2.9Z" transform="translate(-198.029 -405.059)" fill="#f09959"/>
    <path id="Rectangle_32" data-name="Rectangle 32" d="M3.081,0H72.243a7.73,7.73,0,0,1,7.73,7.73v0a7.73,7.73,0,0,1-7.73,7.73H3.08A3.08,3.08,0,0,1,0,12.38v-9.3A3.081,3.081,0,0,1,3.081,0Z" transform="translate(1964.623 1344.277)" fill="#f37168"/>
    <path id="Path_333" data-name="Path 333" d="M2466.442,1752.294h-69.38a5.32,5.32,0,0,0-.771,2.752v4.724a5.32,5.32,0,0,0,.771,2.752h69.38a4.491,4.491,0,0,0,4.479-4.478v-1.271A4.491,4.491,0,0,0,2466.442,1752.294Z" transform="translate(-432.431 -405.401)" fill="#f2e5de"/>
    <path id="Rectangle_33" data-name="Rectangle 33" d="M1.863,0H55.55a4.676,4.676,0,0,1,4.676,4.676v0A4.676,4.676,0,0,1,55.55,9.352H1.863A1.863,1.863,0,0,1,0,7.489V1.863A1.863,1.863,0,0,1,1.863,0Z" transform="translate(1980.319 1334.924)" fill="#7bcee8"/>
    <path id="Path_334" data-name="Path 334" d="M2489.295,1726.026h-52.248a2.765,2.765,0,0,0-.581,1.665v2.858a2.764,2.764,0,0,0,.581,1.665h52.248c1.855,0,3.373-1.219,3.373-2.709v-.769C2492.668,1727.245,2491.15,1726.026,2489.295,1726.026Z" transform="translate(-456.72 -389.52)" fill="#f2e5de"/>
    <g id="Group_89" data-name="Group 89" transform="translate(1985.049 1114.313)">
      <path id="Path_335" data-name="Path 335" d="M2511.551,1195.578h-59.267c-1.89,0-2.873-1.546-2.185-3.436l8.962-24.623a5.454,5.454,0,0,1,4.686-3.436h59.267c1.889,0,2.873,1.546,2.185,3.436l-8.962,24.623A5.453,5.453,0,0,1,2511.551,1195.578Z" transform="translate(-2449.88 -1164.084)" fill="#9ec8ff"/>
      <path id="Path_336" data-name="Path 336" d="M2515.974,1196.943H2462.6c-1.637,0-2.488-1.34-1.893-2.976l7.421-20.389a4.722,4.722,0,0,1,4.058-2.975h53.372c1.637,0,2.489,1.338,1.893,2.975l-7.421,20.389A4.724,4.724,0,0,1,2515.974,1196.943Z" transform="translate(-2456.312 -1168.025)" fill="#fff"/>
      <path id="Path_337" data-name="Path 337" d="M2496.363,1240.115c-4.915,12.979-12.482,16.988-12.482,16.988s5.381-7.444,4.6-11.071a7.988,7.988,0,0,0-3.66-5.154Z" transform="translate(-2470.437 -1210.052)" fill="#9ec8ff"/>
      <path id="Path_338" data-name="Path 338" d="M2557.906,1185.735h-34.4a.7.7,0,0,1-.653-1.026l.018-.048a1.629,1.629,0,0,1,1.4-1.026h34.406a.7.7,0,0,1,.652,1.026l-.017.048A1.628,1.628,0,0,1,2557.906,1185.735Z" transform="translate(-2493.957 -1175.905)" fill="#9ec8ff"/>
      <path id="Path_339" data-name="Path 339" d="M2553.865,1196.837h-34.4a.7.7,0,0,1-.652-1.026l.017-.048a1.629,1.629,0,0,1,1.4-1.026h34.405a.7.7,0,0,1,.652,1.026l-.018.048A1.627,1.627,0,0,1,2553.865,1196.837Z" transform="translate(-2491.514 -1182.617)" fill="#9ec8ff"/>
      <path id="Path_340" data-name="Path 340" d="M2549.3,1209.389h-34.4a.7.7,0,0,1-.653-1.026l.018-.048a1.628,1.628,0,0,1,1.4-1.026h34.405a.7.7,0,0,1,.652,1.026l-.017.048A1.628,1.628,0,0,1,2549.3,1209.389Z" transform="translate(-2488.751 -1190.206)" fill="#9ec8ff"/>
      <path id="Path_341" data-name="Path 341" d="M2493.3,1187.514c-1.362,3.742-4.944,6.776-8,6.776s-4.431-3.034-3.07-6.776,4.945-6.776,8-6.776S2494.66,1183.772,2493.3,1187.514Z" transform="translate(-2469.119 -1174.153)" fill="#9ec8ff"/>
    </g>
    <g id="Group_90" data-name="Group 90" transform="translate(2009.31 1205.18)">
      <path id="Path_342" data-name="Path 342" d="M2514.96,1398.557h-2.937a.76.76,0,0,1-.714-1.123l.881-2.419a1.775,1.775,0,0,1,1.532-1.123h2.937a.76.76,0,0,1,.714,1.123l-.88,2.419A1.776,1.776,0,0,1,2514.96,1398.557Z" transform="translate(-2511.237 -1393.892)" fill="#9ec8ff"/>
      <path id="Path_343" data-name="Path 343" d="M2538.795,1398.557h-2.937a.76.76,0,0,1-.714-1.123l.88-2.419a1.777,1.777,0,0,1,1.532-1.123h2.938a.76.76,0,0,1,.715,1.123l-.881,2.419A1.777,1.777,0,0,1,2538.795,1398.557Z" transform="translate(-2525.647 -1393.892)" fill="#9ec8ff"/>
      <path id="Path_344" data-name="Path 344" d="M2562.629,1398.557h-2.937a.76.76,0,0,1-.714-1.123l.88-2.419a1.776,1.776,0,0,1,1.532-1.123h2.937a.76.76,0,0,1,.714,1.123l-.881,2.419A1.776,1.776,0,0,1,2562.629,1398.557Z" transform="translate(-2540.057 -1393.892)" fill="#9ec8ff"/>
    </g>
    <g id="Group_91" data-name="Group 91" transform="translate(1914.021 1159.741)">
      <path id="Path_345" data-name="Path 345" d="M2331.914,1310.469h-59.267c-1.89,0-2.873-1.546-2.185-3.436l8.962-24.623a5.454,5.454,0,0,1,4.686-3.436h59.266c1.89,0,2.873,1.546,2.185,3.436l-8.961,24.623A5.454,5.454,0,0,1,2331.914,1310.469Z" transform="translate(-2270.243 -1278.975)" fill="#9ec8ff"/>
      <path id="Path_346" data-name="Path 346" d="M2336.337,1311.832h-53.372c-1.636,0-2.489-1.339-1.893-2.975l7.421-20.389a4.724,4.724,0,0,1,4.059-2.976h53.372c1.637,0,2.488,1.339,1.893,2.976l-7.421,20.389A4.724,4.724,0,0,1,2336.337,1311.832Z" transform="translate(-2276.676 -1282.915)" fill="#fff"/>
      <path id="Path_347" data-name="Path 347" d="M2280.882,1355.005c-4.533,12.979.116,16.988.116,16.988s.037-7.444,3.457-11.071a22.419,22.419,0,0,1,7.411-5.154Z" transform="translate(-2275.475 -1324.943)" fill="#9ec8ff"/>
      <path id="Path_348" data-name="Path 348" d="M2339.095,1304.97h-29.032a.641.641,0,0,1-.6-.945l.076-.21a1.5,1.5,0,0,1,1.289-.945h29.032a.641.641,0,0,1,.6.945l-.076.21A1.5,1.5,0,0,1,2339.095,1304.97Z" transform="translate(-2293.918 -1293.422)" fill="#9ec8ff"/>
      <path id="Path_349" data-name="Path 349" d="M2335.053,1316.073h-29.032a.641.641,0,0,1-.6-.945l.076-.21a1.5,1.5,0,0,1,1.289-.945h29.031a.641.641,0,0,1,.6.945l-.076.21A1.5,1.5,0,0,1,2335.053,1316.073Z" transform="translate(-2291.475 -1300.135)" fill="#9ec8ff"/>
      <path id="Path_350" data-name="Path 350" d="M2330.485,1328.623h-29.032a.641.641,0,0,1-.6-.945l.077-.21a1.5,1.5,0,0,1,1.289-.945h29.032a.641.641,0,0,1,.6.945l-.077.21A1.5,1.5,0,0,1,2330.485,1328.623Z" transform="translate(-2288.713 -1307.722)" fill="#9ec8ff"/>
      <path id="Path_351" data-name="Path 351" d="M2473.29,1425.894h-57.2c-1.024,0-1.557-.425-1.184-.945l.151-.21a3.512,3.512,0,0,1,2.539-.945h57.2c1.024,0,1.556.425,1.184.945l-.151.21A3.514,3.514,0,0,1,2473.29,1425.894Z" transform="translate(-2357.633 -1366.533)" fill="#9ec8ff"/>
      <path id="Path_352" data-name="Path 352" d="M2465.328,1444.238h-57.2c-1.023,0-1.556-.425-1.184-.945l.15-.21a3.516,3.516,0,0,1,2.54-.945h57.2c1.024,0,1.557.425,1.184.945l-.15.21A3.515,3.515,0,0,1,2465.328,1444.238Z" transform="translate(-2352.819 -1377.624)" fill="#9ec8ff"/>
      <path id="Path_353" data-name="Path 353" d="M2399.907,1312.538h-4.2c-1.89,0-2.873-1.546-2.186-3.436l3.127-8.589a5.454,5.454,0,0,1,4.686-3.436h4.2c1.89,0,2.873,1.546,2.186,3.436l-3.126,8.589A5.454,5.454,0,0,1,2399.907,1312.538Z" transform="translate(-2344.645 -1289.919)" fill="#9ec8ff"/>
    </g>
    <g id="Group_101" data-name="Group 101" transform="translate(2066.991 1120.262)">
      <path id="Path_354" data-name="Path 354" d="M2705.9,1490.958c7.623-41.829,5.954-56.79-14.465-90.932s-22.367-97.679-30.064-79.044-6.661,65.433,17.461,88.143,27.368,32.879,28.8,42.123-3.444,37.654-3.444,37.654Z" transform="translate(-2657.116 -1262.865)" fill="#9cd499"/>
      <path id="Path_355" data-name="Path 355" d="M2709.723,1464.061c.012-.161.023-.319.035-.479-.448-3.432-2.871-21.081-6.224-28.044-3.722-7.731-20.042-21.187-24.623-38.08s-11.842-29.985-16.606-40.656c-6.29-14.089-2.852-32.819,2.349-38.9a1.274,1.274,0,0,0-.38-.174l-1.727,1.044a12.252,12.252,0,0,0-1.171,2.273c-7.7,18.635-6.661,65.433,17.461,88.143s27.369,32.879,28.8,42.123a54.151,54.151,0,0,1,0,10.731Z" transform="translate(-2657.116 -1262.923)" fill="#74b570"/>
      <path id="Path_356" data-name="Path 356" d="M2741.413,1399.842c5.672-49.156,3.781-66.171-7.184-105.5s60.5-128.938,58.23-113.435-9.831,54.071-29.493,78.271-21.175,43.862-17.394,64.659-.756,69.2-.756,69.2l-2.269,8.7Z" transform="translate(-2703.046 -1179.128)" fill="#9cd499"/>
      <g id="Group_92" data-name="Group 92" transform="translate(33.518 5.506)">
        <path id="Path_357" data-name="Path 357" d="M2749.346,1387.835h-.019a.474.474,0,0,1-.456-.492c.006-.152.569-15.3.286-27.743s-3.657-33.784-5.708-41.112c-1.869-6.673-4.219-29.051,7.189-52.16,5.682-11.511,10.218-18.788,16.495-28.861,6.2-9.955,13.927-22.345,26.177-44.171a.474.474,0,0,1,.827.465c-12.261,21.844-19.989,34.245-26.2,44.208-6.263,10.05-10.788,17.311-16.45,28.779-11.276,22.841-8.967,44.909-7.126,51.484,2.065,7.374,5.459,28.83,5.744,41.346.283,12.468-.281,27.649-.287,27.8A.474.474,0,0,1,2749.346,1387.835Z" transform="translate(-2741.886 -1193.054)" fill="#74b570"/>
      </g>
      <path id="Path_358" data-name="Path 358" d="M2739.048,1562.359c3.4-32.9,3.973-16.673-10.161-61.37-16.175-51.157,41.545-96.572,51-78.044s20.418,76.758,16.259,74.868-31.762-55.962-32.518-53.693-37.434,21.175-35.921,40.459,15.5,49.912,15.5,49.912l-.378,28.246Z" transform="translate(-2698.791 -1323.986)" fill="#9cd499"/>
      <g id="Group_93" data-name="Group 93" transform="translate(26.781 94.263)">
        <path id="Path_359" data-name="Path 359" d="M2742.1,1561.63l-.048,0-3.781-.378a.475.475,0,0,1-.425-.521c.393-3.8.756-7,1.048-9.573,1.584-13.966,1.584-13.966-2.751-25.931-1.959-5.407-4.642-12.811-8.437-24.815a61.16,61.16,0,0,1-2.18-27.652,70.878,70.878,0,0,1,8.429-24.209c7.486-13.38,19.268-24.872,30.016-29.278,7.469-3.062,13.158-2.065,15.607,2.734,4.012,7.865,8.81,23.968,12.833,43.075,2.322,11.028,5.734,30.232,3.8,32.259a.839.839,0,0,1-.989.181c-2.269-1.032-9.783-14.29-20.148-32.907-5.2-9.333-10.561-18.965-12.009-20.626a38.468,38.468,0,0,1-5.108,3.734c-10.274,6.968-31.652,21.468-30.5,36.1,1.488,18.979,15.322,49.446,15.461,49.752a.473.473,0,0,1,.043.2l-.378,27.388a.474.474,0,0,1-.474.468Zm-3.26-1.278,2.793.28.37-26.765c-.872-1.931-14.041-31.369-15.5-49.974-1.19-15.177,20.5-29.887,30.918-36.956,2.476-1.679,4.814-3.266,5.031-3.7a.553.553,0,0,1,.473-.379c.917-.086,2.73,2.9,12.974,21.3,7.352,13.2,17.4,31.249,19.663,32.479.174-.284.688-1.834-.312-9.818-.724-5.773-2.05-13.369-3.735-21.387-4.013-19.1-8.792-35.169-12.781-42.99-2.2-4.305-7.447-5.139-14.4-2.287-18.848,7.725-47.727,42-35.72,79.974,3.789,11.985,6.468,19.379,8.424,24.778,4.411,12.174,4.411,12.174,2.8,26.361C2739.548,1553.853,2739.217,1556.773,2738.844,1560.352Z" transform="translate(-2724.846 -1417.525)" fill="#74b570"/>
      </g>
      <path id="Path_360" data-name="Path 360" d="M2750.295,1711.226h-17.159c-1.18,0-2.234-.671-2.345-1.505l-5.766-43.346a3.077,3.077,0,0,1,2.945-3.684h27.49a3.077,3.077,0,0,1,2.946,3.684l-5.766,43.346C2752.529,1710.555,2751.474,1711.226,2750.295,1711.226Z" transform="translate(-2698.153 -1471.489)" fill="#7bcee8"/>
      <path id="Path_361" data-name="Path 361" d="M2776.8,1716.775h-2.457c-1.2,0-2.168-.7-2.149-1.562l.868-37.442a3.5,3.5,0,0,1,3.393-3.43h3.727a3,3,0,0,1,2.948,3.43l-3.98,37.442C2779.057,1716.08,2778,1716.775,2776.8,1716.775Z" transform="translate(-2726.691 -1478.533)" fill="#a2dff2"/>
      <g id="Group_94" data-name="Group 94" transform="translate(29.485 119.268)">
        <path id="Path_362" data-name="Path 362" d="M2734.016,1609.465l.3-.528a108.562,108.562,0,0,1-2.634-11.745A59.856,59.856,0,0,0,2734.016,1609.465Z" transform="translate(-2731.685 -1551.156)" fill="#74b570"/>
        <path id="Path_363" data-name="Path 363" d="M2734.264,1507.388a35.322,35.322,0,0,0-2.168,8.562c5.065-16.628,33.27-31.639,35.1-34.17l.325-.637C2756.93,1478.185,2739.99,1493.073,2734.264,1507.388Z" transform="translate(-2731.934 -1480.764)" fill="#74b570"/>
      </g>
      <g id="Group_95" data-name="Group 95" transform="translate(30.195 101.757)">
        <path id="Path_364" data-name="Path 364" d="M2800.667,1507.525a.475.475,0,0,1-.46-.361l-5.125-20.851c-4-16.338-8.983-36.672-14.574-45.724-.922-1.492-4.948-3.51-10.65-3.108-7.708.546-22.564,5.87-35.466,35.4a.475.475,0,1,1-.87-.38c13.1-29.989,28.347-35.407,36.269-35.969,6.161-.433,10.45,1.817,11.524,3.556,5.669,9.179,10.46,28.739,14.688,46l5.125,20.85a.474.474,0,0,1-.462.588Z" transform="translate(-2733.483 -1436.48)" fill="#74b570"/>
      </g>
      <g id="Group_96" data-name="Group 96" transform="translate(79.298 109.151)">
        <path id="Path_365" data-name="Path 365" d="M2860.718,1491.631a.429.429,0,0,1-.056,0,.475.475,0,0,1-.417-.526,111.537,111.537,0,0,0-2.565-35.332.474.474,0,0,1,.92-.23,112.56,112.56,0,0,1,2.588,35.673A.475.475,0,0,1,2860.718,1491.631Z" transform="translate(-2857.666 -1455.179)" fill="#74b570"/>
      </g>
      <g id="Group_97" data-name="Group 97" transform="translate(76.578 105.142)">
        <path id="Path_366" data-name="Path 366" d="M2851.263,1474.907a.488.488,0,0,1-.056,0,.474.474,0,0,1-.416-.527c.019-.157,1.84-15.85.571-28.816a.475.475,0,0,1,.945-.093c1.278,13.071-.555,28.862-.574,29.02A.474.474,0,0,1,2851.263,1474.907Z" transform="translate(-2850.788 -1445.04)" fill="#74b570"/>
      </g>
      <g id="Group_98" data-name="Group 98" transform="translate(58.54 28.412)">
        <path id="Path_367" data-name="Path 367" d="M2805.643,1273.406a.474.474,0,0,1-.205-.9,54.121,54.121,0,0,0,21.547-21.27.474.474,0,1,1,.835.45,55.124,55.124,0,0,1-21.972,21.676A.467.467,0,0,1,2805.643,1273.406Z" transform="translate(-2805.168 -1250.984)" fill="#74b570"/>
      </g>
      <g id="Group_99" data-name="Group 99" transform="translate(48.52 53.893)">
        <path id="Path_368" data-name="Path 368" d="M2780.3,1329.547a.475.475,0,0,1-.095-.939c.111-.022,11.222-2.4,24.42-13.074a.474.474,0,0,1,.6.737c-13.392,10.827-24.713,13.244-24.825,13.267A.479.479,0,0,1,2780.3,1329.547Z" transform="translate(-2779.826 -1315.428)" fill="#74b570"/>
      </g>
      <g id="Group_100" data-name="Group 100" transform="translate(39.93 74.794)">
        <path id="Path_369" data-name="Path 369" d="M2758.886,1378.12c-.195,0-.311-.007-.344-.01a.475.475,0,1,1,.07-.947c.076.006,7.734.423,20.008-8.782a.475.475,0,0,1,.57.76C2767.919,1377.594,2760.543,1378.12,2758.886,1378.12Z" transform="translate(-2758.102 -1368.287)" fill="#74b570"/>
      </g>
    </g>
  </g>
</svg>
