<svg xmlns="http://www.w3.org/2000/svg" width="13.913" height="20" viewBox="0 0 13.913 20">
  <path id="Icon_map-book-store" data-name="Icon map-book-store" d="M20.393,17.962V3.179A1.744,1.744,0,0,0,18.654,1.44H8.219A1.744,1.744,0,0,0,6.48,3.179V19.7A1.744,1.744,0,0,0,8.219,21.44H18.654c.808,0,1.739,0,1.739-.87v-.435H8.654a.872.872,0,0,1-.87-.87v-1.3ZM8.654,4.918a.436.436,0,0,1,.435-.435h8.7a.436.436,0,0,1,.435.435v.87a.436.436,0,0,1-.435.435h-8.7a.436.436,0,0,1-.435-.435v-.87Zm0,3.478a.436.436,0,0,1,.435-.435h8.7a.436.436,0,0,1,.435.435v.87a.436.436,0,0,1-.435.435h-8.7a.436.436,0,0,1-.435-.435Z" transform="translate(-6.48 -1.44)" fill="#525252"/>
</svg>
