<svg id="Group_1224" data-name="Group 1224" xmlns="http://www.w3.org/2000/svg" width="40.652" height="40.652" viewBox="0 0 40.652 40.652">
  <path id="Path_4757" data-name="Path 4757" d="M240.913,423.835a10.155,10.155,0,0,1-10.153,10.159,5.082,5.082,0,0,0-5.079-5.079h-5.087c-5.079,0-10.159-2.86-10.159-10.167,0-7.461,5.079-10.159,10.159-10.159H230.76c5.079,0,10.153,3.15,10.153,10.159Zm0,0" transform="translate(-210.434 -408.589)" fill="#525252"/>
  <path id="Path_4758" data-name="Path 4758" d="M239.676,418.359A12.709,12.709,0,0,1,227,430.795h-2.544v-2.544a2.546,2.546,0,0,0-2.536-2.544h-4.832a13.063,13.063,0,0,0-.256,2.544v5.079A10.17,10.17,0,0,0,227,443.5a5.084,5.084,0,0,1,5.079-5.087h5.073c5.086,0,10.173-2.852,10.173-10.159,0-6.215-3.542-9.094-7.649-9.892Zm0,0" transform="translate(-206.673 -402.846)" fill="#525252"/>
</svg>
