<svg xmlns="http://www.w3.org/2000/svg" width="76" height="63.644" viewBox="0 0 76 63.644">
  <g id="Group_509" data-name="Group 509" transform="translate(-156.757 -737.469)">
    <path id="Path_2366" data-name="Path 2366" d="M214.309,778.173a1.62,1.62,0,0,0,1.893-1.287l1.368-7.158a1.612,1.612,0,0,0-.253-1.214,1.628,1.628,0,0,0-1.036-.683l-2.763-.523a19.2,19.2,0,0,0-.924-4.447l2.331-1.584a1.621,1.621,0,0,0,.428-2.25l-4.1-6.027a1.62,1.62,0,0,0-2.25-.43l-2.329,1.584a19.128,19.128,0,0,0-3.793-2.5l.527-2.763a1.621,1.621,0,0,0-1.287-1.9l-7.158-1.366a1.62,1.62,0,0,0-1.9,1.289l-.527,2.761a19.2,19.2,0,0,0-4.445.926l-1.582-2.329a1.619,1.619,0,0,0-2.25-.432l-6.029,4.1a1.625,1.625,0,0,0-.428,2.253l1.582,2.329a19.293,19.293,0,0,0-2.5,3.791l-2.763-.525a1.616,1.616,0,0,0-1.893,1.289l-1.368,7.156a1.623,1.623,0,0,0,1.289,1.9l2.763.527a19.116,19.116,0,0,0,.924,4.445l-2.329,1.582a1.62,1.62,0,0,0-.43,2.25l4.1,6.029a1.62,1.62,0,0,0,2.25.43l2.329-1.584a19.19,19.19,0,0,0,3.793,2.5l-.527,2.763a1.618,1.618,0,0,0,1.287,1.893l7.158,1.366a1.534,1.534,0,0,0,.305.029,1.62,1.62,0,0,0,1.59-1.318l.527-2.761a19.223,19.223,0,0,0,4.445-.924l1.582,2.331a1.622,1.622,0,0,0,2.25.428l6.029-4.1a1.621,1.621,0,0,0,.43-2.25l-1.584-2.329a19.2,19.2,0,0,0,2.5-3.793Zm-5.2-2.979a15.946,15.946,0,0,1-3.274,4.978,1.616,1.616,0,0,0-.174,2.035l1.387,2.043-3.347,2.273-1.387-2.041a1.62,1.62,0,0,0-1.958-.587,15.949,15.949,0,0,1-5.834,1.212,1.622,1.622,0,0,0-1.565,1.318l-.461,2.419-3.976-.76.463-2.421a1.621,1.621,0,0,0-.969-1.8,15.949,15.949,0,0,1-4.978-3.274,1.619,1.619,0,0,0-2.037-.177l-2.041,1.389-2.273-3.347,2.041-1.387a1.627,1.627,0,0,0,.587-1.96,15.966,15.966,0,0,1-1.214-5.834,1.62,1.62,0,0,0-1.314-1.563l-2.421-.463.758-3.974,2.421.463a1.62,1.62,0,0,0,1.8-.969,16,16,0,0,1,3.276-4.978,1.622,1.622,0,0,0,.176-2.037l-1.389-2.041,3.347-2.273,1.387,2.039a1.625,1.625,0,0,0,1.958.59,15.9,15.9,0,0,1,5.834-1.212,1.626,1.626,0,0,0,1.565-1.318l.461-2.419,3.973.758-.461,2.421a1.619,1.619,0,0,0,.969,1.8,15.968,15.968,0,0,1,4.978,3.276,1.622,1.622,0,0,0,2.037.174l2.041-1.387,2.275,3.349-2.043,1.385a1.618,1.618,0,0,0-.585,1.958,16.026,16.026,0,0,1,1.212,5.836,1.621,1.621,0,0,0,1.316,1.563l2.419.461-.758,3.974-2.421-.461A1.618,1.618,0,0,0,209.1,775.194Z" transform="translate(15.158 8.754)" fill="#9a9a9a"/>
    <path id="Path_2367" data-name="Path 2367" d="M190.324,751.465a11.644,11.644,0,1,0-4.364,22.875h0a11.644,11.644,0,0,0,4.364-22.875Zm6.072,13.012a8.4,8.4,0,0,1-9.828,6.68h0a8.406,8.406,0,0,1,1.559-16.662,8.425,8.425,0,0,1,8.271,9.982Z" transform="translate(21.238 14.834)" fill="#9a9a9a"/>
    <path id="Path_2368" data-name="Path 2368" d="M157.548,760.212a1.215,1.215,0,0,0,1.378,1.032l2.093-.3a14.469,14.469,0,0,0,1.744,2.936l-1.268,1.694a1.207,1.207,0,0,0-.233.9,1.233,1.233,0,0,0,.475.8l4.385,3.282a1.215,1.215,0,0,0,1.7-.245l1.268-1.694a14.409,14.409,0,0,0,3.305.847l.3,2.095a1.222,1.222,0,0,0,1.206,1.044,1.224,1.224,0,0,0,.172-.012l5.421-.779a1.216,1.216,0,0,0,1.032-1.378l-.3-2.093a14.457,14.457,0,0,0,2.933-1.744l1.694,1.268a1.217,1.217,0,0,0,1.706-.245l3.282-4.383a1.221,1.221,0,0,0-.245-1.706l-1.694-1.268a14.377,14.377,0,0,0,.847-3.305l2.093-.3a1.22,1.22,0,0,0,1.032-1.378l-.779-5.42a1.221,1.221,0,0,0-1.378-1.034l-2.093.3a14.332,14.332,0,0,0-1.742-2.933l1.268-1.7a1.219,1.219,0,0,0-.245-1.7l-4.385-3.282a1.216,1.216,0,0,0-1.7.245l-1.271,1.694a14.6,14.6,0,0,0-3.3-.847l-.3-2.093a1.216,1.216,0,0,0-1.378-1.032l-5.42.779a1.217,1.217,0,0,0-1.032,1.378l.3,2.093a14.354,14.354,0,0,0-2.933,1.742L163.79,742.2a1.218,1.218,0,0,0-1.7.245l-3.282,4.383a1.206,1.206,0,0,0-.23.9,1.227,1.227,0,0,0,.473.8l1.7,1.268a14.272,14.272,0,0,0-.847,3.305l-2.093.3a1.22,1.22,0,0,0-1.034,1.38Zm3.639-4.825a1.223,1.223,0,0,0,1.042-1.129,11.974,11.974,0,0,1,1.111-4.337,1.215,1.215,0,0,0-.374-1.49l-1.484-1.113,1.825-2.435,1.482,1.113a1.22,1.22,0,0,0,1.536-.06,12,12,0,0,1,3.851-2.288,1.217,1.217,0,0,0,.789-1.318L170.7,740.5l3.01-.432.264,1.833a1.217,1.217,0,0,0,1.129,1.04,12,12,0,0,1,4.339,1.113,1.218,1.218,0,0,0,1.488-.374l1.113-1.486,2.433,1.825-1.111,1.484a1.214,1.214,0,0,0,.06,1.534,12.037,12.037,0,0,1,2.288,3.851,1.22,1.22,0,0,0,1.318.791l1.833-.266.432,3.012-1.833.264a1.213,1.213,0,0,0-1.042,1.127,12.018,12.018,0,0,1-1.113,4.341,1.22,1.22,0,0,0,.374,1.489l1.484,1.109-1.823,2.437-1.484-1.113a1.217,1.217,0,0,0-1.534.06,11.963,11.963,0,0,1-3.851,2.288,1.219,1.219,0,0,0-.791,1.318l.264,1.833-3.01.432-.264-1.833a1.215,1.215,0,0,0-1.127-1.042,12.031,12.031,0,0,1-4.339-1.111,1.189,1.189,0,0,0-.515-.114,1.223,1.223,0,0,0-.976.486l-1.111,1.486-2.435-1.825,1.113-1.484a1.217,1.217,0,0,0-.062-1.534,12.006,12.006,0,0,1-2.286-3.849,1.218,1.218,0,0,0-1.318-.791l-1.833.264-.432-3.01Z" transform="translate(0 0)" fill="#9a9a9a"/>
    <path id="Path_2369" data-name="Path 2369" d="M169.751,759.22a8.752,8.752,0,1,0-8.657-7.509A8.815,8.815,0,0,0,169.751,759.22Zm-.893-15.005a6.316,6.316,0,1,1-5.354,7.15A6.336,6.336,0,0,1,168.858,744.214Z" transform="translate(4.569 4.569)" fill="#9a9a9a"/>
  </g>
</svg>
