<svg xmlns="http://www.w3.org/2000/svg" width="392.713" height="1297.902" viewBox="0 0 392.713 1297.902">
  <path id="Path_4405" data-name="Path 4405" d="M269.488,46.417C281.661,32.923,315.235-.5,361.654,0c70.867.759,114.556,43.233,136.965,76.2,43.375,65.711,49.258,209.4,16.05,256.306-54.016,76.291-207.4-117.839-302.449-27.366-58.843,56.008-62.887,190.2-64.427,241.314-1.414,46.9-4.187,138.874,34.9,211.46,58.307,108.289,181.76-17.79,275.6,82.1,47.235,50.276,73.717,138.034,68.006,218.924-7.493,106.125-70.383,200.182-159.277,235.094" transform="translate(-145.261 2.003)" fill="none" stroke="#0062ff" stroke-miterlimit="10" stroke-width="4"/>
</svg>
