<svg xmlns="http://www.w3.org/2000/svg" width="46.875" height="47.06" viewBox="0 0 46.875 47.06">
  <g id="Group_1130" data-name="Group 1130" transform="translate(-241.21 -6324.75)">
    <g id="Group_1121" data-name="Group 1121" transform="translate(241.21 6324.75)">
      <path id="Path_4657" data-name="Path 4657" d="M-308.249-170.151l-1.157-.134v-5.937a3.042,3.042,0,0,0-1.191-2.314l-1.107-.822.822-1.04a3.211,3.211,0,0,0,.7-2.029,3.265,3.265,0,0,0-2.214-3.086l-.889-.3v-18.616a3.071,3.071,0,0,0-3.069-3.069h-25.207a3.071,3.071,0,0,0-3.069,3.069v18.616l-.889.3a3.265,3.265,0,0,0-2.214,3.086,3.211,3.211,0,0,0,.7,2.029l.805,1.023-1.023.805a2.934,2.934,0,0,0-1.258,2.348v5.937l-1.157.134a3.057,3.057,0,0,0-2.734,3.052v3.589a3.081,3.081,0,0,0,3.069,3.069h40.737a3.081,3.081,0,0,0,3.069-3.069V-167.1A3.057,3.057,0,0,0-308.249-170.151Zm-2.549-8.134a2.666,2.666,0,0,1,1.073,2.063v6.054h-7.43v-6.054c0-1.61,1.66-2.935,3.706-2.935A4.332,4.332,0,0,1-310.8-178.285Zm-15.312-.252-1.107-.822.822-1.04a3.151,3.151,0,0,0,.537-.989l.3-.872h8.721l.3.872a3.149,3.149,0,0,0,.537.989l.8,1.023-1.023.805a2.934,2.934,0,0,0-1.258,2.348v6.054h-7.446v-6.054A3.042,3.042,0,0,0-326.11-178.536Zm-15.513,0-1.107-.822.822-1.04a3.151,3.151,0,0,0,.537-.989l.3-.872h8.721l.3.872a3.152,3.152,0,0,0,.537.989l.805,1.023-1.023.805a2.934,2.934,0,0,0-1.258,2.348v6.054h-7.446v-6.054A3.042,3.042,0,0,0-341.623-178.536Zm9.727-3.891a2.953,2.953,0,0,1,2.952-2.935,2.949,2.949,0,0,1,2.935,2.935,2.953,2.953,0,0,1-2.935,2.952A2.956,2.956,0,0,1-331.9-182.427Zm-.771,6.205c0-1.61,1.66-2.935,3.723-2.935a4.318,4.318,0,0,1,2.633.872,2.666,2.666,0,0,1,1.073,2.063v6.054h-7.43Zm22.171-6.205a2.956,2.956,0,0,1-2.952,2.952,2.953,2.953,0,0,1-2.935-2.952,2.949,2.949,0,0,1,2.935-2.935A2.953,2.953,0,0,1-310.5-182.427Zm-33.81-22a2.763,2.763,0,0,1,2.75-2.75h25.207a2.763,2.763,0,0,1,2.75,2.75v18.616l-.889.3a3.266,3.266,0,0,0-2.046,2.046l-.3.889h-8.721l-.3-.889a3.265,3.265,0,0,0-3.086-2.214,3.27,3.27,0,0,0-3.1,2.214l-.3.889h-8.721l-.3-.889a3.266,3.266,0,0,0-2.046-2.046l-.889-.3Zm-3.1,22a2.953,2.953,0,0,1,2.952-2.935,2.949,2.949,0,0,1,2.935,2.935,2.953,2.953,0,0,1-2.935,2.952A2.956,2.956,0,0,1-347.409-182.427Zm-.771,6.205c0-1.61,1.66-2.935,3.723-2.935a4.318,4.318,0,0,1,2.633.872,2.666,2.666,0,0,1,1.073,2.063v6.054h-7.43Zm42.33,12.712a2.734,2.734,0,0,1-2.734,2.734h-40.737a2.734,2.734,0,0,1-2.734-2.734V-167.1a2.738,2.738,0,0,1,2.734-2.75h40.737a2.738,2.738,0,0,1,2.734,2.75Z" transform="translate(352.39 207.5)" fill="#525252"/>
      <path id="Path_4658" data-name="Path 4658" d="M-305.986-182.3v3.589a2.734,2.734,0,0,1-2.734,2.734h-40.737a2.734,2.734,0,0,1-2.734-2.734V-182.3a2.738,2.738,0,0,1,2.734-2.75h40.737A2.738,2.738,0,0,1-305.986-182.3Z" transform="translate(352.525 222.701)" fill="#525252"/>
      <path id="Path_4659" data-name="Path 4659" d="M-323.95-187.665v6.054h-7.43v-6.054c0-1.61,1.66-2.935,3.706-2.935a4.332,4.332,0,0,1,2.65.872A2.666,2.666,0,0,1-323.95-187.665Z" transform="translate(366.616 218.943)" fill="#525252"/>
      <path id="Path_4660" data-name="Path 4660" d="M-325.033-191.365a2.956,2.956,0,0,1-2.952,2.952,2.953,2.953,0,0,1-2.935-2.952,2.949,2.949,0,0,1,2.935-2.935A2.953,2.953,0,0,1-325.033-191.365Z" transform="translate(366.927 216.438)" fill="#525252"/>
      <path id="Path_4661" data-name="Path 4661" d="M-342.45-187.665v6.054h-7.43v-6.054c0-1.61,1.66-2.935,3.723-2.935a4.318,4.318,0,0,1,2.633.872A2.666,2.666,0,0,1-342.45-187.665Z" transform="translate(354.09 218.943)" fill="#525252"/>
      <path id="Path_4662" data-name="Path 4662" d="M-343.533-191.365a2.953,2.953,0,0,1-2.935,2.952,2.956,2.956,0,0,1-2.952-2.952,2.953,2.953,0,0,1,2.952-2.935A2.949,2.949,0,0,1-343.533-191.365Z" transform="translate(354.401 216.438)" fill="#525252"/>
      <path id="Path_4663" data-name="Path 4663" d="M-333.2-187.665v6.054h-7.43v-6.054c0-1.61,1.66-2.935,3.723-2.935a4.318,4.318,0,0,1,2.633.872A2.666,2.666,0,0,1-333.2-187.665Z" transform="translate(360.353 218.943)" fill="#525252"/>
      <path id="Path_4664" data-name="Path 4664" d="M-334.283-191.365a2.953,2.953,0,0,1-2.935,2.952,2.956,2.956,0,0,1-2.952-2.952,2.953,2.953,0,0,1,2.952-2.935A2.949,2.949,0,0,1-334.283-191.365Z" transform="translate(360.664 216.438)" fill="#525252"/>
    </g>
    <path id="Path_4703" data-name="Path 4703" d="M-331.3-197.662l-3.807,2.2-3.79,2.2a.853.853,0,0,1-1.275-.738v-8.771a.853.853,0,0,1,1.275-.738l3.79,2.2,3.807,2.2A.836.836,0,0,1-331.3-197.662Z" transform="translate(601.874 6534.873)" fill="#525252"/>
  </g>
</svg>
