<svg xmlns="http://www.w3.org/2000/svg" width="64.388" height="69.994" viewBox="0 0 64.388 69.994">
  <g id="Group_1235" data-name="Group 1235" transform="translate(-20.505)">
    <path id="Path_4744" data-name="Path 4744" d="M83.867,50.859a1.025,1.025,0,0,0,1.025-1.025V35.769A2.076,2.076,0,0,0,82.82,33.7H77.214a2.1,2.1,0,0,0-2.1,2.1v6.459H69.483a2.1,2.1,0,0,0-1.87,1.146l-1.694-.656a1.025,1.025,0,1,0-.741,1.912l2.2.853V50.82H61.752a2.1,2.1,0,0,0-2.1,2.1v6.459H54.021a2.1,2.1,0,0,0-1.582.722L51.08,52.074l1.1-1.655c.646.459,1.233,1.005,2.226.756a1.922,1.922,0,0,0,1.255-1.008l3.844-7.7.888.344a1.025,1.025,0,1,0,.741-1.912l-6.547-2.535V34.8a11.042,11.042,0,0,0,4.264-7.456,4.925,4.925,0,0,0,3.554-8.185v-4.5a14.663,14.663,0,0,0-29.325,0v4.616a4.643,4.643,0,0,0-1.234,3.138,4.944,4.944,0,0,0,4.788,4.93,10.921,10.921,0,0,0,4.505,7.628V38.36L26.716,43.952a10.505,10.505,0,0,0-6.211,9.6V67.655a2.325,2.325,0,0,0,2.322,2.322c37.685,0,17.465.017,61.04.017a1.025,1.025,0,0,0,1.025-1.025V54.618a1.025,1.025,0,0,0-2.051,0V67.943h-5.68V35.8a.052.052,0,0,1,.052-.052H82.82a.023.023,0,0,1,.023.023V49.833A1.025,1.025,0,0,0,83.867,50.859ZM57.585,41.719l-3.692,7.4-4.544-3.228,4.54-5.6Zm-9.717,5.637,2.64,1.875L49.452,50.82H46.283l-1.056-1.589Zm0-2.894L43.19,38.689V36.131a12.053,12.053,0,0,0,4.7.944,11.014,11.014,0,0,0,4.648-1.027V38.7ZM61.589,22.416a2.885,2.885,0,0,1-2.657,2.867V19.55A2.887,2.887,0,0,1,61.589,22.416ZM36.554,25.284A2.884,2.884,0,0,1,33.9,22.416a3.045,3.045,0,0,1,2.657-2.82Zm.033-7.759a5.689,5.689,0,0,0-1.456.345V14.663a12.612,12.612,0,1,1,25.224,0v3.117a5.146,5.146,0,0,0-1.422-.287v-.275h0c0-.949-.138-.908-3.722-4.761a1.95,1.95,0,0,0-2.5-.3,23.261,23.261,0,0,1-14.057,3.783A1.957,1.957,0,0,0,36.587,17.525ZM38.6,26.031V17.987a25.391,25.391,0,0,0,15.159-4.074c1.843,1.98,2.849,3.023,3.118,3.37,0,10.59,0,8.4-.006,8.973A9.14,9.14,0,0,1,38.6,26.031Zm3.236,14.26L46.382,45.9,41.843,49.12l-3.692-7.4Zm.131,27.636H32.045V55.733a1.025,1.025,0,1,0-2.051,0V67.926H22.828a.272.272,0,0,1-.272-.272V53.548a8.46,8.46,0,0,1,4.934-7.7l8.74-3.388,3.844,7.7a1.922,1.922,0,0,0,1.255,1.008c.977.245,1.534-.264,2.226-.756l1.1,1.655Zm2.08,0L46.6,52.87h2.536l2.548,15.056Zm15.6.017h-5.68V61.484a.052.052,0,0,1,.052-.052H59.65v6.511Zm7.731,0H61.7V52.922a.052.052,0,0,1,.052-.052H67.38Zm7.731,0h-5.68V44.361a.052.052,0,0,1,.052-.052h5.628Z" fill="#fff"/>
  </g>
</svg>
