<svg id="Group_1232" data-name="Group 1232" xmlns="http://www.w3.org/2000/svg" xmlns:xlink="http://www.w3.org/1999/xlink" width="62.274" height="62.274" viewBox="0 0 62.274 62.274">
  <defs>
    <clipPath id="clip-path">
      <rect id="Rectangle_228" data-name="Rectangle 228" width="62.274" height="62.274" fill="#fff"/>
    </clipPath>
  </defs>
  <g id="Group_1133" data-name="Group 1133">
    <g id="Group_1132" data-name="Group 1132" clip-path="url(#clip-path)">
      <path id="Path_4715" data-name="Path 4715" d="M612.644,96.87c1.279-4.948.717-8.8-1.636-11.149-1.732-1.732-4.248-2.493-7.477-2.263a28.2,28.2,0,0,0-9.779,2.9,30.021,30.021,0,0,0-3.992-.267,29.672,29.672,0,0,0-29.672,29.672,30.02,30.02,0,0,0,.267,3.992,28.206,28.206,0,0,0-2.9,9.779c-.23,3.229.531,5.745,2.263,7.477a8.694,8.694,0,0,0,6.388,2.305,19.224,19.224,0,0,0,4.761-.67,29.674,29.674,0,0,0,41.775-41.774Zm-8.956-11.219c2.564-.183,4.5.363,5.766,1.624,1.127,1.127,2.19,3.338,1.386,7.606-.034-.034-.066-.068-.1-.1a29.5,29.5,0,0,0-13.178-7.658,22.465,22.465,0,0,1,6.124-1.47Zm-18.558,3.029-.838,3.765a1.1,1.1,0,0,0,.726,1.281l6.073,2.024.925,2.775a1.1,1.1,0,0,0,.433.567l2.652,1.769-.813,3.252-6.746,4.819-2.64-1.761-4.371-3.278a1.1,1.1,0,0,0-1.437.1l-3.3,3.3a1.1,1.1,0,0,0-.322.777v5.04l-1.717,1.717-5.285,2.114a1.1,1.1,0,0,0-.507.411l-2.2,3.3a1.1,1.1,0,0,0-.184.609V126.2l-.935.7a27.469,27.469,0,0,1,20.48-38.221Zm-23.854,46.775c-1.261-1.261-1.808-3.2-1.624-5.767a22.457,22.457,0,0,1,1.47-6.124,29.5,29.5,0,0,0,7.658,13.178l.1.1c-4.268.8-6.479-.26-7.606-1.387Zm13.911-2.877-1.688-2.531,1.731-2.6,2-1.995,3.665-1.833,2.767,1.844a1.1,1.1,0,0,0,.609.184h1.743l1.469,1.469a62.3,62.3,0,0,1-10.492,6.808Zm13.855-3.894,1.042,1.042a1.1,1.1,0,0,0,1.044.288l3.408-.851.66,1.984-.809,2.428-2.775.925a1.1,1.1,0,0,0-.752,1.042v2.709l-2.808,1.872a1.1,1.1,0,0,0-.456.647l-.582,2.327a27.331,27.331,0,0,1-4.117-.731l-.839-5.881a1.1,1.1,0,0,0-1.088-.943h-1.832l-.2-.151a66.714,66.714,0,0,0,10.105-6.707Zm-10.93,8.837a1.1,1.1,0,0,0,.66.22h1.245l.559,3.914a27.425,27.425,0,0,1-7.133-3.805q1.608-.575,3.294-1.361Zm11.135,5.708.379-1.513,2.943-1.963a1.1,1.1,0,0,0,.489-.914v-2.5l2.546-.849a1.1,1.1,0,0,0,.695-.695l1.1-3.3a1.1,1.1,0,0,0,0-.7l-1.1-3.3a1.1,1.1,0,0,0-1.308-.718l-3.793.948-.446-.446q1.539-1.293,3.054-2.693l-1.494-1.613q-1.545,1.432-3.119,2.747l-1.951-1.951a1.1,1.1,0,0,0-.777-.322H584.6l-3.02-2.013a1.1,1.1,0,0,0-1.1-.069l-4.4,2.2a1.1,1.1,0,0,0-.285.206l-2.2,2.2a1.1,1.1,0,0,0-.137.167l-2.2,3.3a1.1,1.1,0,0,0,0,1.219l2.2,3.3a1.11,1.11,0,0,0,.255.27l1.012.758a32.632,32.632,0,0,1-3.3,1.222,27.658,27.658,0,0,1-5.786-7.3l1.7-1.276a1.1,1.1,0,0,0,.439-.879v-5.162l1.824-2.736,5.178-2.071a1.091,1.091,0,0,0,.369-.243l2.2-2.2a1.1,1.1,0,0,0,.322-.777v-5.04l2.3-2.3,3.633,2.725.05.035,3.3,2.2a1.1,1.1,0,0,0,1.248-.02l7.693-5.495a1.1,1.1,0,0,0,.427-.628l1.1-4.4a1.1,1.1,0,0,0-.456-1.181l-2.983-1.988-.98-2.94a1.1,1.1,0,0,0-.695-.7l-5.654-1.883.793-3.568c.763-.064,1.535-.1,2.315-.1a27.409,27.409,0,0,1,20.443,9.14,41.216,41.216,0,0,1-4.162,8.977l1.885,1.13a45.9,45.9,0,0,0,3.923-8.092,27.331,27.331,0,0,1,5.063,12.106l-3.549,2.177a1.1,1.1,0,0,0-.491.67l-2.051,8.206-6.021,2.007a1.1,1.1,0,0,0-.751,1.042v6.139l-1.876,1.876a1.1,1.1,0,0,0-.177,1.322l2.322,4.064a27.312,27.312,0,0,1-14.555,4.183c-.172,0-.343,0-.515-.006Zm16.89-5.421-1.817-3.18,1.6-1.6a1.1,1.1,0,0,0,.322-.777v-5.8l5.842-1.948a1.1,1.1,0,0,0,.718-.776l2.089-8.356,2.279-1.4c.039.594.06,1.192.06,1.8a27.45,27.45,0,0,1-11.1,22.046Zm0,0" transform="translate(-557.341 -83.341)" fill="#fff"/>
    </g>
  </g>
  <path id="Path_4716" data-name="Path 4716" d="M763.583,230.088V221.3a1.1,1.1,0,0,0-.8-1.057l-7.693-2.2a1.1,1.1,0,0,0-.6,0l-7.693,2.2a1.1,1.1,0,0,0-.8,1.057v8.792a1.1,1.1,0,0,0,.8,1.057l7.693,2.2a1.1,1.1,0,0,0,.6,0l7.693-2.2a1.1,1.1,0,0,0,.8-1.057Zm-8.792-9.847,3.692,1.055-3.692,1.055L751.1,221.3Zm-6.594,2.512,5.495,1.57v6.506l-5.495-1.57Zm7.693,8.076v-6.506l5.495-1.57v6.506Zm0,0" transform="translate(-711.383 -193.273)" fill="#fff"/>
  <rect id="Rectangle_229" data-name="Rectangle 229" width="2.198" height="2.198" transform="translate(31.32 18.133)" fill="#fff"/>
  <rect id="Rectangle_230" data-name="Rectangle 230" width="2.198" height="2.198" transform="translate(17.034 13.737)" fill="#fff"/>
  <rect id="Rectangle_231" data-name="Rectangle 231" width="2.198" height="2.198" transform="translate(11.539 26.924)" fill="#fff"/>
  <rect id="Rectangle_232" data-name="Rectangle 232" width="2.198" height="2.198" transform="translate(21.43 43.409)" fill="#fff"/>
  <rect id="Rectangle_233" data-name="Rectangle 233" width="2.198" height="2.198" transform="translate(28.023 51.101)" fill="#fff"/>
  <rect id="Rectangle_234" data-name="Rectangle 234" width="2.198" height="2.198" transform="translate(51.101 44.508)" fill="#fff"/>
</svg>
