<svg xmlns="http://www.w3.org/2000/svg" width="67.089" height="69.503" viewBox="0 0 67.089 69.503">
  <g id="Group_1236" data-name="Group 1236" transform="translate(-9351.954 -5584.333)">
    <rect id="Rectangle_216" data-name="Rectangle 216" width="2.396" height="2.396" transform="translate(9356.746 5589.125)" fill="#fff"/>
    <rect id="Rectangle_217" data-name="Rectangle 217" width="2.396" height="2.396" transform="translate(9361.539 5589.125)" fill="#fff"/>
    <rect id="Rectangle_218" data-name="Rectangle 218" width="2.396" height="2.396" transform="translate(9366.33 5589.125)" fill="#fff"/>
    <path id="Path_4709" data-name="Path 4709" d="M330.782,320a10.782,10.782,0,1,0,10.782,10.782A10.782,10.782,0,0,0,330.782,320Zm0,19.168a8.386,8.386,0,1,1,8.386-8.386A8.386,8.386,0,0,1,330.782,339.168Z" transform="translate(9072.687 5307.462)" fill="#fff"/>
    <path id="Path_4710" data-name="Path 4710" d="M110.3,74.7V36.792A4.792,4.792,0,0,0,105.505,32H52.792A4.792,4.792,0,0,0,48,36.792V87.109A4.792,4.792,0,0,0,52.792,91.9H85.139A15.568,15.568,0,1,0,110.3,74.7ZM52.792,34.4h52.713a2.4,2.4,0,0,1,2.4,2.4v4.792H50.4V36.792A2.4,2.4,0,0,1,52.792,34.4Zm0,55.109a2.4,2.4,0,0,1-2.4-2.4V43.98H107.9V72.808a15.532,15.532,0,0,0-23.526,16.7Zm46.723,9.584a13.178,13.178,0,1,1,13.178-13.178A13.178,13.178,0,0,1,99.515,99.089Z" transform="translate(9303.954 5552.333)" fill="#fff"/>
    <path id="Path_4711" data-name="Path 4711" d="M358.785,372.086l-2.747-2.747-1.694,1.694,3.594,3.594a1.2,1.2,0,0,0,1.694,0l6.589-6.589-1.694-1.694Z" transform="translate(9043.486 5268.058)" fill="#fff"/>
    <path id="Path_4712" data-name="Path 4712" d="M95.89,124.389H89.2a1.2,1.2,0,0,0-1.2,1.2v7.188a1.2,1.2,0,0,0,1.2,1.2h7.188a1.2,1.2,0,0,0,1.2-1.2v-6.692l2.045-2.045-1.694-1.694Zm-.7,7.188H90.4v-4.792h3.1l-1.549,1.549,1.694,1.694,1.549-1.549Z" transform="translate(9269.944 5475.519)" fill="#fff"/>
    <rect id="Rectangle_219" data-name="Rectangle 219" width="2.396" height="2.396" transform="translate(9372.32 5599.908)" fill="#fff"/>
    <rect id="Rectangle_220" data-name="Rectangle 220" width="31.149" height="2.396" transform="translate(9377.112 5599.908)" fill="#fff"/>
    <rect id="Rectangle_221" data-name="Rectangle 221" width="31.149" height="2.396" transform="translate(9372.32 5604.699)" fill="#fff"/>
    <path id="Path_4713" data-name="Path 4713" d="M95.89,220.389H89.2a1.2,1.2,0,0,0-1.2,1.2v7.188a1.2,1.2,0,0,0,1.2,1.2h7.188a1.2,1.2,0,0,0,1.2-1.2v-6.692l2.045-2.045-1.694-1.694Zm-.7,7.188H90.4v-4.792h3.1l-1.549,1.549,1.694,1.694,1.549-1.549Z" transform="translate(9269.944 5393.895)" fill="#fff"/>
    <rect id="Rectangle_222" data-name="Rectangle 222" width="2.396" height="2.396" transform="translate(9372.32 5614.284)" fill="#fff"/>
    <rect id="Rectangle_223" data-name="Rectangle 223" width="31.149" height="2.396" transform="translate(9377.112 5614.284)" fill="#fff"/>
    <rect id="Rectangle_224" data-name="Rectangle 224" width="25.159" height="2.396" transform="translate(9372.32 5619.076)" fill="#fff"/>
    <path id="Path_4714" data-name="Path 4714" d="M97.935,314.344l-2.045,2.045H89.2a1.2,1.2,0,0,0-1.2,1.2v7.188a1.2,1.2,0,0,0,1.2,1.2h7.188a1.2,1.2,0,0,0,1.2-1.2v-6.692l2.045-2.045Zm-2.747,9.233H90.4v-4.792h3.1l-1.549,1.549,1.694,1.694,1.549-1.549Z" transform="translate(9269.944 5312.271)" fill="#fff"/>
    <rect id="Rectangle_225" data-name="Rectangle 225" width="2.396" height="2.396" transform="translate(9372.32 5628.66)" fill="#fff"/>
    <rect id="Rectangle_226" data-name="Rectangle 226" width="9.584" height="2.396" transform="translate(9377.112 5628.66)" fill="#fff"/>
    <rect id="Rectangle_227" data-name="Rectangle 227" width="13.178" height="2.396" transform="translate(9372.32 5633.452)" fill="#fff"/>
  </g>
</svg>
